SplineFontDB: 3.2
FontName: AtkinsonHyperPro-Italic
FullName: Atkinson Hyperlegible Pro Italic
FamilyName: Atkinson Hyperlegible Pro
Weight: Regular
Copyright: Copyright 2020 Braille Institute of America, Inc.
UComments: "Update by Jacob Perez+AAoA-https://jacobxperez.github.io/atkinson-hyperlegible-pro/"
Version: 1.3.1
ItalicAngle: -12
UnderlinePosition: -106
UnderlineWidth: 57
Ascent: 800
Descent: 200
InvalidEm: 0
sfntRevision: 0x00010000
LayerCount: 2
Layer: 0 1 "Back" 1
Layer: 1 1 "Fore" 0
XUID: [1021 466 782043844 3810]
StyleMap: 0x0001
FSType: 0
OS2Version: 4
OS2_WeightWidthSlopeOnly: 0
OS2_UseTypoMetrics: 1
CreationTime: 1618935638
ModificationTime: 1697443282
PfmFamily: 81
TTFWeight: 400
TTFWidth: 5
LineGap: 0
VLineGap: 0
Panose: 0 0 0 0 0 0 0 0 0 0
OS2TypoAscent: 950
OS2TypoAOffset: 0
OS2TypoDescent: -290
OS2TypoDOffset: 0
OS2TypoLinegap: 0
OS2WinAscent: 950
OS2WinAOffset: 0
OS2WinDescent: 290
OS2WinDOffset: 0
HheadAscent: 950
HheadAOffset: 0
HheadDescent: -290
HheadDOffset: 0
OS2SubXSize: 650
OS2SubYSize: 699
OS2SubXOff: 0
OS2SubYOff: 140
OS2SupXSize: 650
OS2SupYSize: 699
OS2SupXOff: 0
OS2SupYOff: 479
OS2StrikeYSize: 49
OS2StrikeYPos: 258
OS2CapHeight: 668
OS2XHeight: 496
OS2Vendor: 'NONE'
OS2CodePages: 20000003.00000000
OS2UnicodeRanges: 800000ef.0000204b.00000000.00000000
Lookup: 4 0 1 "'liga' Standard Ligatures lookup 0" { "'liga' Standard Ligatures lookup 0-1"  } ['liga' ('DFLT' <'dflt' > 'grek' <'dflt' > 'latn' <'MOL ' 'dflt' > ) ]
Lookup: 1 0 0 "'zero' Slashed Zero lookup 0" { "'zero' Slashed Zero lookup 0-1"  } ['zero' ('DFLT' <'dflt' > 'grek' <'dflt' > 'latn' <'MOL ' 'dflt' > ) ]
Lookup: 1 0 0 "'aalt' Access All Alternates lookup 0" { "'aalt' Access All Alternates lookup 0 subtable"  } ['aalt' ('DFLT' <'dflt' > 'grek' <'dflt' > 'latn' <'dflt' > ) ]
Lookup: 3 0 0 "'aalt' Access All Alternates lookup 1" { "'aalt' Access All Alternates lookup 1 subtable"  } ['aalt' ('DFLT' <'dflt' > 'grek' <'dflt' > 'latn' <'dflt' > ) ]

StartChar: .notdef
Encoding: 256 -1 0
Width: 523
GlyphClass: 1
Flags: W
HStem: 0 21<77 447> 680 20<76 447>
VStem: 48 21<49 650> 455 20<47 652>
DStem2: 76 680 69 650 0.513698 -0.857971<22.1432 360.147 396.696 737.787> 69 49 77 21 0.513896 0.857853<0 339.381 374.897 715.649>
LayerCount: 2
Fore
SplineSet
77 21 m 1,0,-1
 447 21 l 1,1,-1
 262 329 l 1,2,-1
 77 21 l 1,0,-1
69 49 m 1,3,-1
 249 350 l 1,4,-1
 69 650 l 1,5,-1
 69 49 l 1,3,-1
455 47 m 1,6,-1
 455 652 l 1,7,-1
 274 350 l 1,8,-1
 455 47 l 1,6,-1
261 371 m 1,9,-1
 447 680 l 1,10,-1
 76 680 l 1,11,-1
 261 371 l 1,9,-1
48 0 m 1,12,-1
 48 700 l 1,13,-1
 475 700 l 1,14,-1
 475 0 l 1,15,-1
 48 0 l 1,12,-1
EndSplineSet
EndChar

StartChar: zero
Encoding: 48 48 5
Width: 654
GlyphClass: 1
Flags: W
HStem: -12 75<222.756 387.14> 605 75<285.312 449.161>
VStem: 66 92<138.033 418.899> 514 92<249.329 529.84>
DStem2: 270 574 211 503 0.437417 -0.899259<38.0398 446.798>
LayerCount: 2
Fore
SplineSet
301.437824222 63 m 0,0,1
 364 63 364 63 408 98 c 1,2,-1
 211 503 l 1,3,4
 193 471 193 471 180.700636638 425.545831052 c 0,5,6
 170 386 170 386 163.90174197 337.891519988 c 0,7,8
 161 315 161 315 159.592773031 296.706049398 c 0,9,10
 158 276 158 276 158 257.332148093 c 0,11,12
 158 204 158 204 169.682025677 164.460836172 c 0,13,14
 184 116 184 116 213.696863097 91.0169246965 c 0,15,16
 247 63 247 63 301.437824222 63 c 0,0,1
465 172 m 1,17,18
 497 238 497 238 508.530893282 331.894416724 c 0,19,20
 511 352 511 352 512.309253712 369.020298255 c 0,21,22
 514 391 514 391 514 409.558418141 c 0,23,24
 514 459 514 459 503.665787166 497.322705926 c 0,25,26
 490 548 490 548 461.72777416 573.992207627 c 0,27,28
 428 605 428 605 369.996355638 605 c 128,-1,29
 312 605 312 605 270 574 c 1,30,-1
 465 172 l 1,17,18
293.604678499 -12 m 0,31,32
 182 -12 182 -12 123.567319627 56.507280437 c 0,33,34
 66 124 66 124 66 248.731618217 c 0,35,36
 66 289 66 289 71.7343818341 334.025516624 c 0,37,38
 93 501 93 501 171.063883028 590.002771095 c 0,39,40
 250 680 250 680 378.614693415 680 c 0,41,42
 490 680 490 680 548.183420682 612.286536275 c 0,43,44
 606 545 606 545 606 419.446310241 c 0,45,46
 606 379 606 379 600.228222051 333.894624178 c 0,47,48
 579 168 579 168 501.267819728 78.8803028724 c 0,49,50
 422 -12 422 -12 293.604678499 -12 c 0,31,32
EndSplineSet
Substitution2: "'zero' Slashed Zero lookup 0-1" zero.alt1
Substitution2: "'aalt' Access All Alternates lookup 0 subtable" zero.alt1
Substitution2: "'tnum' Tabular Numbers lookup 14 subtable" zero.tf
EndChar

StartChar: one
Encoding: 49 49 6
Width: 403
GlyphClass: 1
Flags: W
HStem: 0 21G<158 247.251> 503 68<101 246.339> 648 20G<320 385>
VStem: 158 85<0 85> 327 58<635.07 668>
DStem2: 158 0 243 0 0.207912 0.978148<17.6725 514.255>
LayerCount: 2
Fore
SplineSet
158 0 m 1,0,-1
 265 503 l 1,1,-1
 87 503 l 1,2,-1
 101 571 l 1,3,4
 172 571 172 571 219.219965972 583.73347397 c 0,5,6
 261 595 261 595 289.200823981 618.862235676 c 0,7,8
 313 639 313 639 327 668 c 1,9,-1
 385 668 l 1,10,-1
 243 0 l 1,11,-1
 158 0 l 1,0,-1
EndSplineSet
Substitution2: "'tnum' Tabular Numbers lookup 14 subtable" one.tf
Substitution2: "'sups' Superscript lookup 9 subtable" uni00B9
AlternateSubs2: "'aalt' Access All Alternates lookup 1 subtable" uni00B9 one.tf
EndChar

StartChar: two
Encoding: 50 50 7
Width: 565
GlyphClass: 1
Flags: W
HStem: 0 77<131 463> 498 21G<109 187.5> 610 70<254.037 411.372>
VStem: 455 93<418.475 567.523>
LayerCount: 2
Fore
SplineSet
-18 0 m 1,0,-1
 -2 76 l 1,1,2
 62 112 62 112 114.894165851 144.14337771 c 0,3,4
 192 191 192 191 245.400899434 229.014199597 c 0,5,6
 310 275 310 275 353.872377796 317.441756781 c 0,7,8
 402 364 402 364 426.89200856 406.739109037 c 0,9,10
 455 455 455 455 455 501.788950692 c 0,11,12
 455 554 455 554 416.561456792 584.750834567 c 0,13,14
 385 610 385 610 339.192419044 610 c 0,15,16
 295 610 295 610 257.796859734 591.398429867 c 0,17,18
 201 563 201 563 174 498 c 1,19,-1
 96 522 l 1,20,21
 167 680 167 680 340.454524079 680 c 0,22,23
 399 680 399 680 443.392361719 662.629075849 c 0,24,25
 491 644 491 644 517.415657517 609.242555898 c 0,26,27
 548 569 548 569 548 508.258822983 c 0,28,29
 548 441 548 441 507.379691863 374.382694655 c 0,30,31
 473 318 473 318 403.088897026 257.673483724 c 0,32,33
 349 211 349 211 264.724349889 156.74033486 c 0,34,35
 203 117 203 117 131 77 c 1,36,-1
 479 77 l 1,37,-1
 463 0 l 1,38,-1
 -18 0 l 1,0,-1
EndSplineSet
Substitution2: "'tnum' Tabular Numbers lookup 14 subtable" two.tf
Substitution2: "'sups' Superscript lookup 9 subtable" uni00B2
AlternateSubs2: "'aalt' Access All Alternates lookup 1 subtable" uni00B2 two.tf
EndChar

StartChar: three
Encoding: 51 51 8
Width: 580
GlyphClass: 1
Flags: W
HStem: -12 70<178.523 349.398> 315 75<230 354.496> 498 21G<106.6 177.5> 610 70<233.847 401.71>
VStem: 32 86<119.214 159.872> 416 89<119.462 262.259> 446 92<438.714 568.609>
LayerCount: 2
Fore
SplineSet
260.620692344 -12 m 0,0,1
 158 -12 158 -12 96.5155540297 40.778683709 c 0,2,3
 45 85 45 85 32 158 c 1,4,-1
 118 181 l 1,5,6
 126 126 126 126 159.209911647 94.1933240564 c 0,7,8
 197 58 197 58 260.668106798 58 c 0,9,10
 303 58 303 58 338.081903032 74.0374413862 c 128,-1,11
 373 90 373 90 393.29089013 117.369107617 c 0,12,13
 416 148 416 148 416 192.365155343 c 0,14,15
 416 234 416 234 394.162387218 262.388896616 c 0,16,17
 376 286 376 286 340.956204936 299.000117524 c 0,18,19
 314 309 314 309 269.648078721 312.801593252 c 0,20,21
 244 315 244 315 214 315 c 1,22,-1
 230 390 l 1,23,24
 270 390 270 390 300.8 392.8 c 0,25,26
 347 397 347 397 375.459801858 407.098639369 c 0,27,28
 409 419 409 419 426.278492863 440.948355799 c 0,29,30
 446 466 446 466 446 504.524298673 c 0,31,32
 446 558 446 558 404.142338533 586.639452583 c 0,33,34
 370 610 370 610 317.26125699 610 c 0,35,36
 257 610 257 610 218.379905466 576.8193554 c 0,37,38
 186 549 186 549 169 498 c 1,39,-1
 91 523 l 1,40,41
 112 593 112 593 169.211380562 634.478250907 c 0,42,43
 232 680 232 680 322.076524385 680 c 0,44,45
 361 680 361 680 396.398634934 672.081884291 c 0,46,47
 437 663 437 663 466.376247572 645.747283172 c 0,48,49
 500 626 500 626 517.702292537 597.58316198 c 0,50,51
 538 565 538 565 538 517.526832629 c 0,52,53
 538 453 538 453 497.885335387 407.001851244 c 0,54,55
 463 367 463 367 403 347 c 1,56,57
 461 328 461 328 485.993101906 282.557996535 c 0,58,59
 505 248 505 248 505 201.008007266 c 0,60,61
 505 145 505 145 479.147045695 99.0391923468 c 0,62,63
 451 49 451 49 400.361324755 20.6609248629 c 0,64,65
 342 -12 342 -12 260.620692344 -12 c 0,0,1
EndSplineSet
Substitution2: "'tnum' Tabular Numbers lookup 14 subtable" three.tf
Substitution2: "'sups' Superscript lookup 9 subtable" uni00B3
AlternateSubs2: "'aalt' Access All Alternates lookup 1 subtable" uni00B3 three.tf
EndChar

StartChar: four
Encoding: 52 52 9
Width: 636
GlyphClass: 1
Flags: W
HStem: 0 21G<320 411.242> 165 79<127 356 459 566> 648 20G<441.811 549>
VStem: 320 87<0 87>
DStem2: 34 244 127 244 0.710419 0.703779<66.0689 503.773> 320 0 407 0 0.207912 0.978148<18.0883 168.879 267.568 564.471>
LayerCount: 2
Fore
SplineSet
127 244 m 1,0,-1
 372 244 l 1,1,-1
 438 552 l 1,2,-1
 127 244 l 1,0,-1
320 0 m 1,3,-1
 356 165 l 1,4,-1
 17 165 l 1,5,-1
 34 244 l 1,6,-1
 462 668 l 1,7,-1
 549 668 l 1,8,-1
 459 244 l 1,9,-1
 583 244 l 1,10,-1
 566 165 l 1,11,-1
 442 165 l 1,12,-1
 407 0 l 1,13,-1
 320 0 l 1,3,-1
EndSplineSet
Substitution2: "'tnum' Tabular Numbers lookup 14 subtable" four.tf
Substitution2: "'sups' Superscript lookup 9 subtable" uni2074
AlternateSubs2: "'aalt' Access All Alternates lookup 1 subtable" four.tf uni2074
EndChar

StartChar: five
Encoding: 53 53 10
Width: 575
GlyphClass: 1
Flags: W
HStem: -12 72.3322<169.817 333.295> 377 73<205.677 357.124> 587 81<229 543>
VStem: 25 83<124.264 155.94> 410 91<141.015 324.018>
DStem2: 63 329 166 400 0.316228 0.948683<1.89737 42.3477 99.928 297.254>
LayerCount: 2
Fore
SplineSet
247.134635496 -12 m 0,0,1
 153 -12 153 -12 92.577500102 39.7129503632 c 0,2,3
 42 83 42 83 25 154 c 1,4,-1
 108 177 l 1,5,6
 124 118 124 118 160.20197847 88.6186841406 c 0,7,8
 193 62 193 62 245.534290729 60.3322447387 c 0,9,10
 319 58 319 58 364.423330347 106.917432681 c 128,-1,11
 410 156 410 156 410 236.751835814 c 0,12,13
 410 310 410 310 369.732153827 345.972609248 c 0,14,15
 335 377 335 377 274.9703514 377 c 0,16,17
 225 377 225 377 186.73694219 352.443112152 c 0,18,19
 158 334 158 334 141 305 c 1,20,-1
 63 329 l 1,21,-1
 176 668 l 1,22,-1
 561 668 l 1,23,-1
 543 587 l 1,24,-1
 229 587 l 1,25,-1
 166 400 l 1,26,27
 220 450 220 450 298.654155968 450 c 0,28,29
 352 450 352 450 395.97341163 427.771682033 c 0,30,31
 443 404 443 404 469.992042768 361.650415658 c 0,32,33
 501 313 501 313 501 242.062908698 c 0,34,35
 501 170 501 170 468.753352581 111.049097687 c 0,36,37
 437 53 437 53 382.840548007 21.5681751827 c 0,38,39
 325 -12 325 -12 247.134635496 -12 c 0,0,1
EndSplineSet
Substitution2: "'tnum' Tabular Numbers lookup 14 subtable" five.tf
Substitution2: "'aalt' Access All Alternates lookup 0 subtable" five.tf
EndChar

StartChar: six
Encoding: 54 54 11
Width: 605
GlyphClass: 1
Flags: W
HStem: -12 70<211.499 364.681> 370 75<237.449 388.768> 610 70<285.19 436.008>
VStem: 62 89<121.544 348.3> 444 90<140.567 313.919>
LayerCount: 2
Fore
SplineSet
285.668121988 58 m 0,0,1
 331 58 331 58 367.538264047 80.8364150292 c 0,2,3
 403 103 403 103 423.091087723 141.712095857 c 0,4,5
 444 182 444 182 444 230.631962851 c 0,6,7
 444 294 444 294 409.052234285 331.408875976 c 0,8,9
 373 370 373 370 309.236425575 370 c 0,10,11
 240 370 240 370 195.99298255 325.004060809 c 0,12,13
 151 279 151 279 151 207.740977506 c 0,14,15
 151 144 151 144 185.554419849 102.726665181 c 0,16,17
 223 58 223 58 285.668121988 58 c 0,0,1
282.029262191 -12 m 0,18,19
 170 -12 170 -12 113.559803429 58.0276513014 c 0,20,21
 62 122 62 122 62 245.884383128 c 0,22,23
 62 324 62 324 81.7904798522 400.265751625 c 0,24,25
 103 482 103 482 141.143398154 542.353478092 c 0,26,27
 182 607 182 607 237.405656169 641.867352589 c 0,28,29
 298 680 298 680 376.353489889 680 c 0,30,31
 447 680 447 680 496.031363513 646.222838469 c 0,32,33
 537 618 537 618 553 573 c 1,34,-1
 465 548 l 1,35,36
 454 577 454 577 430.366777949 592.597926554 c 0,37,38
 404 610 404 610 364.501945673 610 c 0,39,40
 287 610 287 610 233.891204231 540.907003563 c 0,41,42
 184 476 184 476 164 361 c 1,43,44
 189 398 189 398 229.847517519 419.816287766 c 0,45,46
 277 445 277 445 335.529498362 445 c 0,47,48
 395 445 395 445 440.628885142 418.340426659 c 0,49,50
 484 393 484 393 508.291671784 348.303323918 c 0,51,52
 534 301 534 301 534 238.927110627 c 0,53,54
 534 173 534 173 506.127469717 117.7355003 c 0,55,56
 476 58 476 58 422.320637322 24.7472974559 c 0,57,58
 363 -12 363 -12 282.029262191 -12 c 0,18,19
EndSplineSet
Substitution2: "'tnum' Tabular Numbers lookup 14 subtable" six.tf
Substitution2: "'aalt' Access All Alternates lookup 0 subtable" six.tf
EndChar

StartChar: seven
Encoding: 55 55 12
Width: 537
GlyphClass: 1
Flags: W
HStem: 0 21G<31 153.003> 587 81<96 445>
VStem: 31 108<0 108>
DStem2: 31 0 139 0 0.576355 0.817199<62.2464 718.307>
LayerCount: 2
Fore
SplineSet
31 0 m 1,0,-1
 445 587 l 1,1,-1
 78 587 l 1,2,-1
 96 668 l 1,3,-1
 567 668 l 1,4,-1
 550 587 l 1,5,-1
 139 0 l 1,6,-1
 31 0 l 1,0,-1
EndSplineSet
Substitution2: "'tnum' Tabular Numbers lookup 14 subtable" seven.tf
Substitution2: "'aalt' Access All Alternates lookup 0 subtable" seven.tf
EndChar

StartChar: eight
Encoding: 56 56 13
Width: 617
GlyphClass: 1
Flags: W
HStem: -12 75<180.328 372.107> 317 74<245.817 374.088> 605 75<262.02 392.415>
VStem: 38 91<109.423 249.801> 137 74<425.497 554.758> 427 74<442.986 570.326> 444 90<128.219 269.565>
LayerCount: 2
Fore
SplineSet
273.745977119 63 m 0,0,1
 349 63 349 63 395.432537864 99.6572667347 c 0,2,3
 444 138 444 138 444 200.422512842 c 0,4,5
 444 256 444 256 405.19968622 286.737910917 c 0,6,7
 367 317 367 317 300.496543542 317 c 0,8,9
 225 317 225 317 177.695228502 278.564873158 c 0,10,11
 129 239 129 239 129 177.256296619 c 0,12,13
 129 122 129 122 168.879882304 91.834448001 c 0,14,15
 207 63 207 63 273.745977119 63 c 0,0,1
307.573436195 391 m 0,16,17
 339 391 339 391 366.644899541 407.382162691 c 0,18,19
 393 423 393 423 409.157317392 448.66162174 c 0,20,21
 427 477 427 477 427 509.405480466 c 0,22,23
 427 550 427 550 399.112125696 577.389876549 c 0,24,25
 371 605 371 605 329.552103253 605 c 0,26,27
 298 605 298 605 270.246533878 588.553501557 c 0,28,29
 244 573 244 573 228.388471233 547.926938647 c 0,30,31
 211 520 211 520 211 487.664491307 c 0,32,33
 211 447 211 447 238.224152259 419.280863155 c 0,34,35
 266 391 266 391 307.573436195 391 c 0,16,17
265.792672372 -12 m 0,36,37
 200 -12 200 -12 148.804840496 8.87569610827 c 0,38,39
 97 30 97 30 68.7296703449 67.8534922501 c 0,40,41
 38 109 38 109 38 169.986463809 c 0,42,43
 38 240 38 240 80.9271842071 294.056454187 c 0,44,45
 119 342 119 342 181 365 c 1,46,47
 137 411 137 411 137 478.863586185 c 0,48,49
 137 533 137 533 165.831488753 580.366017238 c 0,50,51
 193 625 193 625 237.738406621 651.745786567 c 0,52,53
 285 680 285 680 338.123429347 680 c 0,54,55
 385 680 385 680 423.187458504 657.293943592 c 0,56,57
 459 636 459 636 479.497979661 599.884512025 c 0,58,59
 501 562 501 562 501 515.900728851 c 0,60,61
 501 472 501 472 480.903866794 431.292448121 c 0,62,63
 462 393 462 393 429 365 c 1,64,65
 477 346 477 346 504.204530301 308.772748009 c 0,66,67
 534 268 534 268 534 207.461603332 c 0,68,69
 534 140 534 140 495.238652335 87.6198004527 c 0,70,71
 460 40 460 40 399.019789821 13.7936286834 c 0,72,73
 339 -12 339 -12 265.792672372 -12 c 0,36,37
EndSplineSet
Substitution2: "'tnum' Tabular Numbers lookup 14 subtable" eight.tf
Substitution2: "'aalt' Access All Alternates lookup 0 subtable" eight.tf
EndChar

StartChar: nine
Encoding: 57 57 14
Width: 601
GlyphClass: 1
Flags: W
HStem: 0 21G<151 274> 209 79<237.417 334.75> 596 84<267.399 432.868>
VStem: 92 87<345.968 509.133> 487 87<383.903 541.397>
DStem2: 151 0 267 0 0.632666 0.774424<73.3893 247.081>
LayerCount: 2
Fore
SplineSet
312.733720625 288 m 0,0,1
 361 288 361 288 402.656630396 315.419554185 c 0,2,3
 440 340 440 340 462.891551521 379.938451589 c 0,4,5
 487 422 487 422 487 465.131754957 c 0,6,7
 487 498 487 498 473.911409283 525.579530439 c 0,8,9
 459 557 459 557 432.185576488 574.724788424 c 0,10,11
 400 596 400 596 354.120868354 596 c 0,12,13
 308 596 308 596 268.411445437 574.721151922 c 0,14,15
 228 553 228 553 204.719207166 515.940778754 c 0,16,17
 179 475 179 475 179 425.16985698 c 0,18,19
 179 365 179 365 216.479751737 326.520788216 c 128,-1,20
 254 288 254 288 312.733720625 288 c 0,0,1
151 0 m 1,21,-1
 335 211 l 1,22,23
 327 210 327 210 318.249783362 209.485281374 c 0,24,25
 310 209 310 209 301.342963498 209 c 0,26,27
 235 209 235 209 185.547128594 238.987379469 c 0,28,29
 141 266 141 266 116.033388178 314.404655574 c 0,30,31
 92 361 92 361 92 418.778292963 c 0,32,33
 92 489 92 489 128.131067478 549.557704646 c 0,34,35
 163 608 163 608 220.947402742 642.481099153 c 0,36,37
 284 680 284 680 357.73527283 680 c 0,38,39
 422 680 422 680 472.567530283 650.285059524 c 0,40,41
 519 623 519 623 545.860777156 576.115734418 c 0,42,43
 574 527 574 527 574 470.613759574 c 0,44,45
 574 437 574 437 564.683406309 405.323581451 c 0,46,47
 554 369 554 369 521.603996148 320.405994222 c 0,48,49
 502 291 502 291 460.049083674 236.304501499 c 0,50,51
 423 188 423 188 378.418782465 133.261036698 c 0,52,53
 344 91 344 91 303.370256364 43.2761741419 c 0,54,55
 281 17 281 17 267 0 c 1,56,-1
 151 0 l 1,21,-1
EndSplineSet
Substitution2: "'tnum' Tabular Numbers lookup 14 subtable" nine.tf
Substitution2: "'aalt' Access All Alternates lookup 0 subtable" nine.tf
EndChar

StartChar: A
Encoding: 65 65 15
Width: 627
GlyphClass: 2
Flags: W
HStem: 0 21G<-52 67.3699 459.123 565> 146 80<184 430> 648 20G<328.263 459.263>
VStem: 462 103<0 103>
DStem2: -52 0 56 0 0.506117 0.862465<54.6606 222.588>
AnchorPoint: "Anchor-2" 565 0 basechar 0
AnchorPoint: "Anchor-1" 387 668 basechar 0
AnchorPoint: "Anchor-0" 261 0 basechar 0
LayerCount: 2
Fore
SplineSet
184 226 m 1,0,-1
 430 226 l 1,1,-1
 381 573 l 1,2,-1
 184 226 l 1,0,-1
-52 0 m 1,3,-1
 340 668 l 1,4,-1
 456 668 l 1,5,-1
 565 0 l 1,6,-1
 462 0 l 1,7,-1
 441 146 l 1,8,-1
 139 146 l 1,9,-1
 56 0 l 1,10,-1
 -52 0 l 1,3,-1
EndSplineSet
Substitution2: "Single Substitution lookup 12 subtable" ordfeminine
Substitution2: "'aalt' Access All Alternates lookup 0 subtable" ordfeminine
EndChar

StartChar: B
Encoding: 66 66 16
Width: 625
GlyphClass: 1
Flags: W
HStem: 0 79<127 395.566> 308 74<192 429.595> 588 80<235 471.472>
VStem: 468 104<146.818 272.145> 504 100<436.118 556.822>
DStem2: 14 0 110.208 0 0.207912 0.978148<100.768 334.951 410.661 621.099>
AnchorPoint: "Anchor-1" 342 668 basechar 0
LayerCount: 2
Fore
SplineSet
127 79 m 1,0,-1
 308 79 l 2,1,2
 359 79 359 79 397.911445805 101.469989831 c 0,3,4
 430 120 430 120 449.414195877 151.675793272 c 0,5,6
 468 182 468 182 468 212.678502265 c 0,7,8
 468 251 468 251 442.347072184 276.210635957 c 0,9,10
 410 308 410 308 348 308 c 2,11,-1
 176 308 l 1,12,-1
 127 79 l 1,0,-1
192 382 m 1,13,-1
 364 382 l 2,14,15
 410 382 410 382 443.846109663 401.10667481 c 0,16,17
 472 417 472 417 488.48573209 444.819672902 c 0,18,19
 504 471 504 471 504 498.606775517 c 0,20,21
 504 534 504 534 481.425490981 557.902421314 c 0,22,23
 453 588 453 588 400 588 c 2,24,-1
 235 588 l 1,25,-1
 192 382 l 1,13,-1
14 0 m 1,26,-1
 156 668 l 1,27,-1
 407 668 l 2,28,29
 475 668 475 668 521.737382999 645.437125449 c 0,30,31
 562 626 562 626 583.946283962 589.945390634 c 0,32,33
 604 557 604 557 604 517.500250992 c 0,34,35
 604 470 604 470 577.024232453 427.210851477 c 0,36,37
 546 378 546 378 490 352 c 1,38,39
 531 336 531 336 552.642425845 298.521652805 c 0,40,41
 572 265 572 265 572 222.363704824 c 0,42,43
 572 183 572 183 556.202930352 145.661471741 c 0,44,45
 539 105 539 105 507.366224922 74.3105167149 c 0,46,47
 472 40 472 40 423.89572286 21.3187273241 c 0,48,49
 369 0 369 0 300 0 c 2,50,-1
 14 0 l 1,26,-1
EndSplineSet
EndChar

StartChar: C
Encoding: 67 67 17
Width: 661
GlyphClass: 2
Flags: W
HStem: -12 79<239.364 428.713> 498 21G<558 625.333> 600 80<314.568 501.474>
VStem: 53 96<164.955 400.649>
AnchorPoint: "Anchor-1" 420 668 basechar 0
AnchorPoint: "Anchor-0" 295 0 basechar 0
LayerCount: 2
Fore
SplineSet
313.448136714 -12 m 0,0,1
 243 -12 243 -12 189.631029377 12.5497264865 c 0,2,3
 143 34 143 34 110.803228528 74.505615723 c 0,4,5
 81 112 81 112 66.0685680331 164.793277311 c 0,6,7
 53 211 53 211 53 266.387621713 c 0,8,9
 53 346 53 346 80.0505395552 421.641323571 c 0,10,11
 107 497 107 497 155.198550794 554.051345838 c 0,12,13
 205 613 205 613 269.789729204 645.154902642 c 0,14,15
 340 680 340 680 422.458175021 680 c 0,16,17
 508 680 508 680 566.754180225 644.17428035 c 0,18,19
 631 605 631 605 655 528 c 1,20,-1
 566 498 l 1,21,22
 550 548 550 548 507.999404407 574.634524034 c 0,23,24
 468 600 468 600 410.944882401 600 c 0,25,26
 351 600 351 600 299.659006723 570.359838933 c 0,27,28
 254 544 254 544 219.064790511 495.707210412 c 0,29,30
 186 450 186 450 167.666027027 392.025004384 c 0,31,32
 149 333 149 333 149 274.636996061 c 0,33,34
 149 212 149 212 170.685543358 165.098708551 c 0,35,36
 192 119 192 119 231.338386844 93.4300485515 c 0,37,38
 272 67 272 67 331.820426789 67 c 0,39,40
 390 67 390 67 434.430635574 91.6836864299 c 0,41,42
 480 117 480 117 516 171 c 1,43,-1
 595 140 l 1,44,45
 548 64 548 64 474.76193414 25.3465763518 c 0,46,47
 404 -12 404 -12 313.448136714 -12 c 0,0,1
EndSplineSet
EndChar

StartChar: D
Encoding: 68 68 18
Width: 674
GlyphClass: 2
Flags: W
HStem: 0 79<127 356.672> 588 80<235 449.806>
DStem2: 14 0 110.208 0 0.207912 0.978148<100.768 621.099>
AnchorPoint: "Anchor-1" 378 668 basechar 0
AnchorPoint: "Anchor-0" 285 0 basechar 0
LayerCount: 2
Fore
SplineSet
127 79 m 1,0,-1
 213 79 l 2,1,2
 295 79 295 79 357.400695283 100.886811032 c 0,3,4
 429 126 429 126 472.480383995 177.042189908 c 0,5,6
 521 234 521 234 538.248781212 336.608134388 c 0,7,8
 560 466 560 466 509.077361571 526.316134838 c 0,9,10
 457 588 457 588 320 588 c 2,11,-1
 235 588 l 1,12,-1
 127 79 l 1,0,-1
14 0 m 1,13,-1
 156 668 l 1,14,-1
 340 668 l 2,15,16
 518 668 518 668 589.627603744 580.230964427 c 0,17,18
 660 494 660 494 633.090943122 332.545658732 c 0,19,20
 613 212 613 212 550.210554559 136.439819893 c 0,21,22
 495 70 495 70 403.305672042 34.7329507854 c 0,23,24
 313 0 313 0 199 0 c 2,25,-1
 14 0 l 1,13,-1
EndSplineSet
EndChar

StartChar: E
Encoding: 69 69 19
Width: 565
GlyphClass: 2
Flags: W
HStem: 0 81<127 469> 304 80<192 439> 587 81<235 594>
DStem2: 14 0 109.783 0 0.207912 0.978148<102.724 330.831 412.617 620.121>
AnchorPoint: "Anchor-2" 438 0 basechar 0
AnchorPoint: "Anchor-1" 380 668 basechar 0
AnchorPoint: "Anchor-0" 230 0 basechar 0
LayerCount: 2
Fore
SplineSet
14 0 m 1,0,-1
 156 668 l 1,1,-1
 611 668 l 1,2,-1
 594 587 l 1,3,-1
 235 587 l 1,4,-1
 192 384 l 1,5,-1
 457 384 l 1,6,-1
 439 304 l 1,7,-1
 175 304 l 1,8,-1
 127 81 l 1,9,-1
 486 81 l 1,10,-1
 469 0 l 1,11,-1
 14 0 l 1,0,-1
EndSplineSet
EndChar

StartChar: F
Encoding: 70 70 20
Width: 546
GlyphClass: 1
Flags: W
HStem: 0 21G<14 114.276> 304 80<192 514> 587 81<235 574>
VStem: 14 96<0 96>
DStem2: 14 0 110 0 0.207912 0.978148<19.9595 330.831 412.617 620.121>
AnchorPoint: "Anchor-1" 374 668 basechar 0
LayerCount: 2
Fore
SplineSet
14 0 m 1,0,-1
 156 668 l 1,1,-1
 592 668 l 1,2,-1
 574 587 l 1,3,-1
 235 587 l 1,4,-1
 192 384 l 1,5,-1
 531 384 l 1,6,-1
 514 304 l 1,7,-1
 175 304 l 1,8,-1
 110 0 l 1,9,-1
 14 0 l 1,0,-1
EndSplineSet
EndChar

StartChar: G
Encoding: 71 71 21
Width: 712
GlyphClass: 2
Flags: W
HStem: -12 78.4679<240.035 416.124> 0 21G<523.537 585.302> 264 80<368 547> 498 21G<561 625.333> 600 80<313.597 501.718>
VStem: 54 96<163.954 403.487> 525 56<0 32.5405>
DStem2: 488.334 -12 579.33 -12 0.207912 0.978148<156.552 282.166>
AnchorPoint: "Anchor-1" 445 668 basechar 0
AnchorPoint: "Anchor-0" 303 0 basechar 0
LayerCount: 2
Fore
SplineSet
302.718052552 -12 m 0,0,1
 222 -12 222 -12 164.886909817 24.3446937527 c 0,2,3
 112 58 112 58 83.1496173716 120.177548768 c 0,4,5
 54 183 54 183 54 267.977039822 c 0,6,7
 54 349 54 349 80.6037364117 424.293593618 c 0,8,9
 107 499 107 499 154.684339012 555.532979241 c 0,10,11
 204 614 204 614 268.617775987 645.826665784 c 0,12,13
 338 680 338 680 422.205249794 680 c 0,14,15
 511 680 511 680 570.18818256 643.128673159 c 0,16,17
 633 604 633 604 655 528 c 1,18,-1
 566 498 l 1,19,20
 556 536 556 536 524.354102509 562.649176834 c 0,21,22
 480 600 480 600 410.034448093 600 c 0,23,24
 350 600 350 600 299.327244679 570.968733931 c 0,25,26
 254 545 254 545 219.129579732 496.796771983 c 0,27,28
 186 451 186 451 168.076559514 393.246691769 c 0,29,30
 150 335 150 335 150 274.718171702 c 0,31,32
 150 177 150 177 199.895584204 120.27659901 c 0,33,34
 245 69 245 69 322.228736467 66.4679102798 c 0,35,36
 367 65 367 65 406.49551957 78.6040122965 c 0,37,38
 457 96 457 96 489.723928031 133.466526297 c 0,39,40
 526 175 526 175 542 243 c 2,41,-1
 547 264 l 1,42,-1
 351 264 l 1,43,-1
 368 344 l 1,44,-1
 655 344 l 1,45,-1
 581 0 l 1,46,-1
 525 0 l 1,47,-1
 519 82 l 1,48,49
 435 -12 435 -12 302.718052552 -12 c 0,0,1
EndSplineSet
EndChar

StartChar: H
Encoding: 72 72 22
Width: 694
GlyphClass: 1
Flags: W
HStem: 0 21G<14 114.276 460 560.251> 304 80<192 524> 648 20G<151.749 252 597.775 698>
VStem: 14 96<0 96> 156 96<572 668> 460 96<0 96> 602 96<572 668>
DStem2: 14 0 110 0 0.207912 0.978148<19.9595 330.831 412.617 682.926> 460 0 556 0 0.207912 0.978148<19.9595 310.663 392.657 682.926>
AnchorPoint: "Anchor-1" 417 668 basechar 0
LayerCount: 2
Fore
SplineSet
14 0 m 1,0,-1
 156 668 l 1,1,-1
 252 668 l 1,2,-1
 192 384 l 1,3,-1
 542 384 l 1,4,-1
 602 668 l 1,5,-1
 698 668 l 1,6,-1
 556 0 l 1,7,-1
 460 0 l 1,8,-1
 524 304 l 1,9,-1
 175 304 l 1,10,-1
 110 0 l 1,11,-1
 14 0 l 1,0,-1
EndSplineSet
EndChar

StartChar: I
Encoding: 73 73 23
Width: 414
GlyphClass: 2
Flags: W
HStem: 0 75<20 113 209 285> 593 75<146 223 318 412>
DStem2: 97.0583 0 193.058 0 0.207912 0.978148<96.6351 606.226>
AnchorPoint: "Anchor-2" 196 0 basechar 0
AnchorPoint: "Anchor-1" 287 668 basechar 0
AnchorPoint: "Anchor-0" 150 0 basechar 0
LayerCount: 2
Fore
SplineSet
4 0 m 1,0,-1
 20 75 l 1,1,-1
 113 75 l 1,2,-1
 223 593 l 1,3,-1
 130 593 l 1,4,-1
 146 668 l 1,5,-1
 427 668 l 1,6,-1
 412 593 l 1,7,-1
 318 593 l 1,8,-1
 209 75 l 1,9,-1
 301 75 l 1,10,-1
 285 0 l 1,11,-1
 4 0 l 1,0,-1
EndSplineSet
EndChar

StartChar: J
Encoding: 74 74 24
Width: 509
GlyphClass: 1
Flags: W
HStem: -12 77<106.724 251.682> 648 20G<412.736 513>
VStem: 417 96<572 668>
DStem2: 272.175 -12 368.387 -12 0.207912 0.978148<118.432 695.251>
AnchorPoint: "Anchor-1" 466 668 basechar 0
LayerCount: 2
Fore
SplineSet
166.5278927 -12 m 0,0,1
 75 -12 75 -12 28.2063094238 44.4576049343 c 0,2,3
 -17 99 -17 99 -7 190 c 1,4,-1
 83 214 l 1,5,6
 81 201 81 201 79.9707890075 192.76631206 c 0,7,8
 78 177 78 177 78 163.636017426 c 0,9,10
 78 117 78 117 101.223332149 91.8413901724 c 0,11,12
 126 65 126 65 174.542715255 65 c 0,13,14
 207 65 207 65 231.628039332 75.5548739995 c 0,15,16
 263 89 263 89 283.658402001 119.048584729 c 0,17,18
 307 153 307 153 320 213 c 2,19,-1
 417 668 l 1,20,-1
 513 668 l 1,21,-1
 416 212 l 2,22,23
 399 131 399 131 365.569713096 79.7402267479 c 0,24,25
 339 39 339 39 298.665576793 16.0317867848 c 0,26,27
 267 -2 267 -2 219.106849622 -8.56070553121 c 0,28,29
 194 -12 194 -12 166.5278927 -12 c 0,0,1
EndSplineSet
EndChar

StartChar: K
Encoding: 75 75 25
Width: 623
GlyphClass: 2
Flags: W
HStem: 0 21G<14 114.286 435.815 551> 648 20G<151.749 252 517.895 670>
VStem: 14 96<0 96> 156 96<572 668> 540 130<538 668>
DStem2: 14 0 110 0 0.207912 0.978148<19.9595 234.727 372.598 682.926> 183 345 281 324 0.747249 0.664544<0 59.275 152.12 481.416> 351 385 281 324 0.46099 -0.887405<21.8624 385.445>
AnchorPoint: "Anchor-1" 401 668 basechar 0
AnchorPoint: "Anchor-0" 259 0 basechar 0
LayerCount: 2
Fore
SplineSet
14 0 m 1,0,-1
 156 668 l 1,1,-1
 252 668 l 1,2,-1
 183 345 l 1,3,-1
 540 668 l 1,4,-1
 670 668 l 1,5,-1
 351 385 l 1,6,-1
 551 0 l 1,7,-1
 446 0 l 1,8,-1
 281 324 l 1,9,-1
 155 210 l 1,10,-1
 110 0 l 1,11,-1
 14 0 l 1,0,-1
EndSplineSet
EndChar

StartChar: L
Encoding: 76 76 26
Width: 541
GlyphClass: 2
Flags: W
HStem: 0 81<127 469> 648 20G<151.749 252>
VStem: 156 96<572 668>
DStem2: 14 0 109.783 0 0.207912 0.978148<102.724 682.926>
AnchorPoint: "Anchor-1" 224 668 basechar 0
AnchorPoint: "Anchor-0" 218 0 basechar 0
LayerCount: 2
Fore
SplineSet
14 0 m 1,0,-1
 156 668 l 1,1,-1
 252 668 l 1,2,-1
 127 81 l 1,3,-1
 486 81 l 1,4,-1
 469 0 l 1,5,-1
 14 0 l 1,0,-1
EndSplineSet
EndChar

StartChar: M
Encoding: 77 77 27
Width: 824
GlyphClass: 1
Flags: W
HStem: 0 21G<14 114.278 302.496 411.055 590 690.251> 648 20G<151.749 314.288 655.225 828>
VStem: 14 96<0 96> 590 96<0 96>
DStem2: 14 0 110 0 0.207912 0.978148<19.9595 607.968> 312 668 233 575 0.124247 -0.992251<82.4638 545.504> 374 126 400 0 0.483781 0.875189<0 541.023> 590 0 686 0 0.207912 0.978148<19.9595 571.526>
AnchorPoint: "Anchor-1" 473 668 basechar 0
LayerCount: 2
Fore
SplineSet
14 0 m 1,0,-1
 156 668 l 1,1,-1
 312 668 l 1,2,-1
 374 126 l 1,3,-1
 666 668 l 1,4,-1
 828 668 l 1,5,-1
 686 0 l 1,6,-1
 590 0 l 1,7,-1
 709 559 l 1,8,-1
 400 0 l 1,9,-1
 305 0 l 1,10,-1
 233 575 l 1,11,-1
 110 0 l 1,12,-1
 14 0 l 1,0,-1
EndSplineSet
EndChar

StartChar: N
Encoding: 78 78 28
Width: 693
GlyphClass: 2
Flags: W
HStem: 0 21G<14 114.271 411.576 559.251> 648 20G<151.749 299.481 596.749 697>
VStem: 14 96<0 96> 601 96<572 668>
DStem2: 14 0 110 0 0.207912 0.978148<19.9595 608.946> 293 668 233 576 0.305795 -0.952097<69.2452 603.382> 459.02 0 555 0 0.207912 0.978148<96.1 682.922>
AnchorPoint: "Anchor-1" 436 668 basechar 0
AnchorPoint: "Anchor-0" 264 0 basechar 0
LayerCount: 2
Fore
SplineSet
14 0 m 1,0,-1
 156 668 l 1,1,-1
 293 668 l 1,2,-1
 479 94 l 1,3,-1
 601 668 l 1,4,-1
 697 668 l 1,5,-1
 555 0 l 1,6,-1
 418 0 l 1,7,-1
 233 576 l 1,8,-1
 110 0 l 1,9,-1
 14 0 l 1,0,-1
EndSplineSet
EndChar

StartChar: O
Encoding: 79 79 29
Width: 728
GlyphClass: 2
Flags: W
HStem: -12 79<239.017 426.718> 600 80<317.81 506.191>
VStem: 55 95<161.792 403.807> 596 95<266.156 504.793>
AnchorPoint: "Anchor-2" 604 10 basechar 0
AnchorPoint: "Anchor-1" 438 668 basechar 0
AnchorPoint: "Anchor-0" 311 0 basechar 0
LayerCount: 2
Fore
SplineSet
329.499977811 67 m 0,0,1
 388 67 388 67 440.15529153 95.4013963776 c 0,2,3
 489 122 489 122 525.031105671 170.384627616 c 0,4,5
 559 216 559 216 577.473615619 275.415142127 c 128,-1,6
 596 335 596 335 596 395.669913414 c 0,7,8
 596 464 596 464 571.074828129 511.729052519 c 0,9,10
 549 554 549 554 508.51409269 577.279396703 c 0,11,12
 469 600 469 600 415.414408383 600 c 0,13,14
 357 600 357 600 305.102877285 571.975553734 c 0,15,16
 257 546 257 546 221.502267893 499.345837802 c 0,17,18
 187 454 187 454 168.526641185 394.58568381 c 128,-1,19
 150 335 150 335 150 273.389241593 c 0,20,21
 150 204 150 204 175.027973022 155.541584149 c 0,22,23
 197 113 197 113 236.044571058 90.2651864725 c 0,24,25
 276 67 276 67 329.499977811 67 c 0,0,1
316.21278402 -12 m 0,26,27
 231 -12 231 -12 170.579616307 26.3538087791 c 0,28,29
 116 61 116 61 85.5971889312 124.297655832 c 0,30,31
 55 188 55 188 55 274.110012312 c 0,32,33
 55 355 55 355 82.067650354 429.686664866 c 0,34,35
 109 504 109 504 157.200234544 559.016429328 c 0,36,37
 208 617 208 617 276.508033865 647.828615239 c 0,38,39
 348 680 348 680 428.582017694 680 c 0,40,41
 515 680 515 680 576.067177505 640.704598823 c 0,42,43
 630 606 630 606 660.27447862 543.465831046 c 0,44,45
 691 480 691 480 691 395.213116348 c 0,46,47
 691 315 691 315 663.586377318 240.235574503 c 0,48,49
 636 165 636 165 585.888265247 108.934395771 c 0,50,51
 535 52 535 52 467.100176221 20.7367717851 c 0,52,53
 396 -12 396 -12 316.21278402 -12 c 0,26,27
EndSplineSet
Substitution2: "Single Substitution lookup 12 subtable" ordmasculine
Substitution2: "'aalt' Access All Alternates lookup 0 subtable" ordmasculine
EndChar

StartChar: P
Encoding: 80 80 30
Width: 597
GlyphClass: 1
Flags: W
HStem: 0 21G<14 114.226> 265 81<184 434.127> 588 80<235 463.314>
VStem: 14 96<0 96> 503 98<406.25 550.924>
DStem2: 14 0 110 0 0.207912 0.978148<19.9595 290.812 373.784 621.099>
AnchorPoint: "Anchor-1" 349 668 basechar 0
LayerCount: 2
Fore
SplineSet
184 346 m 1,0,-1
 311 346 l 2,1,2
 370 346 370 346 409.862317443 358.051398297 c 0,3,4
 456 372 456 372 478.67390069 401.910251975 c 0,5,6
 503 434 503 434 503 483.433375819 c 0,7,8
 503 548 503 548 454.678107548 571.287659013 c 0,9,10
 420 588 420 588 351 588 c 2,11,-1
 235 588 l 1,12,-1
 184 346 l 1,0,-1
14 0 m 1,13,-1
 156 668 l 1,14,-1
 342 668 l 2,15,16
 385 668 385 668 420.37982427 663.723317945 c 0,17,18
 476 657 476 657 512.398961787 640.45501737 c 0,19,20
 553 622 553 622 574.739485653 591.202395324 c 0,21,22
 601 554 601 554 601 489.322808868 c 0,23,24
 601 410 601 410 560.198602906 357.319715144 c 0,25,26
 522 308 522 308 446.693337843 285.034138491 c 0,27,28
 381 265 381 265 287 265 c 2,29,-1
 166 265 l 1,30,-1
 110 0 l 1,31,-1
 14 0 l 1,13,-1
EndSplineSet
EndChar

StartChar: Q
Encoding: 81 81 31
Width: 748
GlyphClass: 1
Flags: W
HStem: 5 79<242.109 431.253> 617 79<320.808 509.797>
VStem: 58 95<178.816 420.266> 599 95<284.651 521.781>
DStem2: 399 344 328 284 0.648755 -0.760997<0 202.829 288.1 443.298>
LayerCount: 2
Fore
SplineSet
332.908101296 84 m 0,0,1
 404 84 404 84 464 124 c 1,2,-1
 328 284 l 1,3,-1
 399 344 l 1,4,-1
 531 190 l 1,5,6
 564 237 564 237 582.489265519 301.976561681 c 0,7,8
 599 360 599 360 599 415.17484736 c 0,9,10
 599 481 599 481 574.293559016 528.310206139 c 0,11,12
 552 571 552 571 511.415511965 594.33608062 c 0,13,14
 472 617 472 617 418.449313617 617 c 0,15,16
 360 617 360 617 308.323653119 589.094772684 c 0,17,18
 260 563 260 563 224.236349248 515.485435429 c 0,19,20
 190 470 190 470 171.526683636 410.585820343 c 128,-1,21
 153 351 153 351 153 289.859515622 c 0,22,23
 153 221 153 221 177.983135286 172.628397637 c 0,24,25
 200 130 200 130 238.989665035 107.297157068 c 0,26,27
 279 84 279 84 332.908101296 84 c 0,0,1
617 -55 m 1,28,-1
 517 62 l 1,29,30
 477 35 477 35 429.686303097 20.8058909292 c 0,31,32
 377 5 377 5 320.245563015 5 c 0,33,34
 234 5 234 5 173.406912308 43.4634382739 c 0,35,36
 119 78 119 78 88.6213543421 141.247344239 c 0,37,38
 58 205 58 205 58 291.126476506 c 0,39,40
 58 372 58 372 85.0242638833 446.566950345 c 128,-1,41
 112 521 112 521 160.479145407 575.845093793 c 0,42,43
 211 633 211 633 279.154342122 663.669453955 c 0,44,45
 351 696 351 696 431.684916395 696 c 0,46,47
 518 696 518 696 579.216123669 656.608755205 c 0,48,49
 633 622 633 622 663.16499189 560.186492029 c 0,50,51
 694 497 694 497 694 417.571748914 c 0,52,53
 694 367 694 367 681.744046839 314.054282343 c 0,54,55
 669 259 669 259 645.069813061 210.142535 c 0,56,57
 621 161 621 161 588 123 c 1,58,-1
 687 7 l 1,59,-1
 617 -55 l 1,28,-1
EndSplineSet
EndChar

StartChar: R
Encoding: 82 82 32
Width: 610
GlyphClass: 2
Flags: W
HStem: 0 21G<14 114.27 402.822 518> 281 79<187 270> 588 80<235 466.887>
VStem: 14 96<0 96> 503 98<414.301 553.971>
DStem2: 14 0 110 0 0.207912 0.978148<19.9595 307.294 388.102 621.099> 371 288 270 281 0.454621 -0.890685<0 275.611>
AnchorPoint: "Anchor-1" 374 668 basechar 0
AnchorPoint: "Anchor-0" 252 0 basechar 0
LayerCount: 2
Fore
SplineSet
187 360 m 1,0,-1
 311 360 l 2,1,2
 368 360 368 360 406.473232695 369.72886344 c 0,3,4
 455 382 455 382 477.97594063 409.762594928 c 0,5,6
 503 440 503 440 503 488.851759285 c 0,7,8
 503 551 503 551 455.832578054 572.545612494 c 0,9,10
 422 588 422 588 352 588 c 2,11,-1
 235 588 l 1,12,-1
 187 360 l 1,0,-1
14 0 m 1,13,-1
 156 668 l 1,14,-1
 360 668 l 2,15,16
 433 668 433 668 483.308269554 654.025480679 c 0,17,18
 541 638 541 638 569.823001299 604.373165152 c 0,19,20
 601 568 601 568 601 501.457979642 c 0,21,22
 601 408 601 408 538.166221082 351.807189586 c 0,23,24
 478 298 478 298 371 288 c 1,25,-1
 518 0 l 1,26,-1
 413 0 l 1,27,-1
 270 281 l 1,28,-1
 170 281 l 1,29,-1
 110 0 l 1,30,-1
 14 0 l 1,13,-1
EndSplineSet
EndChar

StartChar: S
Encoding: 83 83 33
Width: 609
GlyphClass: 2
Flags: W
HStem: -12 79<200.614 384.585> 601 79<229.294 414.738>
VStem: 87 95<441.99 558.042> 446 98<121.153 243.981>
DStem2: 260.165 406.731 244.881 320.469 0.955115 -0.296235<-72.2176 134.902>
AnchorPoint: "Anchor-1" 356 668 basechar 0
AnchorPoint: "Anchor-0" 277 0 basechar 0
LayerCount: 2
Fore
SplineSet
285.473546902 -12 m 0,0,1
 232 -12 232 -12 184.611744087 4.11200701028 c 0,2,3
 132 22 132 22 95.1832050157 55.9479538167 c 0,4,5
 55 93 55 93 36 147 c 1,6,-1
 127 172 l 1,7,8
 146 118 146 118 198.826494883 89.6405132734 c 0,9,10
 241 67 241 67 292.348917794 67 c 0,11,12
 332 67 332 67 365.568378468 79.9478031232 c 0,13,14
 402 94 402 94 422.816673316 119.074629221 c 0,15,16
 446 147 446 147 446 185.077813364 c 0,17,18
 446 220 446 220 424.097878177 244.148493292 c 0,19,20
 407 263 407 263 369.426514458 279.438399924 c 0,21,22
 343 291 343 291 297.994259471 304.027977522 c 0,23,24
 267 313 267 313 244.881062113 320.468732274 c 0,25,26
 190 339 190 339 160.02262282 357.735860737 c 0,27,28
 126 379 126 379 108.269511388 408.550814353 c 0,29,30
 87 444 87 444 87 493.701059695 c 0,31,32
 87 557 87 557 124.691736547 601.793078216 c 0,33,34
 156 639 156 639 211.428824887 660.042424263 c 0,35,36
 264 680 264 680 323.318152276 680 c 0,37,38
 373 680 373 680 418.843545603 666.344475778 c 0,39,40
 467 652 467 652 501.772224741 626.500368523 c 0,41,42
 542 597 542 597 561 555 c 1,43,-1
 469 529 l 1,44,45
 451 564 451 564 405.265529909 583.907945805 c 0,46,47
 366 601 366 601 320.50082749 601 c 0,48,49
 284 601 284 601 254.381304967 590.656963639 c 0,50,51
 221 579 221 579 202.636260129 557.340204254 c 0,52,53
 182 533 182 533 182 498.518632428 c 0,54,55
 182 465 182 465 203.655887738 441.678274744 c 0,56,57
 221 423 221 423 260.16547493 406.73126426 c 0,58,59
 286 396 286 396 327.311847183 384.19661509 c 0,60,61
 363 374 363 374 389.308226869 364.775037332 c 0,62,63
 440 347 440 347 469.682028984 328.73413601 c 0,64,65
 505 307 505 307 522.881407919 278.573146386 c 0,66,67
 544 245 544 245 544 196.500868634 c 0,68,69
 544 147 544 147 520.702954385 105.700691865 c 0,70,71
 500 69 500 69 461.671730263 41.5486716749 c 0,72,73
 426 16 426 16 380.060006086 2.01826272181 c 128,-1,74
 334 -12 334 -12 285.473546902 -12 c 0,0,1
EndSplineSet
EndChar

StartChar: T
Encoding: 84 84 34
Width: 558
GlyphClass: 2
Flags: W
HStem: 0 21G<169 270.191> 587 81<90 293 389 611>
VStem: 169 97<0 97>
DStem2: 169 0 266 0 0.207912 0.978148<20.1674 599.954>
AnchorPoint: "Anchor-1" 356 668 basechar 0
AnchorPoint: "Anchor-0" 218 0 basechar 0
LayerCount: 2
Fore
SplineSet
169 0 m 1,0,-1
 293 587 l 1,1,-1
 73 587 l 1,2,-1
 90 668 l 1,3,-1
 628 668 l 1,4,-1
 611 587 l 1,5,-1
 389 587 l 1,6,-1
 266 0 l 1,7,-1
 169 0 l 1,0,-1
EndSplineSet
EndChar

StartChar: U
Encoding: 85 85 35
Width: 693
GlyphClass: 2
Flags: W
HStem: -12 81<198.375 404.019> 648 20G<152.722 253 596.707 697>
VStem: 61 98<106.734 316.375> 157 96<572 668> 601 96<572 668>
DStem2: 11.9335 -12 108.634 -12 0.207912 0.978148<225.301 695.301> 455.634 -12 551.933 -12 0.207912 0.978148<156.455 695.364>
AnchorPoint: "Anchor-2" 352 0 basechar 0
AnchorPoint: "Anchor-1" 415 668 basechar 0
AnchorPoint: "Anchor-0" 294 0 basechar 0
LayerCount: 2
Fore
SplineSet
284.83124528 -12 m 0,0,1
 174 -12 174 -12 118.831464027 31.9395419256 c 0,2,3
 61 78 61 78 61 174.3074497 c 0,4,5
 61 198 61 198 64.8194795849 226.918916857 c 0,6,7
 68 251 68 251 74 280 c 2,8,-1
 157 668 l 1,9,-1
 253 668 l 1,10,-1
 169 272 l 2,11,12
 164 247 164 247 161.5 225.5 c 128,-1,13
 159 204 159 204 159 186.527394174 c 0,14,15
 159 125 159 125 189.788970462 97.1906073243 c 0,16,17
 221 69 221 69 293.815457862 69 c 0,18,19
 352 69 352 69 392.60404775 85.6107468069 c 0,20,21
 440 105 440 105 469.464757109 149.446836995 c 128,-1,22
 499 194 499 194 516 272 c 2,23,-1
 601 668 l 1,24,-1
 697 668 l 1,25,-1
 614 280 l 2,26,27
 593 180 593 180 553.669480622 115.541648796 c 0,28,29
 521 62 521 62 471.771422152 30.8219006965 c 0,30,31
 431 5 431 5 372.232107476 -5.1944303358 c 0,32,33
 333 -12 333 -12 284.83124528 -12 c 0,0,1
EndSplineSet
EndChar

StartChar: V
Encoding: 86 86 36
Width: 592
GlyphClass: 1
Flags: W
HStem: 0 21G<175.365 301.138> 648 20G<90 191.222 540.247 662>
VStem: 90 99<569 668>
DStem2: 189 668 90 668 0.130608 -0.991434<0 561.318> 251 110 290 0 0.486531 0.873663<0 633.463>
LayerCount: 2
Fore
SplineSet
178 0 m 1,0,-1
 90 668 l 1,1,-1
 189 668 l 1,2,-1
 251 110 l 1,3,-1
 551 668 l 1,4,-1
 662 668 l 1,5,-1
 290 0 l 1,6,-1
 178 0 l 1,0,-1
EndSplineSet
EndChar

StartChar: W
Encoding: 87 87 37
Width: 844
GlyphClass: 1
Flags: W
HStem: 0 21G<115.222 235.893 482.601 613.281> 648 20G<90 190.444 427.333 549.181 794.926 914>
VStem: 90 100<488.154 668> 116 86<128 179.846> 472 77<200.364 551> 483 71<117 350.636>
DStem2: 202 128 227 0 0.406292 0.913743<0 496.212> 554 117 604 0 0.420952 0.907083<0 605.041>
AnchorPoint: "Anchor-1" 488 668 basechar 0
LayerCount: 2
Fore
SplineSet
116 0 m 1,0,-1
 90 668 l 1,1,-1
 190 668 l 1,2,-1
 202 128 l 1,3,-1
 436 668 l 1,4,-1
 549 668 l 1,5,-1
 554 117 l 1,6,-1
 804 668 l 1,7,-1
 914 668 l 1,8,-1
 604 0 l 1,9,-1
 483 0 l 1,10,-1
 472 551 l 1,11,-1
 227 0 l 1,12,-1
 116 0 l 1,0,-1
EndSplineSet
EndChar

StartChar: X
Encoding: 88 88 38
Width: 624
GlyphClass: 1
Flags: W
HStem: 0 21G<-52 91.4848 439 552> 648 20G<116 227.878 547.469 691>
VStem: -52 125<0 125> 566 125<543 668>
DStem2: -52 0 73 0 0.679101 0.734045<84.8876 444.376 576.029 910.026> 218 668 116 668 0.447214 -0.894427<0 273.248 405.623 700.784>
LayerCount: 2
Fore
SplineSet
-52 0 m 1,0,-1
 274 351 l 1,1,-1
 116 668 l 1,2,-1
 218 668 l 1,3,-1
 339 423 l 1,4,-1
 566 668 l 1,5,-1
 691 668 l 1,6,-1
 383 336 l 1,7,-1
 552 0 l 1,8,-1
 449 0 l 1,9,-1
 317 264 l 1,10,-1
 73 0 l 1,11,-1
 -52 0 l 1,0,-1
EndSplineSet
EndChar

StartChar: Y
Encoding: 89 89 39
Width: 598
GlyphClass: 2
Flags: W
HStem: 0 21G<177 278.25> 648 20G<90 192.172 538.332 668>
VStem: 90 96<572 668> 177 97<0 97> 554 114<554 668>
DStem2: 186 668 90 668 0.308885 -0.951099<0 352.645> 177 0 274 0 0.207912 0.978148<20.1674 245.567> 290 331 325 240 0.625362 0.780335<0 428.068>
AnchorPoint: "Anchor-1" 362 668 basechar 0
AnchorPoint: "Anchor-0" 246 0 basechar 0
LayerCount: 2
Fore
SplineSet
177 0 m 1,0,-1
 229 240 l 1,1,-1
 90 668 l 1,2,-1
 186 668 l 1,3,-1
 290 331 l 1,4,-1
 554 668 l 1,5,-1
 668 668 l 1,6,-1
 325 240 l 1,7,-1
 274 0 l 1,8,-1
 177 0 l 1,0,-1
EndSplineSet
EndChar

StartChar: Z
Encoding: 90 90 40
Width: 613
GlyphClass: 2
Flags: W
HStem: 0 81<123 506> 587 81<145 500>
DStem2: -1 81 123 81 0.703587 0.710609<87.2448 712.065>
AnchorPoint: "Anchor-1" 388 668 basechar 0
AnchorPoint: "Anchor-0" 254 0 basechar 0
LayerCount: 2
Fore
SplineSet
-18 0 m 1,0,-1
 -1 81 l 1,1,-1
 500 587 l 1,2,-1
 128 587 l 1,3,-1
 145 668 l 1,4,-1
 640 668 l 1,5,-1
 623 587 l 1,6,-1
 123 81 l 1,7,-1
 524 81 l 1,8,-1
 506 0 l 1,9,-1
 -18 0 l 1,0,-1
EndSplineSet
EndChar

StartChar: a
Encoding: 97 97 41
Width: 521
GlyphClass: 2
Flags: W
HStem: -12 69<121.352 257.381> 0 21G<327.73 408.5> 436 68<205.566 356.144>
VStem: 5 94<76.3409 182.083> 329 79<0 62.4262> 377 85<307.344 415.724>
DStem2: 201.019 285.307 232.91 224.798 0.994298 0.106636<-76.5466 155.338>
AnchorPoint: "Anchor-2" 408 0 basechar 0
AnchorPoint: "Anchor-1" 311 496 basechar 0
AnchorPoint: "Anchor-0" 208 0 basechar 0
LayerCount: 2
Fore
SplineSet
185.69510642 57 m 0,0,1
 249 57 249 57 296.630649856 101.684424092 c 0,2,3
 346 148 346 148 359 224 c 2,4,-1
 362 241 l 1,5,6
 279 233 279 233 232.910247866 224.797586485 c 0,7,8
 161 212 161 212 130.909866856 190.645711962 c 0,9,10
 99 168 99 168 99 126.762834396 c 0,11,12
 99 91 99 91 124.593869863 72.8710088472 c 0,13,14
 147 57 147 57 185.69510642 57 c 0,0,1
160.820371767 -12 m 0,15,16
 90 -12 90 -12 47.6226840077 22.8989661113 c 0,17,18
 5 58 5 58 5 118.944873815 c 0,19,20
 5 167 5 167 33.9976814718 203.110320323 c 0,21,22
 58 233 58 233 104.460933632 254.863968768 c 0,23,24
 143 273 143 273 201.019028956 285.307066748 c 0,25,26
 242 294 242 294 314.45874569 301.708377201 c 0,27,28
 336 304 336 304 370 308 c 1,29,30
 373 322 373 322 374.504714046 331.028284277 c 0,31,32
 377 346 377 346 377 358.726194281 c 0,33,34
 377 436 377 436 285.914709213 436 c 0,35,36
 239 436 239 436 205.562735989 414.579252743 c 0,37,38
 175 395 175 395 158 359 c 1,39,-1
 83 382 l 1,40,41
 109 438 109 438 156.480884346 469.337383668 c 0,42,43
 209 504 209 504 288.307485275 504 c 0,44,45
 368 504 368 504 412.568942546 470.810361934 c 0,46,47
 462 434 462 434 462 360.524011584 c 0,48,49
 462 344 462 344 459.359773747 326.046461483 c 0,50,51
 457 310 457 310 449.102187018 272.333507319 c 0,52,53
 444 248 444 248 440.516628354 231.654948428 c 0,54,55
 418 126 418 126 411.800146723 63.3125946482 c 0,56,57
 409 35 409 35 408 0 c 1,58,-1
 329 0 l 1,59,-1
 325 63 l 1,60,61
 292 26 292 26 254.200395092 7.81791156324 c 0,62,63
 213 -12 213 -12 160.820371767 -12 c 0,15,16
EndSplineSet
Substitution2: "Single Substitution lookup 12 subtable" ordfeminine
Substitution2: "'aalt' Access All Alternates lookup 0 subtable" ordfeminine
EndChar

StartChar: b
Encoding: 98 98 42
Width: 555
GlyphClass: 1
Flags: W
HStem: -12 72<190.541 328.789> 0 21G<7 81> 432 72<242.534 374.948> 648 20G<144.749 235>
VStem: 149 86<582 668> 419 90<175.11 384.76>
DStem2: 4.46154 -12 90.05 -12 0.207912 0.978148<247.384 418.798 469.669 695.192>
AnchorPoint: "Anchor-1" 333 496 basechar 0
AnchorPoint: "Anchor-0" 266 -12 basechar 0
LayerCount: 2
Fore
SplineSet
258.028348178 60 m 0,0,1
 300 60 300 60 333.59101907 84.7802599696 c 0,2,3
 361 105 361 105 381.63556972 142.038202061 c 0,4,5
 400 175 400 175 409.995608747 217.086773672 c 0,6,7
 419 255 419 255 419 290.876036254 c 0,8,9
 419 353 419 353 394.100229929 389.4274414 c 0,10,11
 365 432 365 432 306.555827572 432 c 0,12,13
 266 432 266 432 231.920738324 409.821432877 c 0,14,15
 203 391 203 391 180.720705065 356.80387289 c 0,16,17
 160 325 160 325 148.598587079 284.576808735 c 0,18,19
 138 247 138 247 138 211.412981698 c 0,20,21
 138 172 138 172 150.304558037 139.345595979 c 0,22,23
 164 103 164 103 188.667992463 82.986345738 c 0,24,25
 217 60 217 60 258.028348178 60 c 0,0,1
267.171259406 -12 m 0,26,27
 210 -12 210 -12 169.214941429 15.7338398285 c 0,28,29
 135 39 135 39 112 82 c 1,30,-1
 71 0 l 1,31,-1
 7 0 l 1,32,-1
 149 668 l 1,33,-1
 235 668 l 1,34,-1
 184 430 l 1,35,36
 218 474 218 474 262.70653572 492.124271238 c 0,37,38
 292 504 292 504 331.378165259 504 c 0,39,40
 395 504 395 504 438.327031095 470.421550901 c 0,41,42
 475 442 475 442 493.619314347 388.880191423 c 0,43,44
 509 345 509 345 509 292.102388983 c 0,45,46
 509 239 509 239 493.990729182 187.193807177 c 0,47,48
 478 132 478 132 449.319953308 89.6851770121 c 0,49,50
 417 42 417 42 373.802944603 16.3665825114 c 0,51,52
 326 -12 326 -12 267.171259406 -12 c 0,26,27
EndSplineSet
EndChar

StartChar: c
Encoding: 99 99 43
Width: 495
GlyphClass: 2
Flags: W
HStem: -12 74<163.446 319.223> 430 74<214.097 366.277>
VStem: 26 92<109.342 313.479>
AnchorPoint: "Anchor-1" 301 496 basechar 0
AnchorPoint: "Anchor-0" 195 0 basechar 0
LayerCount: 2
Fore
SplineSet
222.375800055 -12 m 0,0,1
 129 -12 129 -12 76.7392869441 43.8124120015 c 0,2,3
 26 98 26 98 26 196.755883234 c 0,4,5
 26 277 26 277 58.8785805032 346.192236581 c 0,6,7
 93 418 93 418 151.754118513 459.080115383 c 0,8,9
 216 504 216 504 299.494208534 504 c 0,10,11
 366 504 366 504 412.777454721 475.018316097 c 0,12,13
 458 447 458 447 483 393 c 1,14,-1
 400 364 l 1,15,16
 390 394 390 394 360.936680921 412.039301497 c 128,-1,17
 332 430 332 430 291.668637625 430 c 0,18,19
 237 430 237 430 195.464883662 394.85490156 c 0,20,21
 159 364 159 364 138.300602874 310.48448548 c 0,22,23
 118 258 118 258 118 203.46857353 c 0,24,25
 118 140 118 140 142.634363475 105.063993617 c 0,26,27
 173 62 173 62 239.565978415 62 c 0,28,29
 282 62 282 62 315.065639257 80.9720880984 c 0,30,31
 343 97 343 97 365 127 c 1,32,-1
 436 99 l 1,33,34
 402 44 402 44 343.459745773 14.9889005599 c 0,35,36
 289 -12 289 -12 222.375800055 -12 c 0,0,1
EndSplineSet
EndChar

StartChar: d
Encoding: 100 100 44
Width: 555
GlyphClass: 2
Flags: W
HStem: -12 72<162.98 297.463> 0 21G<359.361 442.5> 432 72<208.006 349.169> 648 20G<476.778 567>
VStem: 27 90<109.567 316.246> 398 44<0 280.717> 481 86<582 668>
DStem2: 336.852 -12 422.275 -12 0.207912 0.978148<419.16 695.11>
AnchorPoint: "Anchor-1" 271 496 basechar 0
AnchorPoint: "Anchor-0" 225 0 basechar 0
LayerCount: 2
Fore
SplineSet
231.478324001 60 m 0,0,1
 278 60 278 60 317.427776297 91.2349916123 c 0,2,3
 355 121 355 121 376.452971275 171.389537181 c 0,4,5
 398 222 398 222 398 280.716699545 c 0,6,7
 398 350 398 350 369.009222477 389.620729281 c 0,8,9
 338 432 338 432 280.174115326 432 c 0,10,11
 228 432 228 432 188.517824384 394.681231267 c 0,12,13
 155 363 155 363 135.547520868 308.225914022 c 0,14,15
 117 256 117 256 117 201.346442655 c 0,16,17
 117 129 117 129 152.09618203 91.7440529216 c 0,18,19
 182 60 182 60 231.478324001 60 c 0,0,1
208.315313994 -12 m 0,20,21
 149 -12 149 -12 107.166115892 16.2378717729 c 0,22,23
 69 42 69 42 48.0374867052 89.415208643 c 128,-1,24
 27 137 27 137 27 200.719979771 c 0,25,26
 27 258 27 258 43.9847965437 312.451259508 c 128,-1,27
 61 367 61 367 91.0903516438 408.553342746 c 0,28,29
 124 454 124 454 167.275210871 478.041783817 c 0,30,31
 214 504 214 504 269.663307098 504 c 0,32,33
 330 504 330 504 372.923912493 471.270516724 c 0,34,35
 410 443 410 443 424 398 c 1,36,-1
 481 668 l 1,37,-1
 567 668 l 1,38,39
 556 615 556 615 545.251262661 564.65065141 c 0,40,41
 537 526 537 526 527.985914199 484.456821962 c 0,42,43
 514 420 514 420 500.46254425 355.844231446 c 0,44,45
 491 311 491 311 483.241891458 274.924795281 c 0,46,47
 471 218 471 218 466.070981078 193.354905389 c 0,48,49
 460 163 460 163 456.281729296 141.565263001 c 0,50,51
 443 65 443 65 442 0 c 1,52,-1
 361 0 l 1,53,-1
 356 61 l 1,54,55
 331 29 331 29 300.178487732 11.20166193 c 0,56,57
 260 -12 260 -12 208.315313994 -12 c 0,20,21
EndSplineSet
EndChar

StartChar: e
Encoding: 101 101 45
Width: 542
GlyphClass: 2
Flags: W
HStem: -12 74<168.012 336.179> 225 68<128 422> 432 72<213.803 374.531>
VStem: 27 88<113.69 223.688> 422 87<293.26 384.082>
AnchorPoint: "Anchor-2" 337 10 basechar 0
AnchorPoint: "Anchor-1" 321 496 basechar 0
AnchorPoint: "Anchor-0" 218 0 basechar 0
LayerCount: 2
Fore
SplineSet
128 293 m 1,0,-1
 421 293 l 1,1,2
 422 298 422 298 422 306 c 0,3,4
 422 340 422 340 410.276177076 366.261363349 c 0,5,6
 397 396 397 396 371.804622213 412.491520006 c 0,7,8
 342 432 342 432 298.969492179 432 c 0,9,10
 260 432 260 432 225.616078545 416.281635906 c 0,11,12
 190 400 190 400 165.517318825 370.809110906 c 0,13,14
 138 338 138 338 128 293 c 1,0,-1
240.319214093 -12 m 0,15,16
 140 -12 140 -12 82.9003188919 45.6049880205 c 0,17,18
 27 102 27 102 27 205.046497891 c 0,19,20
 27 286 27 286 60.8787810017 353.757562003 c 0,21,22
 96 424 96 424 157.619154005 462.815215121 c 0,23,24
 223 504 223 504 307.545327946 504 c 0,25,26
 376 504 376 504 422.753574182 475.310306752 c 0,27,28
 464 450 464 450 486.78216015 402.916869023 c 0,29,30
 509 357 509 357 509 300.169973842 c 0,31,32
 509 264 509 264 500 225 c 1,33,-1
 116 225 l 1,34,35
 115 218 115 218 115 204 c 0,36,37
 115 146 115 146 137.032611259 112.668613736 c 0,38,39
 154 87 154 87 187.919356353 73.3228401803 c 0,40,41
 216 62 216 62 251.374270787 62 c 0,42,43
 290 62 290 62 322.437293153 76.5967819188 c 0,44,45
 350 89 350 89 371 111 c 1,46,-1
 449 87 l 1,47,48
 415 43 415 43 366.846238654 17.7766011998 c 0,49,50
 310 -12 310 -12 240.319214093 -12 c 0,15,16
EndSplineSet
EndChar

StartChar: f
Encoding: 102 102 46
Width: 320
GlyphClass: 1
Flags: W
HStem: 0 21G<37 127.252> 428 68<59 128 228 315> 635 71<263.964 359>
VStem: 37 86<0 86>
DStem2: 37 0 123 0 0.207912 0.978148<17.8804 437.567 524.872 660.599>
AnchorPoint: "Anchor-1" 170 668 basechar 0
LayerCount: 2
Fore
SplineSet
37 0 m 1,0,-1
 128 428 l 1,1,-1
 44 428 l 1,2,-1
 59 496 l 1,3,-1
 142 496 l 1,4,-1
 154 549 l 2,5,6
 166 600 166 600 178.400443501 629.570288349 c 0,7,8
 192 662 192 662 210.426873147 678.379442797 c 0,9,10
 228 694 228 694 258.313345089 700.174940666 c 0,11,12
 282 705 282 705 323 706 c 2,13,-1
 374 706 l 1,14,-1
 359 635 l 1,15,-1
 335 635 l 2,16,17
 311 635 311 635 296.718199792 631.82626662 c 0,18,19
 275 627 275 627 263.217488923 612.271861153 c 0,20,21
 251 597 251 597 243 563 c 2,22,-1
 228 496 l 1,23,-1
 330 496 l 1,24,-1
 315 428 l 1,25,-1
 214 428 l 1,26,-1
 123 0 l 1,27,-1
 37 0 l 1,0,-1
EndSplineSet
EndChar

StartChar: g
Encoding: 103 103 47
Width: 555
GlyphClass: 2
Flags: W
HStem: -190 73<114.374 275.408> 16 73<173.251 305.085> 432 74<202.094 347.271> 476 20G<455.744 528>
VStem: 32 89<143.737 335.74>
DStem2: 296.725 -190 382.106 -190 0.207912 0.978148<113.772 276.216>
AnchorPoint: "Anchor-1" 314 496 basechar 0
AnchorPoint: "Anchor-0" 172 -251 basechar 0
LayerCount: 2
Fore
SplineSet
244.914355739 89 m 0,0,1
 295 89 295 89 332.592460148 123.828308666 c 0,2,3
 363 152 363 152 381.584337258 199.716541608 c 0,4,5
 400 247 400 247 400 294.984482872 c 0,6,7
 400 363 400 363 359.516883244 400.74777103 c 0,8,9
 326 432 326 432 274.983739833 432 c 0,10,11
 225 432 225 432 187.805729544 399.657156125 c 0,12,13
 156 372 156 372 138.04020107 323.765111446 c 0,14,15
 121 278 121 278 121 230.325499554 c 0,16,17
 121 162 121 162 157.704219269 123.722742763 c 0,18,19
 191 89 191 89 244.914355739 89 c 0,0,1
190.027154892 -190 m 0,20,21
 117 -190 117 -190 65.1858198191 -159.816982419 c 0,22,23
 14 -130 14 -130 -4 -78 c 1,24,-1
 86 -53 l 1,25,26
 91 -77 91 -77 112.352549156 -94.082039325 c 0,27,28
 141 -117 141 -117 192.620836177 -117 c 0,29,30
 239 -117 239 -117 271.620375016 -97.5330020066 c 0,31,32
 301 -80 301 -80 319.672920471 -42.6541590579 c 0,33,34
 333 -16 333 -16 342 23 c 2,35,-1
 355 80 l 1,36,37
 330 48 330 48 292.321943315 31.2541970289 c 0,38,39
 258 16 258 16 219.616572384 16 c 0,40,41
 173 16 173 16 132.782687796 37.0439424323 c 0,42,43
 87 61 87 61 61.3595832384 103.889424401 c 0,44,45
 32 153 32 153 32 226.542287342 c 0,46,47
 32 299 32 299 59.8110168779 361.940722408 c 0,48,49
 89 428 89 428 139.051143066 465.180849135 c 0,50,51
 194 506 194 506 265.07297637 506 c 0,52,53
 319 506 319 506 362.243627482 482.903971686 c 0,54,55
 407 459 407 459 426 418 c 1,56,-1
 466 496 l 1,57,-1
 528 496 l 1,58,59
 504 384 504 384 477.322916031 256.858152998 c 0,60,61
 457 160 457 160 441.743069431 88.9763576968 c 0,62,63
 428 25 428 25 424.679523623 10.2950331889 c 0,64,65
 414 -37 414 -37 400.465867304 -66.8684307773 c 0,66,67
 385 -101 385 -101 361.418510584 -125.471356941 c 0,68,69
 332 -156 332 -156 289.817461034 -172.485130171 c 0,70,71
 245 -190 245 -190 190.027154892 -190 c 0,20,21
EndSplineSet
EndChar

StartChar: h
Encoding: 104 104 48
Width: 548
GlyphClass: 1
Flags: W
HStem: 0 21G<7 97.2023 333 422.306> 430 74<250.396 382.529> 648 20G<144.749 235>
VStem: 7 86<0 86> 149 86<582 668> 333 85<0 85> 401 88<230.688 412.559>
DStem2: 7 0 93 0 0.207912 0.978148<17.8804 399.573 454.469 682.926> 333 0 418 0 0.207912 0.978148<17.6725 358.065>
AnchorPoint: "Anchor-1" 190 668 basechar 0
LayerCount: 2
Fore
SplineSet
7 0 m 1,0,-1
 149 668 l 1,1,-1
 235 668 l 1,2,-1
 184 427 l 1,3,4
 209 459 209 459 241.036524986 477.248653473 c 0,5,6
 288 504 288 504 349.348239081 504 c 0,7,8
 418 504 418 504 452.687011546 471.267186287 c 0,9,10
 489 437 489 437 489 366.899079905 c 0,11,12
 489 332 489 332 480 288 c 2,13,-1
 418 0 l 1,14,-1
 333 0 l 1,15,-1
 392 280 l 2,16,17
 401 324 401 324 401 352.50590531 c 0,18,19
 401 395 401 395 380.391705699 413.032257513 c 0,20,21
 361 430 361 430 320.920129141 430 c 0,22,23
 282 430 282 430 250.816309269 415.325322009 c 0,24,25
 214 398 214 398 189.064042218 362.24277752 c 0,26,27
 161 322 161 322 147 257 c 2,28,-1
 93 0 l 1,29,-1
 7 0 l 1,0,-1
EndSplineSet
EndChar

StartChar: i
Encoding: 105 105 49
Width: 270
GlyphClass: 1
Flags: W
HStem: 0 21G<46 136.234> 428 68<71 137> 591 125<182.644 272.839>
VStem: 46 86<0 86> 167 125<606.727 697.001>
DStem2: 46 0 132 0 0.207912 0.978148<17.8804 437.567>
AnchorPoint: "Anchor-2" 132 0 basechar 0
LayerCount: 2
Fore
SplineSet
46 0 m 1,0,-1
 137 428 l 1,1,-1
 57 428 l 1,2,-1
 71 496 l 1,3,-1
 237 496 l 1,4,-1
 132 0 l 1,5,-1
 46 0 l 1,0,-1
229.5 591 m 128,-1,7
 204 591 204 591 185.408413597 609.591586403 c 128,-1,8
 167 628 167 628 167 653.468361457 c 128,-1,9
 167 679 167 679 185.59732106 697.59732106 c 128,-1,10
 204 716 204 716 229.466375187 716 c 128,-1,11
 255 716 255 716 273.416286525 697.583713475 c 128,-1,12
 292 679 292 679 292 653.471217873 c 128,-1,13
 292 628 292 628 273.505223236 609.505223236 c 128,-1,6
 255 591 255 591 229.5 591 c 128,-1,7
EndSplineSet
Substitution2: "Single Substitution lookup 4 subtable" dotlessi
Substitution2: "Single Substitution lookup 3 subtable" dotlessi
EndChar

StartChar: j
Encoding: 106 106 50
Width: 258
GlyphClass: 1
Flags: W
HStem: -161 75<-138 -2.06208> 476 20G<128.735 219> 591 126<167.08 254.92>
VStem: 133 86<410 496> 148 126<610.08 697.92>
DStem2: -6.98484 -161 79.0779 -161 0.207912 0.978148<87.787 671.747>
LayerCount: 2
Fore
SplineSet
-86.7508305831 -161 m 0,0,1
 -101 -161 -101 -161 -117.781767763 -160.506418595 c 0,2,3
 -135 -160 -135 -160 -154 -159 c 1,4,-1
 -138 -86 l 1,5,-1
 -106 -86 l 2,6,7
 -53 -86 -53 -86 -28.1262113781 -78.8248686668 c 0,8,9
 -1 -71 -1 -71 11.9268218935 -46.8324634165 c 0,10,11
 22 -28 22 -28 30 13 c 2,12,-1
 133 496 l 1,13,-1
 219 496 l 1,14,-1
 115 8 l 2,15,16
 105 -41 105 -41 95.1922075478 -68.7176743213 c 0,17,18
 82 -106 82 -106 62.0000548471 -124.999947895 c 128,-1,19
 42 -144 42 -144 7.0770956798 -152.481276763 c 128,-1,20
 -28 -161 -28 -161 -86.7508305831 -161 c 0,0,1
211 591 m 128,-1,22
 185 591 185 591 166.5 609.5 c 128,-1,23
 148 628 148 628 148 654 c 128,-1,24
 148 680 148 680 166.5 698.5 c 128,-1,25
 185 717 185 717 211 717 c 128,-1,26
 237 717 237 717 255.5 698.5 c 128,-1,27
 274 680 274 680 274 654 c 128,-1,28
 274 628 274 628 255.5 609.5 c 128,-1,21
 237 591 237 591 211 591 c 128,-1,22
EndSplineSet
EndChar

StartChar: k
Encoding: 107 107 51
Width: 487
GlyphClass: 2
Flags: W
HStem: 0 21G<7 97.2169 310.741 415> 476 20G<365.725 500> 648 20G<144.749 235>
VStem: 7 86<0 86> 149 86<582 668> 388 112<384 496>
DStem2: 7 0 93 0 0.207912 0.978148<17.8804 187.53 309.127 682.926> 153 285 202 232 0.748075 0.663615<0 1.48408 87.1869 315.82> 266 289 202 232 0.458251 -0.888823<21.3348 282.074>
AnchorPoint: "Anchor-1" 360 796 basechar 0
AnchorPoint: "Anchor-0" 221 0 basechar 0
LayerCount: 2
Fore
SplineSet
7 0 m 1,0,-1
 149 668 l 1,1,-1
 235 668 l 1,2,-1
 153 285 l 1,3,-1
 388 496 l 1,4,-1
 500 496 l 1,5,-1
 266 289 l 1,6,-1
 415 0 l 1,7,-1
 321 0 l 1,8,-1
 202 232 l 1,9,-1
 128 166 l 1,10,-1
 93 0 l 1,11,-1
 7 0 l 1,0,-1
EndSplineSet
EndChar

StartChar: l
Encoding: 108 108 52
Width: 259
GlyphClass: 2
Flags: W
HStem: 0 75<126.683 182> 648 20G<144.764 235>
VStem: 27 91<82.6888 189.5> 149 86<582 668>
DStem2: 7.43043 0 93.8068 0 0.207912 0.978148<105.559 682.837>
AnchorPoint: "Anchor-1" 205 668 basechar 0
AnchorPoint: "Anchor-0" 97 0 basechar 0
LayerCount: 2
Fore
SplineSet
126 0 m 2,0,1
 68 0 68 0 45.8786760887 17.8049680261 c 0,2,3
 27 33 27 33 27 70.913531931 c 0,4,5
 27 94 27 94 34 125 c 2,6,-1
 149 668 l 1,7,-1
 235 668 l 1,8,-1
 123 140 l 2,9,10
 121 129 121 129 120.177124344 124.062746067 c 0,11,12
 118 111 118 111 118 103.746928744 c 0,13,14
 118 89 118 89 126.378804536 82.4831520278 c 0,15,16
 136 75 136 75 161 75 c 2,17,-1
 198 75 l 1,18,-1
 182 0 l 1,19,-1
 126 0 l 2,0,1
EndSplineSet
EndChar

StartChar: m
Encoding: 109 109 53
Width: 846
GlyphClass: 1
Flags: W
HStem: 0 21G<8 98.2222 319 409.222 630 720.2> 431 73<247.146 372.266 551.451 684.959> 476 20G<108.766 178.739>
VStem: 8 86<0 86> 113 64<462.933 496> 319 86<0 86> 630 86<0 86> 700 88<239.195 414.037>
DStem2: 8 0 94 0 0.207912 0.978148<17.8804 402.148> 319 0 405 0 0.207912 0.978148<17.8804 361.502> 630 0 716 0 0.207912 0.978148<17.8804 363.101>
AnchorPoint: "Anchor-1" 469 496 basechar 0
LayerCount: 2
Fore
SplineSet
8 0 m 1,0,-1
 113 496 l 1,1,-1
 177 496 l 1,2,-1
 183 427 l 1,3,4
 212 462 212 462 243.379842698 480.054156073 c 0,5,6
 285 504 285 504 342.770166885 504 c 0,7,8
 400 504 400 504 433.374252213 478.285412229 c 0,9,10
 461 457 461 457 475 416 c 1,11,12
 512 465 512 465 559.077247127 486.103593539 c 0,13,14
 599 504 599 504 645.117994397 504 c 0,15,16
 664 504 664 504 679.643114342 501.914251421 c 0,17,18
 709 498 709 498 729.400797894 487.582571288 c 0,19,20
 756 474 756 474 770.29660577 449.874477763 c 0,21,22
 788 420 788 420 788 374.466000144 c 0,23,24
 788 342 788 342 779 300 c 2,25,-1
 716 0 l 1,26,-1
 630 0 l 1,27,-1
 691 289 l 2,28,29
 700 330 700 330 700 357.187691579 c 0,30,31
 700 394 700 394 684.514490541 411.362540909 c 0,32,33
 667 431 667 431 624.509362242 431 c 0,34,35
 562 431 562 431 519.581373411 387.559237831 c 0,36,37
 479 346 479 346 462 270 c 2,38,-1
 405 0 l 1,39,-1
 319 0 l 1,40,-1
 380 289 l 2,41,42
 389 328 389 328 389 355.563932502 c 0,43,44
 389 394 389 394 372.025479164 411.944493456 c 0,45,46
 354 431 354 431 314.503784579 431 c 0,47,48
 258 431 258 431 216.893874669 394.974407013 c 0,49,50
 169 353 169 353 151 270 c 2,51,-1
 94 0 l 1,52,-1
 8 0 l 1,0,-1
EndSplineSet
EndChar

StartChar: n
Encoding: 110 110 54
Width: 550
GlyphClass: 2
Flags: W
HStem: 0 21G<8 98.2023 334 423.321> 430 74<250.661 380.713> 476 20G<108.766 178.739>
VStem: 8 86<0 86> 113 64<462.933 496> 334 85<0 85> 402 88<229.875 413.014>
DStem2: 8 0 94 0 0.207912 0.978148<17.8804 399.575> 334 0 419 0 0.207912 0.978148<17.6725 357.468>
AnchorPoint: "Anchor-1" 328 496 basechar 0
AnchorPoint: "Anchor-0" 212 0 basechar 0
LayerCount: 2
Fore
SplineSet
8 0 m 1,0,-1
 113 496 l 1,1,-1
 177 496 l 1,2,-1
 183 427 l 1,3,4
 208 459 208 459 241.283996174 477.491108986 c 0,5,6
 289 504 289 504 349.960905399 504 c 0,7,8
 419 504 419 504 453.868352012 470.604958636 c 0,9,10
 490 436 490 436 490 365.957427081 c 0,11,12
 490 331 490 331 481 287 c 2,13,-1
 419 0 l 1,14,-1
 334 0 l 1,15,-1
 393 279 l 2,16,17
 402 323 402 323 402 351.907396935 c 0,18,19
 402 395 402 395 381.321846893 413.093383968 c 0,20,21
 362 430 362 430 321.955760939 430 c 0,22,23
 283 430 283 430 251.80858421 415.321686687 c 0,24,25
 215 398 215 398 190.065427621 362.244764136 c 0,26,27
 162 322 162 322 148 257 c 2,28,-1
 94 0 l 1,29,-1
 8 0 l 1,0,-1
EndSplineSet
EndChar

StartChar: o
Encoding: 111 111 55
Width: 547
GlyphClass: 2
Flags: W
HStem: -12 74<162.982 315.312> 430 74<209.585 369.18>
VStem: 27 88<113.19 315.206> 413 89<182.234 384.763>
AnchorPoint: "Anchor-2" 441 10 basechar 0
AnchorPoint: "Anchor-1" 321 496 basechar 0
AnchorPoint: "Anchor-0" 221 0 basechar 0
LayerCount: 2
Fore
SplineSet
237.01754395 62 m 0,0,1
 295 62 295 62 337.434880672 100.082585219 c 0,2,3
 373 132 373 132 393.399970615 187.589919925 c 0,4,5
 413 241 413 241 413 297.696679319 c 0,6,7
 413 374 413 374 372.034206528 406.311048372 c 0,8,9
 342 430 342 430 291.500161071 430 c 0,10,11
 231 430 231 430 188.403813079 392.864862684 c 0,12,13
 153 362 153 362 133.252299232 306.914308384 c 0,14,15
 115 256 115 256 115 204.333493919 c 0,16,17
 115 137 115 137 145.416239402 100.206162014 c 0,18,19
 177 62 177 62 237.01754395 62 c 0,0,1
227.299794925 -12 m 0,20,21
 130 -12 130 -12 76.1692480679 49.6701818251 c 0,22,23
 27 106 27 106 27 203.629849591 c 0,24,25
 27 286 27 286 61.9107859159 354.824120806 c 0,26,27
 97 424 97 424 157.875119669 462.960076588 c 0,28,29
 222 504 222 504 298.205277754 504 c 0,30,31
 354 504 354 504 397.659039782 482.890134611 c 0,32,33
 445 460 445 460 471.378773327 417.886519776 c 0,34,35
 502 369 502 369 502 294.891998671 c 0,36,37
 502 235 502 235 481.822233969 178.502255114 c 0,38,39
 462 123 462 123 426.912432661 81.0898501233 c 0,40,41
 390 37 390 37 342.083944753 13.5211329292 c 0,42,43
 290 -12 290 -12 227.299794925 -12 c 0,20,21
EndSplineSet
Substitution2: "Single Substitution lookup 12 subtable" ordmasculine
Substitution2: "'aalt' Access All Alternates lookup 0 subtable" ordmasculine
EndChar

StartChar: p
Encoding: 112 112 56
Width: 556
GlyphClass: 1
Flags: W
HStem: -162 21G<-26 64.2353> -12 71<193.162 328.791> 432 72<240.464 375.095> 476 20G<109.745 178.515>
VStem: -26 86<-162 -76> 114 63<463.1 496> 420 90<176.289 384.302>
DStem2: -26 -162 60 -162 0.207912 0.978148<17.8804 278.535>
AnchorPoint: "Anchor-1" 328 496 basechar 0
LayerCount: 2
Fore
SplineSet
259.776201848 59 m 0,0,1
 299 59 299 59 330.989436903 81.7721415244 c 0,2,3
 358 101 358 101 378.781039231 135.972968462 c 0,4,5
 399 170 399 170 409.840078571 213.876508502 c 0,6,7
 420 255 420 255 420 293.626157543 c 0,8,9
 420 360 420 360 389.679840383 396.38419154 c 0,10,11
 360 432 360 432 306.69623323 432 c 0,12,13
 255 432 255 432 214.267831773 395.612596384 c 0,14,15
 180 365 180 365 159.439702603 313.84999184 c 0,16,17
 139 263 139 263 139 211.472649298 c 0,18,19
 139 147 139 147 169.470527108 105.103025226 c 0,20,21
 203 59 203 59 259.776201848 59 c 0,0,1
-26 -162 m 1,22,-1
 114 496 l 1,23,-1
 177 496 l 1,24,-1
 182 430 l 1,25,26
 202 459 202 459 231.930535651 477.450330196 c 0,27,28
 275 504 275 504 332.463389412 504 c 0,29,30
 392 504 392 504 433.826658787 473.821271508 c 0,31,32
 471 447 471 447 491.031463529 397.691782084 c 0,33,34
 510 351 510 351 510 292.246834833 c 0,35,36
 510 240 510 240 495.532163525 188.398049907 c 0,37,38
 480 133 480 133 452.554116855 91.1333985923 c 0,39,40
 421 43 421 43 378.203018996 17.1336927997 c 0,41,42
 330 -12 330 -12 269.404657203 -12 c 0,43,44
 210 -12 210 -12 169.209520947 16.9147699617 c 0,45,46
 131 44 131 44 114 93 c 1,47,-1
 60 -162 l 1,48,-1
 -26 -162 l 1,22,-1
EndSplineSet
EndChar

StartChar: q
Encoding: 113 113 57
Width: 555
GlyphClass: 1
Flags: W
HStem: -174 82<425.653 533.876> -12 72<162.158 297.204> 433 72<208.218 344.504> 476 20G<457.744 530>
VStem: 28 90<107.843 317.824> 328 90<-82.8259 48.4587>
LayerCount: 2
Fore
SplineSet
229.922817355 60 m 0,0,1
 281 60 281 60 320.533862412 94.6598245806 c 0,2,3
 354 124 354 124 374.523248339 173.353525768 c 0,4,5
 396 225 396 225 396 282.395292636 c 0,6,7
 396 353 396 353 363.157752968 393.421227116 c 0,8,9
 331 433 331 433 277.502001276 433 c 0,10,11
 239 433 239 433 207.266876141 410.948168166 c 0,12,13
 180 392 180 392 159.159401378 357.435104725 c 0,14,15
 139 324 139 324 128.193546763 280.774187052 c 0,16,17
 118 240 118 240 118 200.33068438 c 0,18,19
 118 134 118 134 145.984989086 97.6686106605 c 0,20,21
 175 60 175 60 229.922817355 60 c 0,0,1
207.866941581 -12 m 0,22,23
 126 -12 126 -12 77.5676496537 43.3512575386 c 0,24,25
 28 100 28 100 28 200.275431277 c 0,26,27
 28 259 28 259 44.9201572977 314.23933706 c 0,28,29
 62 370 62 370 92.4811000761 411.609120739 c 0,30,31
 125 456 125 456 168.501853539 479.684342482 c 0,32,33
 215 505 215 505 272.97077017 505 c 0,34,35
 330 505 330 505 372.331372857 478.407214487 c 0,36,37
 408 456 408 456 428 418 c 1,38,-1
 468 496 l 1,39,-1
 530 496 l 1,40,41
 505 380 505 380 481 263 c 128,-1,42
 457 146 457 146 435.451871401 45.4420665366 c 0,43,44
 427 6 427 6 426.999998844 5.99999460635 c 0,45,46
 418 -36 418 -36 418 -51.3153527725 c 0,47,48
 418 -69 418 -69 428.861691678 -79.4091211913 c 0,49,50
 442 -92 442 -92 469.264858477 -92 c 0,51,52
 500 -92 500 -92 551 -76 c 1,53,-1
 534 -154 l 1,54,55
 524 -161 524 -161 502.762658216 -166.6343968 c 0,56,57
 475 -174 475 -174 448.401652842 -174 c 0,58,59
 419 -174 419 -174 395.023180185 -166.153040788 c 0,60,61
 364 -156 364 -156 347.638548872 -136.002670843 c 0,62,63
 328 -112 328 -112 328 -72.2002418344 c 0,64,65
 328 -58 328 -58 330.682428284 -41.3689446395 c 0,66,67
 333 -27 333 -27 338.395827653 -3.9451000282 c 0,68,69
 344 20 344 20 352 59 c 1,70,71
 335 30 335 30 299.636010581 10.7105512258 c 0,72,73
 258 -12 258 -12 207.866941581 -12 c 0,22,23
EndSplineSet
EndChar

StartChar: r
Encoding: 114 114 58
Width: 353
GlyphClass: 2
Flags: W
HStem: 0 21G<8 98.1951> 415 89<269.465 364> 476 20G<108.766 177.72>
VStem: 8 86<0 86> 113 63<462.933 496>
DStem2: 8 0 94 0 0.207912 0.978148<17.8804 362.155>
AnchorPoint: "Anchor-1" 240 496 basechar 0
AnchorPoint: "Anchor-0" 51 0 basechar 0
LayerCount: 2
Fore
SplineSet
8 0 m 1,0,-1
 113 496 l 1,1,-1
 176 496 l 1,2,-1
 184 403 l 1,3,4
 215 447 215 447 248.25476469 469.837609486 c 0,5,6
 298 504 298 504 372 504 c 2,7,-1
 383 504 l 1,8,-1
 364 415 l 1,9,10
 336 416 336 416 311.189467137 412.030314742 c 0,11,12
 236 400 236 400 191.185302045 338.587265766 c 0,13,14
 155 289 155 289 137 205 c 2,15,-1
 94 0 l 1,16,-1
 8 0 l 1,0,-1
EndSplineSet
EndChar

StartChar: s
Encoding: 115 115 59
Width: 479
GlyphClass: 2
Flags: W
HStem: -12 68<139.219 292.097> 435 69<156.23 317.805>
VStem: 49 85<326.632 412.511> 325 88<87.001 181.77>
DStem2: 218.209 298.185 203.376 221.055 0.955704 -0.29433<-88.5008 136.115>
AnchorPoint: "Anchor-1" 260 496 basechar 0
AnchorPoint: "Anchor-0" 207 0 basechar 0
LayerCount: 2
Fore
SplineSet
211.727248223 -12 m 0,0,1
 138 -12 138 -12 89.7963316129 15.4099290828 c 0,2,3
 36 46 36 46 10 113 c 1,4,-1
 96 142 l 1,5,6
 104 98 104 98 144.67318679 74.2739743725 c 0,7,8
 176 56 176 56 215.092740644 56 c 0,9,10
 257 56 257 56 287.527652759 74.8553149391 c 0,11,12
 325 98 325 98 325 136.715653716 c 0,13,14
 325 165 325 165 301.660502336 183.08811069 c 0,15,16
 285 196 285 196 241.841379753 209.701149285 c 0,17,18
 222 216 222 216 203.37569842 221.055167572 c 0,19,20
 152 235 152 235 123.753237052 248.899200816 c 0,21,22
 89 266 89 266 71.0508409568 290.231364708 c 0,23,24
 49 320 49 320 49 363.256441763 c 0,25,26
 49 412 49 412 79.9601935928 445.724496592 c 0,27,28
 105 473 105 473 149.266910965 488.773267126 c 0,29,30
 192 504 192 504 239.617733367 504 c 0,31,32
 281 504 281 504 318.904549926 492.823017329 c 0,33,34
 359 481 359 481 386.643943696 460.267042228 c 0,35,36
 419 436 419 436 431 402 c 1,37,-1
 351 374 l 1,38,39
 341 404 341 404 302.352315024 421.115403347 c 0,40,41
 271 435 271 435 234.346618063 435 c 0,42,43
 195 435 195 435 168.061598139 420.868379352 c 0,44,45
 134 403 134 403 134 369.030131195 c 0,46,47
 134 343 134 343 156.804535547 325.326484951 c 0,48,49
 174 312 174 312 218.209307621 298.184591368 c 0,50,51
 238 292 238 292 256.237459115 287.119553195 c 0,52,53
 309 273 309 273 338.629324268 258.185337866 c 0,54,55
 373 241 373 241 390.701053125 217.546104609 c 0,56,57
 413 188 413 188 413 142.29382045 c 0,58,59
 413 92 413 92 384.455917973 55.5270062994 c 0,60,61
 359 23 359 23 313.822230134 5.43086727439 c 0,62,63
 269 -12 269 -12 211.727248223 -12 c 0,0,1
EndSplineSet
EndChar

StartChar: t
Encoding: 116 116 60
Width: 324
GlyphClass: 2
Flags: W
HStem: 0 75<159.944 222> 428 68<63 132 232 313>
VStem: 59 92<49.4112 189.18> 173 86<534 620>
DStem2: 40.3049 0 126.549 0 0.207912 0.978148<124.456 437.712 525.017 634.04>
AnchorPoint: "Anchor-1" 213 620 basechar 0
AnchorPoint: "Anchor-0" 109 0 basechar 0
LayerCount: 2
Fore
SplineSet
160 0 m 2,0,1
 102 0 102 0 79.0542143318 17.609556443 c 0,2,3
 59 33 59 33 59 65.822429897 c 0,4,5
 59 89 59 89 69 135 c 2,6,-1
 132 428 l 1,7,-1
 49 428 l 1,8,-1
 63 496 l 1,9,-1
 146 496 l 1,10,-1
 173 620 l 1,11,-1
 259 620 l 1,12,-1
 232 496 l 1,13,-1
 327 496 l 1,14,-1
 313 428 l 1,15,-1
 218 428 l 1,16,-1
 160 159 l 2,17,18
 156 141 156 141 153.768203217 128.055578657 c 0,19,20
 151 112 151 112 151 103.438081886 c 0,21,22
 151 88 151 88 159.647793699 81.7543712177 c 0,23,24
 169 75 169 75 194 75 c 2,25,-1
 238 75 l 1,26,-1
 222 0 l 1,27,-1
 160 0 l 2,0,1
EndSplineSet
EndChar

StartChar: u
Encoding: 117 117 61
Width: 540
GlyphClass: 2
Flags: W
HStem: -11 73<142.629 271.536> 0 21G<341.286 412.234> 476 20G<106.768 197 423.692 513>
VStem: 40 86<82.2253 263.312> 111 86<410 496> 343 65<0 33.0667> 428 85<411 496>
DStem2: 3.5129 -11 90.0103 -11 0.207912 0.978148<171.716 518.269> 319.499 -11 405.662 -11 0.207912 0.978148<135.354 518.48>
AnchorPoint: "Anchor-2" 408 0 basechar 0
AnchorPoint: "Anchor-1" 308 496 basechar 0
AnchorPoint: "Anchor-0" 217 0 basechar 0
LayerCount: 2
Fore
SplineSet
176.551101884 -11 m 0,0,1
 100 -11 100 -11 65.9147626946 34.4469830739 c 0,2,3
 40 69 40 69 40 128.77417224 c 0,4,5
 40 164 40 164 49 203 c 2,6,-1
 111 496 l 1,7,-1
 197 496 l 1,8,-1
 135 205 l 2,9,10
 131 187 131 187 128.752551286 171.267859003 c 0,11,12
 126 152 126 152 126 138.080316581 c 0,13,14
 126 104 126 104 140.461856284 85.5940010933 c 0,15,16
 159 62 159 62 203.585517952 62 c 0,17,18
 262 62 262 62 303.013523981 98.9121715825 c 0,19,20
 352 143 352 143 372 236 c 2,21,-1
 428 496 l 1,22,-1
 513 496 l 1,23,-1
 408 0 l 1,24,-1
 343 0 l 1,25,-1
 337 70 l 1,26,27
 305 28 305 28 268.358847524 8.94660071254 c 0,28,29
 230 -11 230 -11 176.551101884 -11 c 0,0,1
EndSplineSet
EndChar

StartChar: v
Encoding: 118 118 62
Width: 444
GlyphClass: 1
Flags: W
HStem: 0 21G<112.097 215.411> 476 20G<43 132.435 378.016 487>
VStem: 43 87<409 496>
DStem2: 130 496 43 496 0.143656 -0.989628<0 388.748> 177 110 204 0 0.495573 0.868566<0 440.328>
LayerCount: 2
Fore
SplineSet
115 0 m 1,0,-1
 43 496 l 1,1,-1
 130 496 l 1,2,-1
 177 110 l 1,3,-1
 389 496 l 1,4,-1
 487 496 l 1,5,-1
 204 0 l 1,6,-1
 115 0 l 1,0,-1
EndSplineSet
EndChar

StartChar: w
Encoding: 119 119 63
Width: 658
GlyphClass: 1
Flags: W
HStem: 0 21G<78.5081 163.65 368.85 462.04> 476 20G<43 130.95 309.391 410.093 595.383 701>
VStem: 43 87<402.162 496>
DStem2: 147 138 154 0 0.43456 0.900643<0 322.88> 409 496 347 400 0.0574052 -0.998351<92.2826 366.545> 429 130 452 0 0.448654 0.893705<0 406.059>
AnchorPoint: "Anchor-1" 360 496 basechar 0
LayerCount: 2
Fore
SplineSet
80 0 m 1,0,-1
 43 496 l 1,1,-1
 130 496 l 1,2,-1
 147 138 l 1,3,-1
 319 496 l 1,4,-1
 409 496 l 1,5,-1
 429 130 l 1,6,-1
 605 496 l 1,7,-1
 701 496 l 1,8,-1
 452 0 l 1,9,-1
 370 0 l 1,10,-1
 347 400 l 1,11,-1
 154 0 l 1,12,-1
 80 0 l 1,0,-1
EndSplineSet
EndChar

StartChar: x
Encoding: 120 120 64
Width: 462
GlyphClass: 1
Flags: W
HStem: 0 21G<-63 64.4865 299.054 399> 476 20G<61 161.058 377.404 505>
VStem: -63 109<0 109> 396 109<387 496>
DStem2: -63 0 46 0 0.679201 0.733952<74.033 325.958 442.295 675.794> 151 496 61 496 0.447214 -0.894427<0 191.407 307.683 514.296>
LayerCount: 2
Fore
SplineSet
-63 0 m 1,0,-1
 179 262 l 1,1,-1
 61 496 l 1,2,-1
 151 496 l 1,3,-1
 237 325 l 1,4,-1
 396 496 l 1,5,-1
 505 496 l 1,6,-1
 275 248 l 1,7,-1
 399 0 l 1,8,-1
 309 0 l 1,9,-1
 217 185 l 1,10,-1
 46 0 l 1,11,-1
 -63 0 l 1,0,-1
EndSplineSet
EndChar

StartChar: y
Encoding: 121 121 65
Width: 435
GlyphClass: 2
Flags: W
HStem: -161 75<-46 76.2711> 476 20G<43 134.073 367.326 478>
VStem: 43 89<407 496>
DStem2: 116 0 191 -21 0.485356 0.874317<-104.457 0 123.355 560.824>
AnchorPoint: "Anchor-1" 266 496 basechar 0
AnchorPoint: "Anchor-0" 165 0 basechar 0
LayerCount: 2
Fore
SplineSet
-62 -161 m 1,0,-1
 -46 -86 l 1,1,-1
 -12 -86 l 2,2,3
 29 -86 29 -86 48.82971011 -80.33436854 c 0,4,5
 71 -74 71 -74 86.7328220901 -52.4402067654 c 0,6,7
 98 -37 98 -37 116 0 c 1,8,-1
 43 496 l 1,9,-1
 132 496 l 1,10,-1
 172 110 l 1,11,-1
 378 496 l 1,12,-1
 478 496 l 1,13,-1
 191 -21 l 2,14,15
 166 -67 166 -67 149.060006032 -91.5184123214 c 0,16,17
 128 -122 128 -122 107.591373759 -136.43536978 c 128,-1,18
 87 -151 87 -151 55.0757417654 -156.410891226 c 0,19,20
 28 -161 28 -161 -19 -161 c 2,21,-1
 -62 -161 l 1,0,-1
EndSplineSet
EndChar

StartChar: z
Encoding: 122 122 66
Width: 467
GlyphClass: 2
Flags: W
HStem: 0 73<101 375> 424 73<99 355>
DStem2: -6 73 101 73 0.716967 0.697107<76.7155 503.51>
AnchorPoint: "Anchor-1" 289 496 basechar 0
AnchorPoint: "Anchor-0" 181 0 basechar 0
LayerCount: 2
Fore
SplineSet
-21 0 m 1,0,-1
 -6 73 l 1,1,-1
 355 424 l 1,2,-1
 83 424 l 1,3,-1
 99 497 l 1,4,-1
 476 497 l 1,5,-1
 460 424 l 1,6,-1
 101 73 l 1,7,-1
 390 73 l 1,8,-1
 375 0 l 1,9,-1
 -21 0 l 1,0,-1
EndSplineSet
EndChar

StartChar: circumflex
Encoding: 258 710 67
Width: 429
GlyphClass: 1
Flags: W
HStem: 575 120<345 347.422>
VStem: 114 96<575 671>
DStem2: 114 575 210 575 0.796393 0.60478<76.4537 177.057>
LayerCount: 2
Fore
SplineSet
114 575 m 1,0,-1
 247 676 l 2,1,2
 271 695 271 695 300 695 c 128,-1,3
 329 695 329 695 346 676 c 2,4,-1
 437 575 l 1,5,-1
 345 575 l 1,6,-1
 290 636 l 1,7,-1
 210 575 l 1,8,-1
 114 575 l 1,0,-1
EndSplineSet
EndChar

StartChar: caron
Encoding: 259 711 68
Width: 429
GlyphClass: 1
Flags: W
HStem: 562 120<225.578 227>
VStem: 362 97<585 682>
DStem2: 281 621 326 581 0.796393 0.60478<0 101.399>
LayerCount: 2
Fore
SplineSet
272 562 m 128,-1,1
 243 562 243 562 227 581 c 2,2,-1
 136 682 l 1,3,-1
 227 682 l 1,4,-1
 281 621 l 1,5,-1
 362 682 l 1,6,-1
 459 682 l 1,7,-1
 326 581 l 2,8,0
 301 562 301 562 272 562 c 128,-1,1
EndSplineSet
EndChar

StartChar: breve
Encoding: 260 728 69
Width: 400
GlyphClass: 1
Flags: W
HStem: 562 67<220.901 332.815>
VStem: 136 69<650.084 682>
LayerCount: 2
Fore
SplineSet
266.090391687 562 m 0,0,1
 223 562 223 562 191.234713527 582.264062061 c 0,2,3
 165 599 165 599 149.673339905 628.596309149 c 0,4,5
 136 655 136 655 136 682 c 1,6,-1
 205 682 l 1,7,8
 209 663 209 663 221.157991726 649.66542843 c 0,9,10
 240 629 240 629 273.798915781 629 c 0,11,12
 304 629 304 629 330.304810661 648.728607996 c 0,13,14
 348 662 348 662 361 682 c 1,15,-1
 430 682 l 1,16,17
 418 653 418 653 398.23848831 628.407896564 c 0,18,19
 373 597 373 597 342.417464428 580.532480846 c 0,20,21
 308 562 308 562 266.090391687 562 c 0,0,1
EndSplineSet
EndChar

StartChar: dotaccent
Encoding: 261 729 70
Width: 216
GlyphClass: 1
Flags: W
HStem: 583 108<144.717 219.944>
VStem: 128 108<599.629 675.083>
LayerCount: 2
Fore
SplineSet
182.5 583 m 128,-1,1
 160 583 160 583 143.910109522 599.089890478 c 128,-1,2
 128 615 128 615 128 637.468308793 c 128,-1,3
 128 660 128 660 144.2225019 675.715548716 c 0,4,5
 160 691 160 691 182.421228001 691 c 128,-1,6
 205 691 205 691 220.428374843 675.571625157 c 128,-1,7
 236 660 236 660 236 637.474066883 c 128,-1,8
 236 615 236 615 220.627492166 599.131604816 c 0,9,0
 205 583 205 583 182.5 583 c 128,-1,1
EndSplineSet
EndChar

StartChar: ring
Encoding: 262 730 71
Width: 329
GlyphClass: 1
Flags: W
HStem: 552 58<203.399 282.313> 712 58<203.305 282.372>
VStem: 134 57<622.495 699.466> 295 57<622.89 699.185>
LayerCount: 2
Fore
SplineSet
243 610 m 128,-1,1
 265 610 265 610 280.174442194 625.174442194 c 0,2,3
 295 640 295 640 295 660.938587613 c 128,-1,4
 295 682 295 682 280.16349309 696.83650691 c 0,5,6
 265 712 265 712 242.940377025 712 c 128,-1,7
 221 712 221 712 205.835733312 696.835733312 c 0,8,9
 191 682 191 682 191 661.05781032 c 128,-1,10
 191 640 191 640 205.835865581 625.164134419 c 0,11,0
 221 610 221 610 243 610 c 128,-1,1
245.14936953 552 m 0,12,13
 214 552 214 552 188.029365287 567.582380828 c 0,14,15
 164 582 164 582 149.462905488 606.228490854 c 0,16,17
 134 632 134 632 134 661.724149668 c 0,18,19
 134 691 134 691 149.468962019 716.265971298 c 0,20,21
 164 740 164 740 187.663245856 754.197947514 c 0,22,23
 214 770 214 770 245.633632976 770 c 0,24,25
 291 770 291 770 322.217340445 736.735620837 c 0,26,27
 352 705 352 705 352 661.2618008 c 0,28,29
 352 617 352 617 322.253046975 585.302427104 c 0,30,31
 291 552 291 552 245.14936953 552 c 0,12,13
EndSplineSet
EndChar

StartChar: ogonek
Encoding: 263 731 72
Width: 270
GlyphClass: 1
Flags: W
HStem: -173 57<49.8721 121.097> -20 20G<52 155>
VStem: -30 77<-110.631 -51.2544>
LayerCount: 2
Fore
SplineSet
51.6670614248 -173 m 0,0,1
 13 -173 13 -173 -9.70887871895 -152.403575115 c 0,2,3
 -30 -134 -30 -134 -30 -105.760291402 c 0,4,5
 -30 -72 -30 -72 -1.05129531578 -43.0512953158 c 128,-1,6
 28 -14 28 -14 76 0 c 1,7,-1
 155 0 l 1,8,9
 108 -17 108 -17 80.1122539894 -38.0301035489 c 0,10,11
 47 -63 47 -63 47 -86.9095278097 c 0,12,13
 47 -101 47 -101 59.0245277049 -108.842083286 c 0,14,15
 70 -116 70 -116 87.9134103187 -116 c 0,16,17
 108 -116 108 -116 132 -107 c 1,18,-1
 121 -161 l 1,19,20
 82 -173 82 -173 51.6670614248 -173 c 0,0,1
EndSplineSet
EndChar

StartChar: quoteleft
Encoding: 264 8216 73
Width: 238
GlyphClass: 1
Flags: W
HStem: 418 250
VStem: 95 129<439.81 531.025> 196 61<607 668>
DStem2: 105 517 181 543 0.516163 0.85649<61.4971 176.301>
LayerCount: 2
Fore
SplineSet
159.737353092 418 m 0,0,1
 131 418 131 418 111.900300184 439.221888685 c 0,2,3
 95 458 95 458 95 482.304441673 c 0,4,5
 95 501 95 501 105 517 c 2,6,-1
 196 668 l 1,7,-1
 257 668 l 1,8,-1
 181 543 l 1,9,10
 224 527 224 527 224 482.915775401 c 0,11,12
 224 454 224 454 205.101068828 435.611850752 c 0,13,14
 187 418 187 418 159.737353092 418 c 0,0,1
EndSplineSet
EndChar

StartChar: quoteright
Encoding: 265 8217 74
Width: 238
GlyphClass: 1
Flags: W
HStem: 429 251
VStem: 91 61<429 490> 123 130<567.531 661.66>
DStem2: 91 429 152 429 0.510955 0.859607<31.1683 146.632>
LayerCount: 2
Fore
SplineSet
91 429 m 1,0,-1
 166 555 l 1,1,2
 147 562 147 562 135.679592014 577.093877314 c 0,3,4
 123 594 123 594 123 615.720617767 c 0,5,6
 123 643 123 643 143.825615062 662.263693933 c 0,7,8
 163 680 163 680 189.535475402 680 c 0,9,10
 217 680 217 680 235.489775357 660.483014901 c 0,11,12
 253 642 253 642 253 619.504004668 c 0,13,14
 253 598 253 598 237 572 c 2,15,-1
 152 429 l 1,16,-1
 91 429 l 1,0,-1
EndSplineSet
EndChar

StartChar: quotesinglbase
Encoding: 266 8218 75
Width: 239
GlyphClass: 1
Flags: W
HStem: -133 251
VStem: -28 61<-133 -72> 4 130<7.10938 96.4994>
DStem2: -28 -133 33 -133 0.513637 0.858008<31.3319 145.774>
LayerCount: 2
Fore
SplineSet
-28 -133 m 1,0,-1
 47 -8 l 1,1,2
 29 0 29 0 17.8366986137 13.842493719 c 0,3,4
 4 31 4 31 4 52.956820582 c 0,5,6
 4 78 4 78 21.1878703333 97.0976337037 c 0,7,8
 40 118 40 118 68.667837069 118 c 0,9,10
 96 118 96 118 115.058079361 98.9419206385 c 128,-1,11
 134 80 134 80 134 54.6494491498 c 0,12,13
 134 43 134 43 129.190214783 30.3743138042 c 0,14,15
 126 22 126 22 121 14 c 2,16,-1
 33 -133 l 1,17,-1
 -28 -133 l 1,0,-1
EndSplineSet
EndChar

StartChar: quotedblleft
Encoding: 267 8220 76
Width: 395
GlyphClass: 1
Flags: W
HStem: 418 250
VStem: 95 129<439.81 531.025> 196 61<607 668> 252 129<439.81 531.025> 353 61<607 668>
DStem2: 105 517 181 543 0.516163 0.85649<61.4971 176.301> 262 517 338 543 0.516163 0.85649<61.4971 176.301>
LayerCount: 2
Fore
SplineSet
316.737353092 418 m 0,0,1
 288 418 288 418 268.900300184 439.221888685 c 0,2,3
 252 458 252 458 252 482.304441673 c 0,4,5
 252 501 252 501 262 517 c 2,6,-1
 353 668 l 1,7,-1
 414 668 l 1,8,-1
 338 543 l 1,9,10
 381 527 381 527 381 482.915775401 c 0,11,12
 381 454 381 454 362.101068828 435.611850752 c 0,13,14
 344 418 344 418 316.737353092 418 c 0,0,1
159.737353092 418 m 0,15,16
 131 418 131 418 111.900300184 439.221888685 c 0,17,18
 95 458 95 458 95 482.304441673 c 0,19,20
 95 501 95 501 105 517 c 2,21,-1
 196 668 l 1,22,-1
 257 668 l 1,23,-1
 181 543 l 1,24,25
 224 527 224 527 224 482.915775401 c 0,26,27
 224 454 224 454 205.101068828 435.611850752 c 0,28,29
 187 418 187 418 159.737353092 418 c 0,15,16
EndSplineSet
EndChar

StartChar: quotedblright
Encoding: 268 8221 77
Width: 394
GlyphClass: 1
Flags: W
HStem: 429 250
VStem: 89 61<429 490> 122 129<565.955 657.215> 246 61<429 490> 279 129<565.955 657.215>
DStem2: 89 429 150 429 0.516163 0.85649<31.4859 146.29> 246 429 307 429 0.516163 0.85649<31.4859 146.29>
LayerCount: 2
Fore
SplineSet
89 429 m 1,0,-1
 165 554 l 1,1,2
 122 570 122 570 122 613.851063938 c 0,3,4
 122 643 122 643 141.985262035 661.933406138 c 0,5,6
 160 679 160 679 186.410132232 679 c 0,7,8
 215 679 215 679 234.076630155 657.803744273 c 0,9,10
 251 639 251 639 251 614.688351288 c 0,11,12
 251 596 251 596 241 580 c 2,13,-1
 150 429 l 1,14,-1
 89 429 l 1,0,-1
246 429 m 1,15,-1
 322 554 l 1,16,17
 279 570 279 570 279 613.851063938 c 0,18,19
 279 643 279 643 298.985262035 661.933406138 c 0,20,21
 317 679 317 679 343.410132232 679 c 0,22,23
 372 679 372 679 391.076630155 657.803744273 c 0,24,25
 408 639 408 639 408 614.688351288 c 0,26,27
 408 596 408 596 398 580 c 2,28,-1
 307 429 l 1,29,-1
 246 429 l 1,15,-1
EndSplineSet
EndChar

StartChar: dagger
Encoding: 270 8224 79
Width: 541
GlyphClass: 1
Flags: W
HStem: 0 21G<168 254.221> 417 79<84 257 355 527> 648 20G<306.698 391>
VStem: 168 82<0 82> 311 80<588 668>
DStem2: 168 0 250 0 0.207912 0.978148<17.0488 426.392 524.041 683.134>
LayerCount: 2
Fore
SplineSet
168 0 m 1,0,-1
 257 417 l 1,1,-1
 67 417 l 1,2,-1
 84 496 l 1,3,-1
 274 496 l 1,4,-1
 311 668 l 1,5,-1
 391 668 l 1,6,-1
 355 496 l 1,7,-1
 544 496 l 1,8,-1
 527 417 l 1,9,-1
 338 417 l 1,10,-1
 250 0 l 1,11,-1
 168 0 l 1,0,-1
EndSplineSet
EndChar

StartChar: daggerdbl
Encoding: 271 8225 80
Width: 541
GlyphClass: 1
Flags: W
HStem: 0 21G<168 254.162> 173 79<32 205 303 475> 417 79<84 257 354 527> 648 20G<306.698 391>
VStem: 168 82<0 82> 311 80<588 668>
DStem2: 168 0 250 0 0.207912 0.978148<17.0488 176.912 274.561 426.392 523.833 683.134>
LayerCount: 2
Fore
SplineSet
168 0 m 1,0,-1
 205 173 l 1,1,-1
 15 173 l 1,2,-1
 32 252 l 1,3,-1
 222 252 l 1,4,-1
 257 417 l 1,5,-1
 67 417 l 1,6,-1
 84 496 l 1,7,-1
 274 496 l 1,8,-1
 311 668 l 1,9,-1
 391 668 l 1,10,-1
 354 496 l 1,11,-1
 544 496 l 1,12,-1
 527 417 l 1,13,-1
 337 417 l 1,14,-1
 303 252 l 1,15,-1
 492 252 l 1,16,-1
 475 173 l 1,17,-1
 286 173 l 1,18,-1
 250 0 l 1,19,-1
 168 0 l 1,0,-1
EndSplineSet
EndChar

StartChar: bullet
Encoding: 272 8226 81
Width: 446
GlyphClass: 1
Flags: W
HStem: 88 332<133.584 297.285>
VStem: 49 332<172.512 335.435>
LayerCount: 2
Fore
SplineSet
215 88 m 128,-1,1
 169 88 169 88 130.383367808 111.169979315 c 0,2,3
 94 133 94 133 72.2163431034 169.790176092 c 0,4,5
 49 209 49 209 49 254.856498463 c 0,6,7
 49 300 49 300 72.1802313688 338.633718948 c 0,8,9
 94 375 94 375 129.902895993 396.541737596 c 0,10,11
 169 420 169 420 215.479618466 420 c 0,12,13
 261 420 261 420 299.711584883 396.77304907 c 0,14,15
 336 375 336 375 357.529702818 339.117161971 c 0,16,17
 381 300 381 300 381 254.019761208 c 0,18,19
 381 209 381 209 357.95109324 170.072957473 c 0,20,21
 336 133 336 133 299.847928594 111.308757156 c 0,22,0
 261 88 261 88 215 88 c 128,-1,1
EndSplineSet
EndChar

StartChar: ellipsis
Encoding: 273 8230 82
Width: 699
GlyphClass: 1
Flags: W
HStem: -12 129<23.6887 113.324 253.895 344.392 484.515 574.313>
VStem: 4 129<7.68325 97.4846> 235 129<7.89198 97.2143> 465 129<7.68325 97.3239>
LayerCount: 2
Fore
SplineSet
299 -12 m 128,-1,1
 272 -12 272 -12 253.202136083 7.30591429296 c 0,2,3
 235 26 235 26 235 52.3924650631 c 0,4,5
 235 79 235 79 253.308944948 97.803781298 c 0,6,7
 272 117 272 117 299.069351628 117 c 128,-1,8
 326 117 326 117 344.987783556 98.0122164439 c 128,-1,9
 364 79 364 79 364 52.4957416878 c 128,-1,10
 364 26 364 26 345.089550312 7.08955031242 c 128,-1,0
 326 -12 326 -12 299 -12 c 128,-1,1
68.5 -12 m 128,-1,12
 42 -12 42 -12 22.9095217578 7.09047824218 c 128,-1,13
 4 26 4 26 4 52.4683763245 c 128,-1,14
 4 79 4 79 23.0961431207 98.0961431207 c 128,-1,15
 42 117 42 117 68.4663913252 117 c 128,-1,16
 95 117 95 117 113.917233271 98.0827667287 c 128,-1,17
 133 79 133 79 133 52.4712032359 c 128,-1,18
 133 26 133 26 114.005164491 7.00516449057 c 128,-1,11
 95 -12 95 -12 68.5 -12 c 128,-1,12
529.5 -12 m 128,-1,20
 503 -12 503 -12 483.909521758 7.09047824218 c 128,-1,21
 465 26 465 26 465 52.4683763245 c 128,-1,22
 465 79 465 79 483.916877914 97.9168779137 c 128,-1,23
 503 117 503 117 529.528920133 117 c 128,-1,24
 556 117 556 117 574.906026506 98.0939734936 c 128,-1,25
 594 79 594 79 594 52.4673137095 c 128,-1,26
 594 26 594 26 575.005862479 7.00586247948 c 128,-1,19
 556 -12 556 -12 529.5 -12 c 128,-1,20
EndSplineSet
EndChar

StartChar: perthousand
Encoding: 274 8240 83
Width: 1406
GlyphClass: 1
Flags: W
HStem: -12 74<690.727 820.1 1091.73 1221.1> 0 21G<234 336.012> 277 74<690.71 819.967 1091.71 1220.97> 316 75<203.136 332.018> 605 75<203.81 331.962> 648 20G<687.988 790>
VStem: 86 74<434.422 561.547> 234 88<0 88> 375 74<433.921 562.113> 574 74<105.036 233.98> 702 88<580 668> 863 74<105.034 234.086> 975 74<105.036 233.98> 1264 74<105.034 234.086>
DStem2: 234 0 322 0 0.573791 0.819001<50.4936 815.627>
LayerCount: 2
Fore
SplineSet
1156.5 62 m 128,-1,1
 1201 62 1201 62 1232.58898376 93.5889837609 c 128,-1,2
 1264 125 1264 125 1264 169.468528729 c 128,-1,3
 1264 214 1264 214 1232.4054489 245.594551099 c 128,-1,4
 1201 277 1201 277 1156.53344326 277 c 128,-1,5
 1112 277 1112 277 1080.58207345 245.58207345 c 128,-1,6
 1049 214 1049 214 1049 169.471051442 c 128,-1,7
 1049 125 1049 125 1080.49487541 93.5051245859 c 128,-1,0
 1112 62 1112 62 1156.5 62 c 128,-1,1
755.5 62 m 128,-1,9
 800 62 800 62 831.588983761 93.5889837609 c 128,-1,10
 863 125 863 125 863 169.468528729 c 128,-1,11
 863 214 863 214 831.405448901 245.594551099 c 128,-1,12
 800 277 800 277 755.533443258 277 c 128,-1,13
 711 277 711 277 679.58207345 245.58207345 c 128,-1,14
 648 214 648 214 648 169.471051442 c 128,-1,15
 648 125 648 125 679.494875414 93.5051245859 c 128,-1,8
 711 62 711 62 755.5 62 c 128,-1,9
1157 -12 m 128,-1,17
 1107 -12 1107 -12 1064.39537592 13.1521274688 c 0,18,19
 1024 37 1024 37 1000.31721916 76.632408757 c 0,20,21
 975 119 975 119 975 169.914237737 c 0,22,23
 975 220 975 220 1000.16261679 262.108868912 c 0,24,25
 1024 302 1024 302 1064.11117153 325.680089219 c 0,26,27
 1107 351 1107 351 1157.41146516 351 c 0,28,29
 1207 351 1207 351 1249.19913596 325.783443147 c 0,30,31
 1289 302 1289 302 1312.4302042 262.79027053 c 0,32,33
 1338 220 1338 220 1338 168.960444622 c 0,34,35
 1338 119 1338 119 1312.73771927 76.7243465388 c 0,36,37
 1289 37 1289 37 1249.60733319 13.46047959 c 0,38,16
 1207 -12 1207 -12 1157 -12 c 128,-1,17
756 -12 m 128,-1,40
 706 -12 706 -12 663.39537592 13.1521274688 c 0,41,42
 623 37 623 37 599.317219157 76.632408757 c 0,43,44
 574 119 574 119 574 169.914237737 c 0,45,46
 574 220 574 220 599.162616789 262.108868912 c 0,47,48
 623 302 623 302 663.111171535 325.680089219 c 0,49,50
 706 351 706 351 756.411465162 351 c 0,51,52
 806 351 806 351 848.199135959 325.783443147 c 0,53,54
 888 302 888 302 911.430204196 262.79027053 c 0,55,56
 937 220 937 220 937 168.960444622 c 0,57,58
 937 119 937 119 911.737719273 76.7243465388 c 0,59,60
 888 37 888 37 848.607333191 13.46047959 c 0,61,39
 806 -12 806 -12 756 -12 c 128,-1,40
268 391 m 128,-1,63
 312 391 312 391 343.5 422.5 c 128,-1,64
 375 454 375 454 375 498 c 128,-1,65
 375 542 375 542 343.5 573.5 c 128,-1,66
 312 605 312 605 268 605 c 128,-1,67
 224 605 224 605 192.125986205 573.62401767 c 0,68,69
 160 542 160 542 160 497.956777286 c 128,-1,70
 160 454 160 454 192.118123781 422.383721903 c 0,71,62
 224 391 224 391 268 391 c 128,-1,63
234 0 m 1,72,-1
 702 668 l 1,73,-1
 790 668 l 1,74,-1
 322 0 l 1,75,-1
 234 0 l 1,72,-1
268 316 m 128,-1,77
 218 316 218 316 175.588930524 341.037860293 c 0,78,79
 135 365 135 365 111.173739841 405.358767208 c 0,80,81
 86 448 86 448 86 498.339098099 c 0,82,83
 86 548 86 548 110.996197848 590.340498396 c 0,84,85
 135 631 135 631 175.376776913 654.836892394 c 0,86,87
 218 680 218 680 268.333817795 680 c 0,88,89
 318 680 318 680 360.022698898 654.888875049 c 0,90,91
 400 631 400 631 423.693291179 590.866465962 c 0,92,93
 449 548 449 548 449 497.595053681 c 0,94,95
 449 448 449 448 423.89764776 405.479689063 c 0,96,97
 400 365 400 365 360.346243169 341.304462382 c 0,98,76
 318 316 318 316 268 316 c 128,-1,77
EndSplineSet
EndChar

StartChar: guilsinglleft
Encoding: 275 8249 84
Width: 355
GlyphClass: 1
Flags: W
VStem: 217 104<357 461>
DStem2: 45 250 140 240 0.633619 0.773645<52.4573 272.222> 140 240 45 250 0.44036 -0.897821<0 183.087>
LayerCount: 2
Fore
SplineSet
148 40 m 1,0,-1
 45 250 l 1,1,-1
 217 461 l 1,2,-1
 321 461 l 1,3,-1
 140 240 l 1,4,-1
 237 40 l 1,5,-1
 148 40 l 1,0,-1
EndSplineSet
EndChar

StartChar: guilsinglright
Encoding: 276 8250 85
Width: 347
GlyphClass: 1
Flags: W
VStem: 9 104<40 144>
DStem2: 9 40 113 40 0.633619 0.773645<65.8964 285.661> 182 461 93 461 0.44036 -0.897821<0 183.087>
LayerCount: 2
Fore
SplineSet
9 40 m 1,0,-1
 190 261 l 1,1,-1
 93 461 l 1,2,-1
 182 461 l 1,3,-1
 285 251 l 1,4,-1
 113 40 l 1,5,-1
 9 40 l 1,0,-1
EndSplineSet
EndChar

StartChar: fraction
Encoding: 277 8260 86
Width: 444
GlyphClass: 1
Flags: W
HStem: 0 21G<-47 55.012> 648 20G<406.988 509>
VStem: -47 88<0 88> 421 88<580 668>
DStem2: -47 0 41 0 0.573791 0.819001<50.4936 815.627>
LayerCount: 2
Fore
SplineSet
-47 0 m 1,0,-1
 421 668 l 1,1,-1
 509 668 l 1,2,-1
 41 0 l 1,3,-1
 -47 0 l 1,0,-1
EndSplineSet
EndChar

StartChar: ordfeminine
Encoding: 170 170 87
Width: 363
GlyphClass: 1
Flags: W
HStem: 396 51<146.337 231.1> 643 48<175.283 267.478>
VStem: 72 73<449.255 508.389> 255 59<403 441> 275 67<576.102 632.988>
LayerCount: 2
Fore
SplineSet
185.519449764 447 m 0,0,1
 220 447 220 447 239.094447492 472.869896602 c 0,2,3
 251 489 251 489 259 518 c 2,4,-1
 262 529 l 1,5,-1
 239 526 l 2,6,7
 184 520 184 520 163.379010354 507.838903542 c 0,8,9
 145 497 145 497 145 476.877732274 c 0,10,11
 145 447 145 447 185.519449764 447 c 0,0,1
158.304536058 396 m 0,12,13
 120 396 120 396 96.014934811 415.987554324 c 128,-1,14
 72 436 72 436 72 470.459887108 c 0,15,16
 72 508 72 508 103.57963351 531.823232297 c 0,17,18
 129 551 129 551 184.758909675 563.254705423 c 0,19,20
 220 571 220 571 272 577 c 1,21,22
 275 589 275 589 275 598.949039594 c 0,23,24
 275 618 275 618 265.762424882 628.497244453 c 0,25,26
 253 643 253 643 225.591456759 643 c 0,27,28
 204 643 204 643 189.182232411 634.109339446 c 0,29,30
 174 625 174 625 165 606 c 1,31,-1
 108 624 l 1,32,33
 141 691 141 691 231.649306398 691 c 0,34,35
 283 691 283 691 311.476326054 670.246067452 c 0,36,37
 342 648 342 648 342 605.663042614 c 0,38,39
 342 598 342 598 341.010757692 589.591440383 c 128,-1,40
 340 581 340 581 335.259940995 560.854749231 c 0,41,42
 328 530 328 530 323.172678 501.380876717 c 0,43,44
 314 447 314 447 314 403 c 1,45,-1
 255 403 l 1,46,-1
 252 441 l 1,47,48
 235 414 235 414 204.224417741 403.138029791 c 0,49,50
 184 396 184 396 158.304536058 396 c 0,12,13
EndSplineSet
EndChar

StartChar: guillemotleft
Encoding: 171 171 88
Width: 563
GlyphClass: 1
Flags: W
VStem: 217 104<357 461> 425 104<357 461>
DStem2: 45 250 140 240 0.633619 0.773645<52.4573 272.222> 140 240 45 250 0.44036 -0.897821<0 183.087> 253 250 348 240 0.633619 0.773645<52.4573 272.222> 348 240 253 250 0.44036 -0.897821<0 183.087>
LayerCount: 2
Fore
SplineSet
148 40 m 1,0,-1
 45 250 l 1,1,-1
 217 461 l 1,2,-1
 321 461 l 1,3,-1
 140 240 l 1,4,-1
 237 40 l 1,5,-1
 148 40 l 1,0,-1
356 40 m 1,6,-1
 253 250 l 1,7,-1
 425 461 l 1,8,-1
 529 461 l 1,9,-1
 348 240 l 1,10,-1
 445 40 l 1,11,-1
 356 40 l 1,6,-1
EndSplineSet
EndChar

StartChar: logicalnot
Encoding: 172 172 89
Width: 667
GlyphClass: 1
Flags: W
HStem: 317 79<75 490>
VStem: 490 81<90 317>
LayerCount: 2
Fore
SplineSet
490 90 m 1,0,-1
 490 317 l 1,1,-1
 75 317 l 1,2,-1
 75 396 l 1,3,-1
 571 396 l 1,4,-1
 571 90 l 1,5,-1
 490 90 l 1,0,-1
EndSplineSet
EndChar

StartChar: registered
Encoding: 174 174 90
Width: 814
GlyphClass: 1
Flags: W
HStem: -12 61<305.971 526.083> 301 58<357 399> 469 61<357 462.714> 619 61<307.582 524.405>
VStem: 70 62<223.895 443.337> 281 76<162 301 359 469> 491 76<372.742 456.189> 501 86<162 248> 700 62<223.825 443.258>
DStem2: 479 311 399 301 0.586879 -0.809675<0 133.553>
LayerCount: 2
Fore
SplineSet
357 359 m 1,0,-1
 410 359 l 2,1,2
 453 359 453 359 472.938414984 373.691463672 c 0,3,4
 491 387 491 387 491 414.871583043 c 0,5,6
 491 447 491 447 463.354550392 459.67083107 c 0,7,8
 443 469 443 469 405 469 c 2,9,-1
 357 469 l 1,10,-1
 357 359 l 1,0,-1
281 162 m 1,11,-1
 281 530 l 1,12,-1
 393 530 l 2,13,14
 448 530 448 530 482.461190279 521.944137337 c 0,15,16
 525 512 525 512 544.894007866 488.790324157 c 0,17,18
 567 463 567 463 567 420.921851835 c 0,19,20
 567 399 567 399 562.127763733 382.353192754 c 0,21,22
 555 358 555 358 537.662721198 341.575209556 c 0,23,24
 517 322 517 322 479 311 c 1,25,-1
 587 162 l 1,26,-1
 501 162 l 1,27,-1
 399 301 l 1,28,-1
 357 301 l 1,29,-1
 357 162 l 1,30,-1
 281 162 l 1,11,-1
416 49 m 128,-1,32
 475 49 475 49 527.767843808 71.5416031802 c 0,33,34
 578 93 578 93 617.066450259 132.567302185 c 128,-1,35
 656 172 656 172 677.368520943 222.021764936 c 0,36,37
 700 275 700 275 700 333.913871269 c 0,38,39
 700 392 700 392 677.369737804 444.975386505 c 0,40,41
 656 495 656 495 617.429874057 534.064614737 c 0,42,43
 578 574 578 574 528.130987498 595.787432646 c 0,44,45
 475 619 475 619 415.540126157 619 c 0,46,47
 357 619 357 619 303.828663859 595.769804598 c 0,48,49
 254 574 254 574 215.175173471 534.677419284 c 0,50,51
 176 495 176 495 154.691416354 445.118542829 c 0,52,53
 132 392 132 392 132 333.047449146 c 0,54,55
 132 275 132 275 154.626601513 222.033182822 c 0,56,57
 176 172 176 172 214.408832504 133.098746566 c 0,58,59
 254 93 254 93 304.425752517 71.4589018376 c 0,60,31
 357 49 357 49 416 49 c 128,-1,32
416 -12 m 128,-1,62
 344 -12 344 -12 279.278427308 15.9597194028 c 0,63,64
 219 42 219 42 171.929771515 89.070228485 c 0,65,66
 124 137 124 137 97.8046802325 197.637314277 c 0,67,68
 70 262 70 262 70 334.024934527 c 0,69,70
 70 405 70 405 97.76873086 469.79370534 c 0,71,72
 124 531 124 531 171.323081769 578.323081769 c 0,73,74
 219 626 219 626 279.336444491 652.06534402 c 0,75,76
 344 680 344 680 416.612546853 680 c 0,77,78
 488 680 488 680 552.588231577 652.097883959 c 0,79,80
 613 626 613 626 659.930396958 579.069603042 c 0,81,82
 708 531 708 531 734.214966675 469.831744425 c 0,83,84
 762 405 762 405 762 332.987699825 c 0,85,86
 762 262 762 262 734.135748071 197.499416831 c 0,87,88
 708 137 708 137 660.886318849 89.8863188489 c 0,89,90
 613 42 613 42 552.595159088 15.9051087258 c 0,91,61
 488 -12 488 -12 416 -12 c 128,-1,62
EndSplineSet
EndChar

StartChar: macron
Encoding: 175 175 91
Width: 382
GlyphClass: 1
Flags: W
HStem: 601 67<133 395>
VStem: 119 290
LayerCount: 2
Fore
SplineSet
119 601 m 1,0,-1
 133 668 l 1,1,-1
 409 668 l 1,2,-1
 395 601 l 1,3,-1
 119 601 l 1,0,-1
EndSplineSet
EndChar

StartChar: degree
Encoding: 176 176 92
Width: 358
GlyphClass: 1
Flags: W
HStem: 408 63<171.805 274.506> 617 63<171.836 274.94>
VStem: 87 63<492.796 595.957> 296 63<492.873 595.968>
LayerCount: 2
Fore
SplineSet
223.5 471 m 128,-1,1
 254 471 254 471 275.210306915 492.715314223 c 0,2,3
 296 514 296 514 296 544.423253785 c 128,-1,4
 296 575 296 575 275.072173629 595.927826371 c 128,-1,5
 254 617 254 617 223.473839035 617 c 128,-1,6
 193 617 193 617 171.718481515 596.213400549 c 0,7,8
 150 575 150 575 150 544.422906491 c 128,-1,9
 150 514 150 514 171.486396651 492.513603349 c 128,-1,0
 193 471 193 471 223.5 471 c 128,-1,1
223.5 408 m 128,-1,11
 186 408 186 408 154.113561499 427.029003621 c 0,12,13
 124 445 124 445 106.101033395 474.992862959 c 0,14,15
 87 507 87 507 87 544.799728361 c 0,16,17
 87 582 87 582 106.109147011 613.504269397 c 0,18,19
 124 643 124 643 153.761913661 660.761142023 c 0,20,21
 186 680 186 680 223.86712597 680 c 0,22,23
 261 680 261 680 292.685444241 660.780960051 c 0,24,25
 322 643 322 643 339.49149072 614.162677462 c 0,26,27
 359 582 359 582 359 544.002404098 c 0,28,29
 359 507 359 507 339.915493258 475.020556271 c 0,30,31
 322 445 322 445 292.809815566 427.294478294 c 0,32,10
 261 408 261 408 223.5 408 c 128,-1,11
EndSplineSet
EndChar

StartChar: plusminus
Encoding: 177 177 93
Width: 653
GlyphClass: 1
Flags: W
HStem: 0 79<65 538> 270 79<65 262 341 538> 476 20G<262 341>
VStem: 262 79<124 270 349 496>
LayerCount: 2
Fore
SplineSet
65 0 m 1,0,-1
 65 79 l 1,1,-1
 538 79 l 1,2,-1
 538 0 l 1,3,-1
 65 0 l 1,0,-1
262 124 m 1,4,-1
 262 270 l 1,5,-1
 65 270 l 1,6,-1
 65 349 l 1,7,-1
 262 349 l 1,8,-1
 262 496 l 1,9,-1
 341 496 l 1,10,-1
 341 349 l 1,11,-1
 538 349 l 1,12,-1
 538 270 l 1,13,-1
 341 270 l 1,14,-1
 341 124 l 1,15,-1
 262 124 l 1,4,-1
EndSplineSet
EndChar

StartChar: uni00B2
Encoding: 178 178 94
Width: 384
GlyphClass: 1
Flags: W
HStem: 403 58<168 335> 676 21G<119 184.5> 736 50<202.583 298.669>
VStem: 312 70<619.296 724.604>
LayerCount: 2
Fore
SplineSet
59 403 m 1,0,-1
 71 457 l 1,1,2
 165 509 165 509 217.385713721 547.785576505 c 0,3,4
 269 586 269 586 291.831397294 621.043540032 c 0,5,6
 312 652 312 652 312 681.840352338 c 0,7,8
 312 708 312 708 295.772241169 722.657330557 c 0,9,10
 281 736 281 736 257.782516319 736 c 0,11,12
 234 736 234 736 214.746109312 723.747524108 c 0,13,14
 190 708 190 708 179 676 c 1,15,-1
 119 695 l 1,16,17
 136 737 136 737 170.161503507 760.5762489 c 0,18,19
 207 786 207 786 259.003083958 786 c 0,20,21
 309 786 309 786 341.497748408 765.076792121 c 0,22,23
 382 739 382 739 382 689.244072535 c 0,24,25
 382 631 382 631 326.77813806 571.798184047 c 0,26,27
 271 512 271 512 168 461 c 1,28,-1
 347 461 l 1,29,-1
 335 403 l 1,30,-1
 59 403 l 1,0,-1
EndSplineSet
EndChar

StartChar: uni00B3
Encoding: 179 179 95
Width: 394
GlyphClass: 1
Flags: W
HStem: 396 51<169.342 277.789> 483 20G<87 154.5> 572 54<205 282.744> 736 50<199.451 302.654>
VStem: 298 69<464.06 555.594> 317 68<643.691 725.912>
LayerCount: 2
Fore
SplineSet
220.893335538 396 m 0,0,1
 171 396 171 396 135.523725045 420.32658854 c 0,2,3
 101 444 101 444 87 486 c 1,4,-1
 151 503 l 1,5,6
 158 479 158 479 173.566794312 464.767502344 c 0,7,8
 193 447 193 447 224.342208534 447 c 0,9,10
 255 447 255 447 275.009816653 462.821715493 c 0,11,12
 298 481 298 481 298 514.105591537 c 0,13,14
 298 539 298 539 283.093706452 553.332974565 c 0,15,16
 272 564 272 564 250.055510569 568.744754472 c 0,17,18
 235 572 235 572 217 572 c 2,19,-1
 194 572 l 1,20,-1
 205 626 l 1,21,-1
 221 626 l 2,22,23
 239 627 239 627 252.941510126 629.168679353 c 0,24,25
 284 634 284 634 298.869469469 644.36356963 c 0,26,27
 317 657 317 657 317 684.743343939 c 0,28,29
 317 712 317 712 297.304277845 725.505638049 c 0,30,31
 282 736 282 736 256.87111903 736 c 0,32,33
 230 736 230 736 211.816858448 724.515910599 c 0,34,35
 192 712 192 712 178 683 c 1,36,-1
 120 701 l 1,37,38
 141 745 141 745 180.207432063 766.723036684 c 0,39,40
 215 786 215 786 260.743885242 786 c 0,41,42
 292 786 292 786 317.38216801 777.984578523 c 0,43,44
 349 768 349 768 365.568948045 748.669560614 c 0,45,46
 385 726 385 726 385 692.41442415 c 0,47,48
 385 661 385 661 368.209261156 638.283118035 c 0,49,50
 351 615 351 615 317 602 c 1,51,52
 345 589 345 589 357.934321692 561.367585476 c 0,53,54
 367 542 367 542 367 516.837782987 c 0,55,56
 367 479 367 479 345.469259483 450.117299307 c 0,57,58
 326 424 326 424 291.483515265 409.575200409 c 0,59,60
 259 396 259 396 220.893335538 396 c 0,0,1
EndSplineSet
EndChar

StartChar: acute
Encoding: 180 180 96
Width: 271
GlyphClass: 1
Flags: W
HStem: 572 135
VStem: 113 184
LayerCount: 2
Fore
SplineSet
113 572 m 1,0,1
 144 606 144 606 173.474706108 636.814465477 c 0,2,3
 188 652 188 652 200.894980516 665.225621042 c 0,4,5
 227 692 227 692 234.170080745 697.975067287 c 0,6,7
 245 707 245 707 259.397815414 707 c 0,8,9
 276 707 276 707 286.711810017 695.778103792 c 0,10,11
 297 685 297 685 297 669.134565685 c 0,12,13
 297 652 297 652 283.626150551 640.033924178 c 0,14,15
 278 635 278 635 259.860708338 621.962384118 c 0,16,17
 246 612 246 612 225.490463042 597.936317515 c 0,18,19
 211 588 211 588 187 572 c 1,20,-1
 113 572 l 1,0,1
EndSplineSet
EndChar

StartChar: uni03BC
Encoding: 278 956 97
Width: 543
GlyphClass: 1
Flags: W
HStem: -162 21G<-26 66.1748> -12 69<152.322 281.987> 0 21G<344.529 415.283> 475 20G<109.738 202 426.769 517>
VStem: -26 88<-162 -74> 114 88<407 495> 346 65<0 32.6887> 431 86<409 495>
DStem2: -26 -162 62 -162 0.207912 0.978148<18.2962 228.735 289.126 671.751> 291.35 -162 377.35 -162 0.207912 0.978148<275.693 671.678>
LayerCount: 2
Fore
SplineSet
-26 -162 m 1,0,-1
 114 495 l 1,1,-1
 202 495 l 1,2,-1
 138 196 l 2,3,4
 125 131 125 131 139.055707002 98.4961775571 c 0,5,6
 157 57 157 57 217.578381093 57 c 0,7,8
 254 57 254 57 280.579069537 70.7477945879 c 0,9,10
 312 87 312 87 334.593588302 122.965303827 c 0,11,12
 361 165 361 165 376 235 c 2,13,-1
 431 495 l 1,14,-1
 517 495 l 1,15,-1
 411 0 l 1,16,-1
 346 0 l 1,17,-1
 341 68 l 1,18,19
 314 31 314 31 287.330965799 13.0817426462 c 0,20,21
 250 -12 250 -12 203.065376325 -12 c 0,22,23
 168 -12 168 -12 143.33562795 1.8120483482 c 0,24,25
 118 16 118 16 105 44 c 1,26,-1
 62 -162 l 1,27,-1
 -26 -162 l 1,0,-1
EndSplineSet
EndChar

StartChar: paragraph
Encoding: 182 182 98
Width: 522
GlyphClass: 1
Flags: W
HStem: -162 21G<91 178.252 268 355.226> 600 68<336 429 512 553>
VStem: 91 83<-162 -79> 268 83<-162 -79>
DStem2: 91 -162 174 -162 0.207912 0.978148<17.2567 467.877> 268 -162 351 -162 0.207912 0.978148<17.2567 778.822>
LayerCount: 2
Fore
SplineSet
91 -162 m 1,0,-1
 188 294 l 1,1,2
 136 306 136 306 104.818189235 345.731662103 c 0,3,4
 74 385 74 385 74 438.383754244 c 0,5,6
 74 448 74 448 74.9902175224 457.902175224 c 128,-1,7
 76 468 76 468 78.7147950947 480.216577926 c 0,8,9
 90 531 90 531 124.925743189 574.530636439 c 0,10,11
 159 617 159 617 206.197091053 641.814965399 c 0,12,13
 256 668 256 668 308 668 c 2,14,-1
 568 668 l 1,15,-1
 553 600 l 1,16,-1
 512 600 l 1,17,-1
 351 -162 l 1,18,-1
 268 -162 l 1,19,-1
 429 600 l 1,20,-1
 336 600 l 1,21,-1
 174 -162 l 1,22,-1
 91 -162 l 1,0,-1
EndSplineSet
EndChar

StartChar: periodcentered
Encoding: 183 183 99
Width: 235
GlyphClass: 1
Flags: W
HStem: 183 129<72.6816 162.399>
VStem: 53 129<202.59 292.312>
LayerCount: 2
Fore
SplineSet
117.5 183 m 128,-1,1
 91 183 91 183 72.0887869855 201.911213014 c 128,-1,2
 53 221 53 221 53 247.530886496 c 128,-1,3
 53 274 53 274 72.0849388728 293.084938873 c 128,-1,4
 91 312 91 312 117.47031677 312 c 128,-1,5
 144 312 144 312 163.095795716 292.904204284 c 128,-1,6
 182 274 182 274 182 247.533486925 c 128,-1,7
 182 221 182 221 162.994001416 201.994001416 c 128,-1,0
 144 183 144 183 117.5 183 c 128,-1,1
EndSplineSet
EndChar

StartChar: cedilla
Encoding: 184 184 100
Width: 294
GlyphClass: 1
Flags: W
HStem: -181 41<-11.4546 106.487>
VStem: 113 63<-132.005 -86.4522>
DStem2: 30 -57 87 -45 0.638336 0.769758<45.6222 106.527>
LayerCount: 2
Fore
SplineSet
67.384482182 -181 m 0,0,1
 26 -181 26 -181 -24 -163 c 1,2,-1
 -1 -126 l 1,3,4
 16 -133 16 -133 29.6955082061 -136.423877052 c 0,5,6
 44 -140 44 -140 57.7720288426 -140 c 0,7,8
 83 -140 83 -140 99.9387316143 -126.449014709 c 0,9,10
 113 -116 113 -116 113 -104.219603269 c 0,11,12
 113 -95 113 -95 106.025266066 -89.3330286789 c 0,13,14
 97 -82 97 -82 75.5338131829 -82 c 0,15,16
 63 -82 63 -82 54.7252066989 -84.9552833218 c 0,17,18
 49 -87 49 -87 42.8198802508 -87 c 0,19,20
 25 -87 25 -87 25 -71.9644037317 c 0,21,22
 25 -64 25 -64 30 -57 c 2,23,-1
 98 25 l 1,24,-1
 128 4 l 1,25,-1
 87 -45 l 1,26,27
 94 -44 94 -44 98.9443871706 -43.5505102572 c 0,28,29
 105 -43 105 -43 111.102237154 -43 c 0,30,31
 144 -43 144 -43 161.788029349 -60.7880293495 c 0,32,33
 176 -75 176 -75 176 -95.6944697996 c 0,34,35
 176 -125 176 -125 151.382677464 -149.185439684 c 0,36,37
 119 -181 119 -181 67.384482182 -181 c 0,0,1
EndSplineSet
EndChar

StartChar: uni00B9
Encoding: 185 185 101
Width: 257
GlyphClass: 1
Flags: W
HStem: 682 48<126 198.616>
VStem: 139 69<403 472>
DStem2: 139 403 208 403 0.207912 0.978148<14.3459 285.378 338.98 386.911>
LayerCount: 2
Fore
SplineSet
139 403 m 1,0,-1
 199 682 l 1,1,-1
 116 682 l 1,2,-1
 126 730 l 1,3,4
 166 730 166 730 189.590414848 739.713700232 c 0,5,6
 217 751 217 751 231 779 c 1,7,-1
 288 779 l 1,8,-1
 208 403 l 1,9,-1
 139 403 l 1,0,-1
EndSplineSet
EndChar

StartChar: ordmasculine
Encoding: 186 186 102
Width: 383
GlyphClass: 1
Flags: W
HStem: 399 53<172.688 265.383> 639 53<185.733 278.58>
VStem: 87 69<469.121 607.295> 295 69<483.226 621.444>
LayerCount: 2
Fore
SplineSet
216.094203808 452 m 0,0,1
 249 452 249 452 270.801069309 479.96224107 c 0,2,3
 295 511 295 511 295 559.199605945 c 0,4,5
 295 599 295 599 277.693512447 619.97756067 c 0,6,7
 262 639 262 639 235.598395217 639 c 0,8,9
 203 639 203 639 181.005959247 611.858417794 c 0,10,11
 156 581 156 581 156 531.891323349 c 0,12,13
 156 492 156 492 173.301545479 471.028429723 c 0,14,15
 189 452 189 452 216.094203808 452 c 0,0,1
210.02522444 399 m 0,16,17
 161 399 161 399 128.38478369 425.444769981 c 0,18,19
 87 459 87 459 87 529.222079769 c 0,20,21
 87 581 87 581 110.78859741 620.647662349 c 0,22,23
 132 656 132 656 169.664673505 675.097580932 c 0,24,25
 203 692 203 692 240.553754457 692 c 0,26,27
 291 692 291 692 323.703542295 664.672382466 c 0,28,29
 364 631 364 631 364 561.17543389 c 0,30,31
 364 509 364 509 340.060101936 469.632167628 c 0,32,33
 319 435 319 435 281.563924425 416.018327878 c 0,34,35
 248 399 248 399 210.02522444 399 c 0,16,17
EndSplineSet
EndChar

StartChar: guillemotright
Encoding: 187 187 103
Width: 555
GlyphClass: 1
Flags: W
VStem: 9 104<40 144> 217 104<40 144>
DStem2: 9 40 113 40 0.633619 0.773645<65.8964 285.661> 182 461 93 461 0.44036 -0.897821<0 183.087> 217 40 321 40 0.633619 0.773645<65.8964 285.661> 390 461 301 461 0.44036 -0.897821<0 183.087>
LayerCount: 2
Fore
SplineSet
9 40 m 1,0,-1
 190 261 l 1,1,-1
 93 461 l 1,2,-1
 182 461 l 1,3,-1
 285 251 l 1,4,-1
 113 40 l 1,5,-1
 9 40 l 1,0,-1
217 40 m 1,6,-1
 398 261 l 1,7,-1
 301 461 l 1,8,-1
 390 461 l 1,9,-1
 493 251 l 1,10,-1
 321 40 l 1,11,-1
 217 40 l 1,6,-1
EndSplineSet
EndChar

StartChar: onequarter
Encoding: 188 188 104
Width: 824
GlyphClass: 1
Flags: W
HStem: 0 21G<100 202.012 574 648.186> 86 57<492 592 674 727> 571 47<122 194.616> 647 21G<220 284 553.988 656>
VStem: 100 88<0 88> 136 68<292 360> 568 88<580 668> 574 70<0 70>
DStem2: 73.9335 0 141.933 0 0.207912 0.978148<312.661 583.693 636.763 684.249> 100 0 188 0 0.573791 0.819001<50.4936 815.627> 411 140 492 143 0.708606 0.705604<59.5139 264.571> 574 0 644 0 0.207912 0.978148<14.5538 87.8631 160.666 295.575>
LayerCount: 2
Fore
SplineSet
492 143 m 1,0,-1
 604 143 l 1,1,-1
 636 289 l 1,2,-1
 492 143 l 1,0,-1
574 0 m 1,3,-1
 592 86 l 1,4,-1
 399 86 l 1,5,-1
 411 140 l 1,6,-1
 647 375 l 1,7,-1
 724 375 l 1,8,-1
 674 143 l 1,9,-1
 739 143 l 1,10,-1
 727 86 l 1,11,-1
 662 86 l 1,12,-1
 644 0 l 1,13,-1
 574 0 l 1,3,-1
136 292 m 1,14,-1
 195 571 l 1,15,-1
 112 571 l 1,16,-1
 122 618 l 1,17,18
 162 618 162 618 185.590414848 627.713700232 c 0,19,20
 213 639 213 639 227 667 c 1,21,-1
 284 667 l 1,22,-1
 204 292 l 1,23,-1
 136 292 l 1,14,-1
100 0 m 1,24,-1
 568 668 l 1,25,-1
 656 668 l 1,26,-1
 188 0 l 1,27,-1
 100 0 l 1,24,-1
EndSplineSet
Ligature2: "'frac' Diagonal Fractions lookup 10 subtable" one slash four
EndChar

StartChar: onehalf
Encoding: 189 189 105
Width: 802
GlyphClass: 1
Flags: W
HStem: 0 58<520 687> 333 49<554.664 650.396> 571 47<122 193.829> 647 21G<220 284 546.988 649>
VStem: 93 88<0 88> 135 69<292 361> 561 88<580 668> 664 71<215.451 320.622>
DStem2: 72.9335 0 141.933 0 0.207912 0.978148<312.869 583.693 636.525 684.457> 93 0 181 0 0.573791 0.819001<50.4936 815.627>
LayerCount: 2
Fore
SplineSet
411 0 m 1,0,-1
 422 54 l 1,1,2
 516 106 516 106 568.65594197 144.614357445 c 0,3,4
 621 183 621 183 643.796232275 217.459420881 c 0,5,6
 664 248 664 248 664 277.631113853 c 0,7,8
 664 304 664 304 647.230310541 319.197531072 c 0,9,10
 632 333 632 333 609.081706269 333 c 128,-1,11
 586 333 586 333 566.907898977 320.850481167 c 0,12,13
 542 305 542 305 531 273 c 1,14,-1
 471 292 l 1,15,16
 488 334 488 334 522.414134547 357.265893778 c 0,17,18
 559 382 559 382 610.926681394 382 c 0,19,20
 661 382 661 382 693.636287585 361.712577988 c 0,21,22
 735 336 735 336 735 285.740187782 c 0,23,24
 735 227 735 227 677.701962987 167.166651615 c 0,25,26
 622 109 622 109 520 58 c 1,27,-1
 699 58 l 1,28,-1
 687 0 l 1,29,-1
 411 0 l 1,0,-1
135 292 m 1,30,-1
 194 571 l 1,31,-1
 112 571 l 1,32,-1
 122 618 l 1,33,34
 162 618 162 618 185.590414848 627.713700232 c 0,35,36
 213 639 213 639 227 667 c 1,37,-1
 284 667 l 1,38,-1
 204 292 l 1,39,-1
 135 292 l 1,30,-1
93 0 m 1,40,-1
 561 668 l 1,41,-1
 649 668 l 1,42,-1
 181 0 l 1,43,-1
 93 0 l 1,40,-1
EndSplineSet
Ligature2: "'frac' Diagonal Fractions lookup 10 subtable" one slash two
EndChar

StartChar: threequarters
Encoding: 190 190 106
Width: 906
GlyphClass: 1
Flags: W
HStem: 0 21G<193 295.012 656 730.419> 86 57<574 675 756 809> 291 51<164.342 272.789> 467 54<200 277.744> 631 50<194.451 297.654> 648 20G<646.988 749>
VStem: 193 88<0 88> 293 69<359.06 450.594> 312 68<538.691 620.912> 656 70<0 70> 661 88<580 668>
DStem2: 193 0 281 0 0.573791 0.819001<50.4936 815.627> 493 140 574 143 0.710097 0.704104<59.6301 264.683> 656 0 726 0 0.207912 0.978148<14.5538 88.071 160.666 295.575>
LayerCount: 2
Fore
SplineSet
574 143 m 1,0,-1
 687 143 l 1,1,-1
 718 289 l 1,2,-1
 574 143 l 1,0,-1
656 0 m 1,3,-1
 675 86 l 1,4,-1
 482 86 l 1,5,-1
 493 140 l 1,6,-1
 730 375 l 1,7,-1
 806 375 l 1,8,-1
 756 143 l 1,9,-1
 821 143 l 1,10,-1
 809 86 l 1,11,-1
 745 86 l 1,12,-1
 726 0 l 1,13,-1
 656 0 l 1,3,-1
193 0 m 1,14,-1
 661 668 l 1,15,-1
 749 668 l 1,16,-1
 281 0 l 1,17,-1
 193 0 l 1,14,-1
215.893335538 291 m 0,18,19
 166 291 166 291 130.523725045 315.32658854 c 0,20,21
 96 339 96 339 82 381 c 1,22,-1
 146 398 l 1,23,24
 153 374 153 374 168.566794312 359.767502344 c 0,25,26
 188 342 188 342 219.342208534 342 c 0,27,28
 250 342 250 342 270.009816653 357.821715493 c 0,29,30
 293 376 293 376 293 409.105591537 c 0,31,32
 293 434 293 434 278.093706452 448.332974565 c 0,33,34
 267 459 267 459 245.055510569 463.744754472 c 0,35,36
 230 467 230 467 212 467 c 2,37,-1
 189 467 l 1,38,-1
 200 521 l 1,39,-1
 216 521 l 2,40,41
 234 522 234 522 247.941510126 524.168679353 c 0,42,43
 279 529 279 529 293.869469469 539.36356963 c 0,44,45
 312 552 312 552 312 579.743343939 c 0,46,47
 312 607 312 607 292.304277845 620.505638049 c 0,48,49
 277 631 277 631 251.87111903 631 c 0,50,51
 225 631 225 631 206.816858448 619.515910599 c 0,52,53
 187 607 187 607 173 578 c 1,54,-1
 115 596 l 1,55,56
 136 640 136 640 175.207432063 661.723036684 c 0,57,58
 210 681 210 681 255.743885242 681 c 0,59,60
 287 681 287 681 312.38216801 672.984578523 c 0,61,62
 344 663 344 663 360.568948045 643.669560614 c 0,63,64
 380 621 380 621 380 587.41442415 c 0,65,66
 380 556 380 556 363.209261156 533.283118035 c 0,67,68
 346 510 346 510 312 497 c 1,69,70
 340 484 340 484 352.934321692 456.367585476 c 0,71,72
 362 437 362 437 362 411.837782987 c 0,73,74
 362 374 362 374 340.469259483 345.117299307 c 0,75,76
 321 319 321 319 286.483515265 304.575200409 c 0,77,78
 254 291 254 291 215.893335538 291 c 0,18,19
EndSplineSet
Ligature2: "'frac' Diagonal Fractions lookup 10 subtable" three slash four
EndChar

StartChar: less
Encoding: 60 60 107
Width: 613
GlyphClass: 1
Flags: W
HStem: 0 21G<466.587 511> 476 20G<466.587 511>
VStem: 38 105<160.5 335.5>
DStem2: 143 248 38 213 0.911813 -0.410605<0 400.423>
LayerCount: 2
Fore
SplineSet
511 0 m 1,0,-1
 38 213 l 1,1,-1
 38 283 l 1,2,-1
 511 496 l 1,3,-1
 511 406 l 1,4,-1
 143 248 l 1,5,-1
 511 90 l 1,6,-1
 511 0 l 1,0,-1
EndSplineSet
EndChar

StartChar: equal
Encoding: 61 61 108
Width: 658
GlyphClass: 1
Flags: W
HStem: 121 79<63 559> 307 79<63 559>
LayerCount: 2
Fore
SplineSet
63 121 m 1,0,-1
 63 200 l 1,1,-1
 559 200 l 1,2,-1
 559 121 l 1,3,-1
 63 121 l 1,0,-1
63 307 m 1,4,-1
 63 386 l 1,5,-1
 559 386 l 1,6,-1
 559 307 l 1,7,-1
 63 307 l 1,4,-1
EndSplineSet
EndChar

StartChar: greater
Encoding: 62 62 109
Width: 613
GlyphClass: 1
Flags: W
HStem: 0 21G<83 127.413> 476 20G<83 127.413>
VStem: 451 105<160.5 335.5>
DStem2: 83 90 83 0 0.911813 0.410605<0 400.423>
LayerCount: 2
Fore
SplineSet
83 0 m 1,0,-1
 83 90 l 1,1,-1
 451 248 l 1,2,-1
 83 406 l 1,3,-1
 83 496 l 1,4,-1
 556 283 l 1,5,-1
 556 213 l 1,6,-1
 83 0 l 1,0,-1
EndSplineSet
EndChar

StartChar: question
Encoding: 63 63 110
Width: 527
GlyphClass: 1
Flags: W
HStem: -12 129<144.667 232.97> 500 21G<101.833 184.5> 609 70<232.79 401.706>
VStem: 123 130<10.0791 99.3721> 433 91<471.606 579.601>
DStem2: 127.064 -12 212.064 -12 0.207912 0.978148<224.185 342.528>
LayerCount: 2
Fore
SplineSet
186.359033381 -12 m 0,0,1
 158 -12 158 -12 139.188114393 9.49929783709 c 0,2,3
 123 28 123 28 123 53.1004142636 c 0,4,5
 123 81 123 81 144.074447212 99.9670024907 c 0,6,7
 163 117 163 117 187.803471952 117 c 0,8,9
 214 117 214 117 233.410080581 98.0876137926 c 128,-1,10
 253 79 253 79 253 52.4695206874 c 128,-1,11
 253 26 253 26 233.584481151 7.0823149677 c 128,-1,12
 214 -12 214 -12 186.359033381 -12 c 0,0,1
170 190 m 1,13,14
 172 199 172 199 173.021587172 203.852539067 c 0,15,16
 176 218 176 218 178.656667982 230.524291916 c 0,17,18
 190 284 190 284 215.580384208 322.098444565 c 0,19,20
 237 354 237 354 276.208999643 381.921560352 c 0,21,22
 303 401 303 401 333.189413122 416.502671603 c 0,23,24
 377 439 377 439 399.781232939 459.747194284 c 0,25,26
 433 490 433 490 433 528.455270858 c 0,27,28
 433 565 433 565 402.066534473 587.684541386 c 0,29,30
 373 609 373 609 320.874190305 609 c 0,31,32
 203 609 203 609 166 500 c 1,33,-1
 89 524 l 1,34,35
 118 604 118 604 186.446015782 643.794195222 c 0,36,37
 247 679 247 679 326.11177809 679 c 0,38,39
 376 679 376 679 416.440259996 666.132644547 c 0,40,41
 464 651 464 651 490.583117822 623.087726287 c 0,42,43
 524 588 524 588 524 531.361470634 c 0,44,45
 524 487 524 487 501.540663965 450.84594687 c 0,46,47
 483 421 483 421 444.760418781 393.445007651 c 0,48,49
 415 372 415 372 377.174000777 353.648772654 c 0,50,51
 314 323 314 323 288.28640615 286.522576167 c 0,52,53
 271 262 271 262 262.389123498 222.389968093 c 0,54,55
 261 216 261 216 259.913945073 211.112752829 c 0,56,57
 257 198 257 198 255 190 c 1,58,-1
 170 190 l 1,13,14
EndSplineSet
EndChar

StartChar: at
Encoding: 64 64 111
Width: 784
GlyphClass: 1
Flags: W
HStem: -12 60<296.412 516.607> 155 73<308.107 401.39> 155 64<531.599 634.7> 446 73<360.612 474.448> 619 61<302.285 521.661>
VStem: 65 62<215.298 444.411> 213 81<239.63 373.142> 682 62<272.938 465.702>
DStem2: 378.61 -12 460.782 -12 0.207912 0.978148<294.505 464.12>
LayerCount: 2
Fore
SplineSet
346.552998318 228 m 0,0,1
 376 228 376 228 404.061953275 251.810142173 c 0,2,3
 442 284 442 284 461.622353704 378.544067847 c 0,4,5
 464 390 464 390 467.332783376 405.923298354 c 0,6,7
 473 433 473 433 474.999999964 441.999999838 c 1,8,9
 465 444 465 444 454.728368845 444.978250586 c 0,10,11
 444 446 444 446 434.510381677 446 c 0,12,13
 389 446 389 446 355.03083193 420.249179044 c 0,14,15
 327 399 327 399 310.509395095 363.020498388 c 128,-1,16
 294 327 294 327 294 291.955897364 c 0,17,18
 294 258 294 258 311.379143965 241.181473582 c 0,19,20
 325 228 325 228 346.552998318 228 c 0,0,1
409.784770146 -12 m 0,21,22
 344 -12 344 -12 283.182815588 9.23774693766 c 0,23,24
 218 32 218 32 170.625307532 74.0571249463 c 0,25,26
 120 119 120 119 93.5516110094 181.033494178 c 0,27,28
 65 248 65 248 65 328.103489023 c 0,29,30
 65 406 65 406 93.4899353244 471.948924362 c 0,31,32
 119 531 119 531 165.825975137 577.825975137 c 0,33,34
 214 626 214 626 274.498336106 652.135281198 c 0,35,36
 339 680 339 680 408.439658846 680 c 0,37,38
 468 680 468 680 525.301772029 659.919891853 c 0,39,40
 585 639 585 639 631.703157829 601.260074481 c 0,41,42
 684 559 684 559 712.194033793 504.021634103 c 0,43,44
 744 442 744 442 744 362.889215562 c 0,45,46
 744 290 744 290 714.411078718 239.041302236 c 0,47,48
 690 197 690 197 645.511591162 174.21325401 c 0,49,50
 608 155 608 155 566.384201038 155 c 0,51,52
 525 155 525 155 493.999724619 173.406413507 c 0,53,54
 461 193 461 193 454 225 c 1,55,56
 428 190 428 190 391.220353185 171.343657413 c 0,57,58
 359 155 359 155 326.034044936 155 c 0,59,60
 281 155 281 155 250.209809327 182.620612221 c 0,61,62
 213 216 213 216 213 283.178913578 c 0,63,64
 213 344 213 344 243.007792694 398.112413054 c 0,65,66
 274 454 274 454 326.333203938 485.496835703 c 0,67,68
 382 519 382 519 453.877369214 519 c 0,69,70
 483 519 483 519 514.738623833 513.181252297 c 0,71,72
 543 508 543 508 569 499 c 1,73,-1
 528 303 l 2,74,75
 525 290 525 290 523.851657577 284.717624856 c 0,76,77
 520 267 520 267 520 258.771308362 c 0,78,79
 520 242 520 242 536.235458298 230.330764348 c 0,80,81
 552 219 552 219 576.561886622 219 c 0,82,83
 610 219 610 219 635.313673012 241.149463886 c 0,84,85
 658 261 658 261 670.390745409 296.107111993 c 0,86,87
 682 329 682 329 682 367.380281319 c 0,88,89
 682 419 682 419 660.195874983 465.723125035 c 0,90,91
 640 509 640 509 603.798122942 543.245018838 c 0,92,93
 566 579 566 579 518.65317792 598.325233502 c 0,94,95
 468 619 468 619 411.393025468 619 c 0,96,97
 353 619 353 619 299.956826079 596.340780073 c 0,98,99
 250 575 250 575 211.278204719 536.768354026 c 0,100,101
 171 497 171 497 149.342799011 445.810252208 c 0,102,103
 127 393 127 393 127 328.612004316 c 0,104,105
 127 243 127 243 168.234039516 176.190416987 c 0,106,107
 206 115 206 115 272.027613762 80.9703836765 c 0,108,109
 336 48 336 48 407.381798194 48 c 0,110,111
 483 48 483 48 547 85 c 1,112,-1
 547 16 l 1,113,114
 484 -12 484 -12 409.784770146 -12 c 0,21,22
EndSplineSet
EndChar

StartChar: colon
Encoding: 58 58 112
Width: 208
GlyphClass: 1
Flags: W
HStem: -12 129<8.68873 98.3242> 375 129<90.6816 180.399>
VStem: -11 129<7.68325 97.4846> 71 129<394.59 484.312>
LayerCount: 2
Fore
SplineSet
53.5 -12 m 128,-1,1
 27 -12 27 -12 7.90952175782 7.09047824218 c 128,-1,2
 -11 26 -11 26 -11 52.4683763245 c 128,-1,3
 -11 79 -11 79 8.09614312069 98.0961431207 c 128,-1,4
 27 117 27 117 53.4663913252 117 c 128,-1,5
 80 117 80 117 98.9172332713 98.0827667287 c 128,-1,6
 118 79 118 79 118 52.4712032359 c 128,-1,7
 118 26 118 26 99.0051644906 7.00516449057 c 128,-1,0
 80 -12 80 -12 53.5 -12 c 128,-1,1
135.5 375 m 128,-1,9
 109 375 109 375 90.0887869855 393.911213014 c 128,-1,10
 71 413 71 413 71 439.530886496 c 128,-1,11
 71 466 71 466 90.0849388728 485.084938873 c 128,-1,12
 109 504 109 504 135.47031677 504 c 128,-1,13
 162 504 162 504 181.095795716 484.904204284 c 128,-1,14
 200 466 200 466 200 439.533486925 c 128,-1,15
 200 413 200 413 180.994001416 393.994001416 c 128,-1,8
 162 375 162 375 135.5 375 c 128,-1,9
EndSplineSet
EndChar

StartChar: bracketleft
Encoding: 91 91 114
Width: 317
GlyphClass: 1
Flags: W
HStem: -161 74<79 188> 593 75<224 348>
DStem2: -20 -161 63.2708 -161 0.207912 0.978148<92.9662 788.254>
LayerCount: 2
Fore
SplineSet
-20 -161 m 1,0,-1
 156 668 l 1,1,-1
 363 668 l 1,2,-1
 348 593 l 1,3,-1
 224 593 l 1,4,-1
 79 -87 l 1,5,-1
 204 -87 l 1,6,-1
 188 -161 l 1,7,-1
 -20 -161 l 1,0,-1
EndSplineSet
EndChar

StartChar: backslash
Encoding: 92 92 115
Width: 519
GlyphClass: 1
Flags: W
HStem: 0 21G<347.216 442> 648 20G<95 189.784>
DStem2: 182 668 95 668 0.362716 -0.9319<0 685.259>
LayerCount: 2
Fore
SplineSet
355 0 m 1,0,-1
 95 668 l 1,1,-1
 182 668 l 1,2,-1
 442 0 l 1,3,-1
 355 0 l 1,0,-1
EndSplineSet
EndChar

StartChar: bracketright
Encoding: 93 93 116
Width: 317
GlyphClass: 1
Flags: W
HStem: -161 74<-47 78> 593 75<113 223>
DStem2: 62.2708 -161 145 -161 0.207912 0.978148<75.6532 770.941>
LayerCount: 2
Fore
SplineSet
-63 -161 m 1,0,-1
 -47 -87 l 1,1,-1
 78 -87 l 1,2,-1
 223 593 l 1,3,-1
 98 593 l 1,4,-1
 113 668 l 1,5,-1
 320 668 l 1,6,-1
 145 -161 l 1,7,-1
 -63 -161 l 1,0,-1
EndSplineSet
EndChar

StartChar: asciicircum
Encoding: 94 94 117
Width: 552
GlyphClass: 1
Flags: W
HStem: 569 99<182.5 357.5>
DStem2: 47 311 136 311 0.460099 0.887867<40.9488 331.672> 308 668 270 569 0.460099 -0.887867<70.4151 361.138>
LayerCount: 2
Fore
SplineSet
47 311 m 1,0,-1
 232 668 l 1,1,-1
 308 668 l 1,2,-1
 493 311 l 1,3,-1
 404 311 l 1,4,-1
 270 569 l 1,5,-1
 136 311 l 1,6,-1
 47 311 l 1,0,-1
EndSplineSet
EndChar

StartChar: underscore
Encoding: 95 95 118
Width: 413
GlyphClass: 1
Flags: W
HStem: -79 79<-32 344>
LayerCount: 2
Fore
SplineSet
-32 -79 m 1,0,-1
 -32 0 l 1,1,-1
 344 0 l 1,2,-1
 344 -79 l 1,3,-1
 -32 -79 l 1,0,-1
EndSplineSet
EndChar

StartChar: grave
Encoding: 96 96 119
Width: 272
GlyphClass: 1
Flags: W
HStem: 571 136<189.41 207.138>
VStem: 134 144
LayerCount: 2
Fore
SplineSet
210 571 m 1,0,1
 182 600 182 600 167.08594651 616.269876535 c 0,2,3
 149 636 149 636 142.881430891 644.565996753 c 0,4,5
 134 657 134 657 134 671.350425314 c 0,6,7
 134 690 134 690 148.842723305 700.093051847 c 0,8,9
 159 707 159 707 172.34046028 707 c 0,10,11
 192 707 192 707 205.546831491 687.526429731 c 0,12,13
 208 684 208 684 216.292216832 671.064141741 c 0,14,15
 233 645 233 645 252.015506539 613.551277647 c 0,16,17
 259 602 259 602 277.999998784 571.000001985 c 0,18,19
 277.999998784 571 277.999998784 571 210 571 c 1,0,1
EndSplineSet
EndChar

StartChar: exclam
Encoding: 33 33 120
Width: 284
GlyphClass: 1
Flags: W
HStem: -12 129<47.6822 136.38> 648 20G<172.723 268>
VStem: 27 129<8.54441 97.0185> 177 91<577 668>
LayerCount: 2
Fore
SplineSet
92.1512554008 -12 m 0,0,1
 66 -12 66 -12 47.0894567121 5.94077183723 c 0,2,3
 27 25 27 25 27 52.5562859919 c 0,4,5
 27 79 27 79 45.1122307447 97.6017504945 c 0,6,7
 64 117 64 117 91.1400197401 117 c 0,8,9
 118 117 118 117 136.975302817 98.0246971828 c 128,-1,10
 156 79 156 79 156 52.8182158064 c 0,11,12
 156 27 156 27 137.924419651 7.94736125343 c 0,13,14
 119 -12 119 -12 92.1512554008 -12 c 0,0,1
95 195 m 1,15,-1
 140 495 l 1,16,-1
 177 668 l 1,17,-1
 268 668 l 1,18,-1
 232 495 l 1,19,-1
 149 195 l 1,20,-1
 95 195 l 1,15,-1
EndSplineSet
EndChar

StartChar: quotedbl
Encoding: 34 34 121
Width: 334
GlyphClass: 1
Flags: W
HStem: 447 221<109 161 250 302>
VStem: 109 52<447 557.5> 250 52<447 557.5>
LayerCount: 2
Fore
SplineSet
109 447 m 1,0,-1
 95 668 l 1,1,-1
 175 668 l 1,2,-1
 161 447 l 1,3,-1
 109 447 l 1,0,-1
250 447 m 1,4,-1
 236 668 l 1,5,-1
 316 668 l 1,6,-1
 302 447 l 1,7,-1
 250 447 l 1,4,-1
EndSplineSet
EndChar

StartChar: numbersign
Encoding: 35 35 122
Width: 634
GlyphClass: 1
Flags: W
HStem: 0 21G<136 220.791 341 425.791> 172 81<48 161 254 365 459 571> 415 81<82 195 288 399 493 605> 648 20G<227.209 312 432.209 517>
VStem: 136 82<0 82> 230 82<586 668> 341 82<0 82> 435 82<586 668>
DStem2: 136 0 218 0 0.139346 0.990244<11.4263 173.806 266.974 419.173 512.341 674.581> 341 0 423 0 0.139346 0.990244<11.4263 173.666 266.974 419.033 512.341 674.581>
LayerCount: 2
Fore
SplineSet
254 253 m 1,0,-1
 377 253 l 1,1,-1
 399 415 l 1,2,-1
 276 415 l 1,3,-1
 254 253 l 1,0,-1
136 0 m 1,4,-1
 161 172 l 1,5,-1
 37 172 l 1,6,-1
 48 253 l 1,7,-1
 172 253 l 1,8,-1
 195 415 l 1,9,-1
 71 415 l 1,10,-1
 82 496 l 1,11,-1
 206 496 l 1,12,-1
 230 668 l 1,13,-1
 312 668 l 1,14,-1
 288 496 l 1,15,-1
 411 496 l 1,16,-1
 435 668 l 1,17,-1
 517 668 l 1,18,-1
 493 496 l 1,19,-1
 616 496 l 1,20,-1
 605 415 l 1,21,-1
 481 415 l 1,22,-1
 459 253 l 1,23,-1
 582 253 l 1,24,-1
 571 172 l 1,25,-1
 447 172 l 1,26,-1
 423 0 l 1,27,-1
 341 0 l 1,28,-1
 365 172 l 1,29,-1
 242 172 l 1,30,-1
 218 0 l 1,31,-1
 136 0 l 1,4,-1
EndSplineSet
EndChar

StartChar: dollar
Encoding: 36 36 123
Width: 610
GlyphClass: 1
Flags: W
HStem: -5 79<275 388.041> 608 80<230.312 335.772>
VStem: 88 95<450.284 565.173> 190 52<-80 -28> 366 52<698 750> 448 98<127.105 250.663>
DStem2: 190 -80 242 -80 0.207912 0.978148<10.8114 87.3284 169.649 403.469 493.86 703.321 785.694 848.455> 293 403 199.56 346.008 0.94747 -0.319846<-106.213 0 61.0363 180.644>
LayerCount: 2
Fore
SplineSet
291 74 m 0,0,1
 335 74 335 74 369.385089445 87.2628202144 c 0,2,3
 405 101 405 101 425.402345585 126.147077117 c 0,4,5
 448 154 448 154 448 191.486341632 c 0,6,7
 448 224 448 224 429.167135796 247.26412637 c 0,8,9
 414 266 414 266 380.806841566 282.003844245 c 0,10,11
 358 293 358 293 324 304 c 1,12,-1
 275 75 l 1,13,14
 280 74 280 74 291 74 c 0,0,1
293 403 m 1,15,-1
 336 608 l 1,16,17
 299 611 299 611 265.176419978 600.995842529 c 0,18,19
 228 590 228 590 207.247920039 568.325605374 c 0,20,21
 183 543 183 543 183 505.76961179 c 0,22,23
 183 463 183 463 222.100656467 435.507350922 c 0,24,25
 247 418 247 418 293 403 c 1,15,-1
190 -80 m 1,26,-1
 208 4 l 1,27,28
 150 18 150 18 107.452070944 52.2233342406 c 0,29,30
 58 92 58 92 37 153 c 1,31,-1
 128 179 l 1,32,33
 140 143 140 143 169.286715732 117.581341063 c 0,34,35
 193 97 193 97 225 86 c 1,36,-1
 275 319 l 1,37,38
 229 333 229 333 199.560481902 346.00815916 c 0,39,40
 143 371 143 371 117.142557211 404.379607963 c 0,41,42
 88 442 88 442 88 500.906856928 c 0,43,44
 88 565 88 565 125.68280102 609.782459183 c 0,45,46
 157 647 157 647 213.129917731 668.113088321 c 0,47,48
 266 688 266 688 333 688 c 0,49,50
 346 688 346 688 353 687 c 1,51,-1
 366 750 l 1,52,-1
 418 750 l 1,53,-1
 403 679 l 1,54,55
 456 667 456 667 495.852684898 640.12260786 c 0,56,57
 542 609 542 609 563 563 c 1,58,-1
 471 537 l 1,59,60
 459 560 459 560 436.13683676 576.108137738 c 0,61,62
 415 591 415 591 386 599 c 1,63,-1
 341 388 l 1,64,65
 378 377 378 377 404.233744282 367.162345894 c 0,66,67
 450 350 450 350 477.557662066 331.628225289 c 0,68,69
 510 310 510 310 526.65342402 281.781698188 c 0,70,71
 546 249 546 249 546 203.025733098 c 0,72,73
 546 154 546 154 522.75582432 112.794415841 c 0,74,75
 502 76 502 76 463.648169238 48.5317968869 c 0,76,77
 428 23 428 23 382.1792825 9.05456423917 c 0,78,79
 336 -5 336 -5 280 -5 c 0,80,81
 266 -5 266 -5 258 -4 c 1,82,-1
 242 -80 l 1,83,-1
 190 -80 l 1,26,-1
EndSplineSet
EndChar

StartChar: percent
Encoding: 37 37 124
Width: 1000
GlyphClass: 1
Flags: W
HStem: -12 74<678.911 808.901> 0 21G<231 333.012> 277 74<696.921 827.36> 317 74<190.911 320.901> 606 74<208.921 339.36> 648 20G<684.988 787>
VStem: 82 74<426.088 554.155> 231 88<0 88> 373 75<443.386 572.475> 570 74<97.0877 225.155> 699 88<580 668> 861 75<114.386 243.475>
DStem2: 231 0 319 0 0.573791 0.819001<50.4936 815.627>
LayerCount: 2
Fore
SplineSet
741.863503543 62 m 0,0,1
 774 62 774 62 801.810352295 78.9952152912 c 0,2,3
 828 95 828 95 843.770037735 121.283396225 c 0,4,5
 861 150 861 150 861 182.253055504 c 0,6,7
 861 223 861 223 833.582084674 249.919407774 c 128,-1,8
 806 277 806 277 764.725675869 277 c 0,9,10
 733 277 733 277 704.978118986 260.696360137 c 0,11,12
 678 245 678 245 661.697938414 219.108490422 c 0,13,14
 644 191 644 191 644 158.66789346 c 0,15,16
 644 118 644 118 671.797175135 90.2028248652 c 0,17,18
 700 62 700 62 741.863503543 62 c 0,0,1
733.92721386 -12 m 0,19,20
 687 -12 687 -12 649.012483349 10.0738272429 c 0,21,22
 613 31 613 31 591.993880555 67.1500660215 c 0,23,24
 570 105 570 105 570 151.985656716 c 0,25,26
 570 205 570 205 598.686284326 251.61521203 c 0,27,28
 626 296 626 296 671.284456726 322.781130322 c 0,29,30
 719 351 719 351 772.393997173 351 c 0,31,32
 819 351 819 351 857.114556403 328.85235236 c 0,33,34
 893 308 893 308 913.876415011 272.558644283 c 0,35,36
 936 235 936 235 936 188.161524677 c 0,37,38
 936 135 936 135 906.583937497 87.5214429779 c 0,39,40
 879 43 879 43 834.424351251 16.3515143347 c 0,41,42
 787 -12 787 -12 733.92721386 -12 c 0,19,20
253.863503543 391 m 0,43,44
 286 391 286 391 313.810352295 407.995215291 c 0,45,46
 340 424 340 424 355.770037735 450.283396225 c 0,47,48
 373 479 373 479 373 511.253055504 c 0,49,50
 373 552 373 552 345.582084674 578.919407774 c 128,-1,51
 318 606 318 606 276.725675869 606 c 0,52,53
 245 606 245 606 216.978118986 589.696360137 c 0,54,55
 190 574 190 574 173.697938414 548.108490422 c 0,56,57
 156 520 156 520 156 487.66789346 c 0,58,59
 156 447 156 447 183.797175135 419.202824865 c 0,60,61
 212 391 212 391 253.863503543 391 c 0,43,44
231 0 m 1,62,-1
 699 668 l 1,63,-1
 787 668 l 1,64,-1
 319 0 l 1,65,-1
 231 0 l 1,62,-1
245.92721386 317 m 0,66,67
 199 317 199 317 161.012483349 339.073827243 c 0,68,69
 125 360 125 360 103.993880555 396.150066021 c 0,70,71
 82 434 82 434 82 480.985656716 c 0,72,73
 82 534 82 534 110.686284326 580.61521203 c 0,74,75
 138 625 138 625 183.284456726 651.781130322 c 0,76,77
 231 680 231 680 284.393997173 680 c 0,78,79
 331 680 331 680 369.114556403 657.85235236 c 0,80,81
 405 637 405 637 425.876415011 601.558644283 c 0,82,83
 448 564 448 564 448 517.161524677 c 0,84,85
 448 464 448 464 418.583937497 416.521442978 c 0,86,87
 391 372 391 372 346.424351251 345.351514335 c 0,88,89
 299 317 299 317 245.92721386 317 c 0,66,67
EndSplineSet
EndChar

StartChar: ampersand
Encoding: 38 38 125
Width: 691
GlyphClass: 1
Flags: W
HStem: -12 78<135.913 311.209> 0 21G<492.116 619> 609 70<300.83 435.18>
VStem: 15 86<99.988 238.982> 182 88<447.806 578.767> 454 83<485.666 587.367>
DStem2: 351 362 263 333 0.595015 -0.803714<0 174.997 276.567 383.767>
LayerCount: 2
Fore
SplineSet
216.221598893 66 m 0,0,1
 265 66 265 66 314.03413812 89.1397056295 c 0,2,3
 354 108 354 108 400 145 c 1,4,-1
 263 333 l 1,5,6
 193 311 193 311 151.488353356 273.09806176 c 0,7,8
 101 227 101 227 101 164.765737144 c 0,9,10
 101 116 101 116 132.989145589 90.2023019443 c 0,11,12
 163 66 163 66 216.221598893 66 c 0,0,1
312 416 m 1,13,14
 348 428 348 428 375.958880134 443.054781611 c 0,15,16
 413 463 413 463 432.405799278 485.718984521 c 0,17,18
 454 511 454 511 454 539.895595093 c 0,19,20
 454 567 454 567 437.650149987 585.070886857 c 0,21,22
 416 609 416 609 371.033277377 609 c 128,-1,23
 326 609 326 609 298.422215224 585.361898764 c 0,24,25
 270 561 270 561 270 519.40585445 c 0,26,27
 270 496 270 496 280.745786638 469.732521553 c 0,28,29
 288 452 288 452 302.167072161 431.761325485 c 0,30,31
 309 422 309 422 312 416 c 1,13,14
206.473174212 -12 m 0,32,33
 141 -12 141 -12 96.0884550019 13.1290787489 c 0,34,35
 57 35 57 35 35.6150105205 75.2241468781 c 0,36,37
 15 114 15 114 15 160.641946211 c 0,38,39
 15 215 15 215 44.7145931385 262.755596115 c 0,40,41
 71 305 71 305 118.907002264 338.636831377 c 0,42,43
 165 371 165 371 222 389 c 1,44,45
 204 418 204 418 193.960603557 446.749180722 c 0,46,47
 182 481 182 481 182 515.139234206 c 0,48,49
 182 564 182 564 206.894013227 602.10308147 c 0,50,51
 231 639 231 639 274.240629846 659.111920859 c 0,52,53
 317 679 317 679 370.941453639 679 c 0,54,55
 417 679 417 679 453.746501006 664.791352944 c 0,56,57
 492 650 492 650 513.113257925 623.725723471 c 0,58,59
 537 594 537 594 537 549.19367522 c 0,60,61
 537 502 537 502 507.920535834 463.0444914 c 0,62,63
 484 431 484 431 434.489757328 401.87632784 c 0,64,65
 399 381 399 381 351 362 c 1,66,-1
 456 222 l 1,67,68
 478 248 478 248 496.52720587 282.204072375 c 0,69,70
 517 320 517 320 529 360 c 1,71,-1
 616 360 l 1,72,73
 600 307 600 307 566.416444065 249.192239784 c 0,74,75
 539 202 539 202 503 157 c 1,76,-1
 619 0 l 1,77,-1
 507 0 l 1,78,-1
 443 86 l 1,79,80
 391 41 391 41 339.528135025 17.2781839679 c 0,81,82
 276 -12 276 -12 206.473174212 -12 c 0,32,33
EndSplineSet
EndChar

StartChar: quotesingle
Encoding: 39 39 126
Width: 193
GlyphClass: 1
Flags: W
HStem: 447 221<109 161>
VStem: 109 52<447 557.5>
LayerCount: 2
Fore
SplineSet
109 447 m 1,0,-1
 95 668 l 1,1,-1
 175 668 l 1,2,-1
 161 447 l 1,3,-1
 109 447 l 1,0,-1
EndSplineSet
EndChar

StartChar: parenleft
Encoding: 40 40 127
Width: 301
GlyphClass: 1
Flags: W
HStem: -162 21G<77 170> 648 20G<202.5 337>
VStem: 29 80<-39.2365 291.686>
LayerCount: 2
Fore
SplineSet
93 -162 m 1,0,1
 61 -88 61 -88 44.9448269302 -14.2465487104 c 0,2,3
 29 59 29 59 29 132.539323416 c 0,4,5
 29 274 29 274 89.0294135279 411.864161577 c 0,6,7
 147 545 147 545 258 668 c 1,8,-1
 337 668 l 1,9,10
 270 586 270 586 222.924377746 506.474191533 c 0,11,12
 167 412 167 412 139.332032553 323.271690602 c 0,13,14
 109 226 109 226 109 126.776522042 c 0,15,16
 109 57 109 57 123.894542277 -13.9973181849 c 0,17,18
 139 -86 139 -86 170 -162 c 1,19,-1
 93 -162 l 1,0,1
EndSplineSet
EndChar

StartChar: parenright
Encoding: 41 41 128
Width: 302
GlyphClass: 1
Flags: W
HStem: -162 21G<-53 83> 648 20G<115 224>
VStem: 176 80<216.411 545.233>
LayerCount: 2
Fore
SplineSet
-53 -162 m 1,0,1
 14 -80 14 -80 61.1761189028 -0.304420494257 c 0,2,3
 117 94 117 94 145.020629271 182.811147011 c 0,4,5
 176 281 176 281 176 381.347696589 c 0,6,7
 176 450 176 450 162.085321153 518.133944698 c 0,8,9
 147 592 147 592 115 668 c 1,10,-1
 192 668 l 1,11,12
 256 522 256 522 256 374.561793814 c 0,13,14
 256 233 256 233 195.806760455 94.2494817274 c 0,15,16
 138 -39 138 -39 28 -162 c 1,17,-1
 -53 -162 l 1,0,1
EndSplineSet
EndChar

StartChar: asterisk
Encoding: 42 42 129
Width: 439
GlyphClass: 1
Flags: W
HStem: 373 294
VStem: 106 289
DStem2: 135 615 106 566 0.866499 -0.499179<0 105.506> 119 442 157 399 0.743762 0.668444<0 105.737> 186.827 373 245.377 373 0.207912 0.978148<193.222 300.407> 289 493 236 470 0.413095 -0.910688<0 105.565> 283 550 289 493 0.993653 0.112489<0 105.571>
LayerCount: 2
Fore
SplineSet
280 373 m 1,0,-1
 236 470 l 1,1,-1
 157 399 l 1,2,-1
 119 442 l 1,3,-1
 198 513 l 1,4,-1
 106 566 l 1,5,-1
 135 615 l 1,6,-1
 227 562 l 1,7,-1
 249 667 l 1,8,-1
 305 655 l 1,9,-1
 283 550 l 1,10,-1
 388 561 l 1,11,-1
 395 505 l 1,12,-1
 289 493 l 1,13,-1
 332 396 l 1,14,-1
 280 373 l 1,0,-1
EndSplineSet
EndChar

StartChar: plus
Encoding: 43 43 130
Width: 619
GlyphClass: 1
Flags: W
HStem: 0 21G<250 330> 208 80<42 250 330 538> 476 20G<250 330>
VStem: 250 80<0 208 288 496>
LayerCount: 2
Fore
SplineSet
250 0 m 1,0,-1
 250 208 l 1,1,-1
 42 208 l 1,2,-1
 42 288 l 1,3,-1
 250 288 l 1,4,-1
 250 496 l 1,5,-1
 330 496 l 1,6,-1
 330 288 l 1,7,-1
 538 288 l 1,8,-1
 538 208 l 1,9,-1
 330 208 l 1,10,-1
 330 0 l 1,11,-1
 250 0 l 1,0,-1
EndSplineSet
EndChar

StartChar: comma
Encoding: 44 44 131
Width: 209
GlyphClass: 1
Flags: W
HStem: -134 250
VStem: -44 61<-134 -73> -11 129<2.95465 94.2146>
DStem2: -44 -134 17 -134 0.516281 0.856419<31.4931 146.29>
LayerCount: 2
Fore
SplineSet
-44 -134 m 1,0,-1
 32 -9 l 1,1,2
 -11 7 -11 7 -11 50.8510639383 c 0,3,4
 -11 80 -11 80 8.98526203453 98.933406138 c 0,5,6
 27 116 27 116 53.4101322317 116 c 0,7,8
 82 116 82 116 101.076630155 94.8037442726 c 0,9,10
 118 76 118 76 118 51.103760583 c 0,11,12
 118 39 118 39 113.305355491 27.8502192922 c 0,13,14
 110 20 110 20 102 7 c 2,15,-1
 17 -134 l 1,16,-1
 -44 -134 l 1,0,-1
EndSplineSet
EndChar

StartChar: hyphen
Encoding: 45 45 132
Width: 372
GlyphClass: 1
Flags: W
HStem: 208 81<49 323>
VStem: 31 310
LayerCount: 2
Fore
SplineSet
31 208 m 1,0,-1
 49 289 l 1,1,-1
 341 289 l 1,2,-1
 323 208 l 1,3,-1
 31 208 l 1,0,-1
EndSplineSet
EndChar

StartChar: period
Encoding: 46 46 133
Width: 208
GlyphClass: 1
Flags: W
HStem: -12 129<18.6887 108.324>
VStem: -1 129<7.68325 97.4846>
LayerCount: 2
Fore
SplineSet
63.5 -12 m 128,-1,1
 37 -12 37 -12 17.9095217578 7.09047824218 c 128,-1,2
 -1 26 -1 26 -1 52.4683763245 c 128,-1,3
 -1 79 -1 79 18.0961431207 98.0961431207 c 128,-1,4
 37 117 37 117 63.4663913252 117 c 128,-1,5
 90 117 90 117 108.917233271 98.0827667287 c 128,-1,6
 128 79 128 79 128 52.4712032359 c 128,-1,7
 128 26 128 26 109.005164491 7.00516449057 c 128,-1,0
 90 -12 90 -12 63.5 -12 c 128,-1,1
EndSplineSet
EndChar

StartChar: slash
Encoding: 47 47 134
Width: 371
GlyphClass: 1
Flags: W
HStem: 0 21G<-50 49.0359> 648 20G<339.964 439>
VStem: -50 87<0 87> 352 87<581 668>
DStem2: -50 0 37 0 0.515627 0.856813<44.8596 779.633>
LayerCount: 2
Fore
SplineSet
-50 0 m 1,0,-1
 352 668 l 1,1,-1
 439 668 l 1,2,-1
 37 0 l 1,3,-1
 -50 0 l 1,0,-1
EndSplineSet
EndChar

StartChar: braceleft
Encoding: 123 123 135
Width: 322
GlyphClass: 1
Flags: W
HStem: -162 71<128.542 192> 220 67<37 73.1856> 596 72<266.302 353>
DStem2: 11.8798 -162 99.0923 -162 0.207912 0.978148<103.72 371.326 477.745 780.97>
LayerCount: 2
Fore
SplineSet
149 -162 m 2,0,1
 67 -162 67 -162 44.6928561541 -128.008161759 c 0,2,3
 25 -98 25 -98 41 -25 c 2,4,-1
 73 125 l 2,5,6
 82 168 82 168 77.3415941593 188.18642531 c 0,7,8
 70 220 70 220 23 220 c 1,9,-1
 37 287 l 1,10,11
 84 287 84 287 105.194311109 318.48869079 c 0,12,13
 119 339 119 339 128 382 c 2,14,-1
 163 545 l 2,15,16
 173 592 173 592 188.345913979 617.111495603 c 0,17,18
 206 646 206 646 238.681828808 657.412702123 c 0,19,20
 269 668 269 668 325 668 c 2,21,-1
 368 668 l 1,22,-1
 353 596 l 1,23,-1
 311 596 l 2,24,25
 278 596 278 596 265.919303639 582.868808303 c 0,26,27
 255 571 255 571 247 533 c 2,28,-1
 214 380 l 2,29,30
 201 317 201 317 167.576738272 285.922230323 c 0,31,32
 144 264 144 264 106 254 c 1,33,-1
 106 253 l 1,34,35
 141 243 141 243 154.864900636 219.602980177 c 0,36,37
 173 189 173 189 160 127 c 2,38,-1
 128 -26 l 2,39,40
 119 -69 119 -69 128.296171467 -81.0303395451 c 0,41,42
 136 -91 136 -91 165 -91 c 2,43,-1
 207 -91 l 1,44,-1
 192 -162 l 1,45,-1
 149 -162 l 2,0,1
EndSplineSet
EndChar

StartChar: bar
Encoding: 124 124 136
Width: 289
GlyphClass: 1
Flags: W
HStem: -161 21G<96 177> 648 20G<96 177>
VStem: 96 81<-161 668>
LayerCount: 2
Fore
SplineSet
96 -161 m 1,0,-1
 96 668 l 1,1,-1
 177 668 l 1,2,-1
 177 -161 l 1,3,-1
 96 -161 l 1,0,-1
EndSplineSet
EndChar

StartChar: braceright
Encoding: 125 125 137
Width: 322
GlyphClass: 1
Flags: W
HStem: -163 72<-47 39.6981> 218 67<233.433 269> 596 71<114 178.286>
DStem2: 30.3049 -163 116.856 -163 0.207912 0.978148<85.7432 388.126 496.515 763.189>
LayerCount: 2
Fore
SplineSet
-62 -163 m 1,0,-1
 -47 -91 l 1,1,-1
 -5 -91 l 2,2,3
 28 -91 28 -91 40.0806963613 -77.868808303 c 0,4,5
 51 -66 51 -66 59 -28 c 2,6,-1
 92 125 l 2,7,8
 106 188 106 188 138.512336119 218.770603827 c 0,9,10
 162 241 162 241 200 251 c 1,11,-1
 200 252 l 1,12,13
 165 263 165 263 151.287180447 285.711857385 c 0,14,15
 133 316 133 316 146 378 c 2,16,-1
 181 542 l 2,17,18
 188 575 188 575 178.558943288 586.014566164 c 0,19,20
 170 596 170 596 141 596 c 2,21,-1
 99 596 l 1,22,-1
 114 667 l 1,23,-1
 157 667 l 2,24,25
 239 667 239 667 261.191607218 633.712589174 c 0,26,27
 281 604 281 604 265 530 c 2,28,-1
 233 380 l 2,29,30
 224 337 224 337 229.146184331 316.415262674 c 0,31,32
 237 285 237 285 283 285 c 1,33,-1
 269 218 l 1,34,35
 223 218 223 218 201.468142688 186.898428328 c 0,36,37
 187 166 187 166 178 123 c 2,38,-1
 143 -40 l 2,39,40
 133 -87 133 -87 117.654086021 -112.111495603 c 0,41,42
 100 -141 100 -141 67.3181711921 -152.412702123 c 0,43,44
 37 -163 37 -163 -19 -163 c 2,45,-1
 -62 -163 l 1,0,-1
EndSplineSet
EndChar

StartChar: asciitilde
Encoding: 126 126 138
Width: 539
GlyphClass: 1
Flags: W
HStem: 195 73<288.765 412.151> 249 74<118.215 246.163>
DStem2: 255.224 303.52 250.08 225.705 0.930033 -0.367477<-65.4996 113.755>
LayerCount: 2
Fore
SplineSet
364.472949412 195 m 0,0,1
 328 195 328 195 272.091939316 216.877067224 c 0,2,3
 259 222 259 222 250.080177818 225.705156906 c 0,4,5
 194 249 194 249 162.254508572 249 c 0,6,7
 139 249 139 249 122.937434486 237.189290063 c 0,8,9
 105 224 105 224 100 199 c 1,10,-1
 25 221 l 1,11,12
 36 267 36 267 70.9669822815 294.196541774 c 0,13,14
 108 323 108 323 164.986412652 323 c 0,15,16
 204 323 204 323 255.224163063 303.520388694 c 0,17,18
 275 296 275 296 290.9583579 288.792999658 c 0,19,20
 337 268 337 268 364.363562874 268 c 0,21,22
 386 268 386 268 402.27304004 280.08854403 c 0,23,24
 421 294 421 294 426 319 c 1,25,-1
 500 297 l 1,26,27
 489 251 489 251 453.784275435 223.609992005 c 0,28,29
 417 195 417 195 364.472949412 195 c 0,0,1
EndSplineSet
EndChar

StartChar: exclamdown
Encoding: 161 161 139
Width: 283
GlyphClass: 1
Flags: W
HStem: -161 21G<0 95.2775> 390 129<131.682 221.399>
VStem: 0 91<-161 -70> 112 129<409.59 499.313>
LayerCount: 2
Fore
SplineSet
0 -161 m 1,0,-1
 37 12 l 1,1,-1
 119 311 l 1,2,-1
 174 311 l 1,3,-1
 128 12 l 1,4,-1
 91 -161 l 1,5,-1
 0 -161 l 1,0,-1
176.5 390 m 128,-1,7
 150 390 150 390 131.088786986 408.911213014 c 128,-1,8
 112 428 112 428 112 454.530886496 c 128,-1,9
 112 481 112 481 130.905673656 499.905673656 c 128,-1,10
 150 519 150 519 176.532808717 519 c 128,-1,11
 203 519 203 519 222.084593916 499.915406084 c 128,-1,12
 241 481 241 481 241 454.52956241 c 128,-1,13
 241 428 241 428 221.994704031 408.994704031 c 128,-1,6
 203 390 203 390 176.5 390 c 128,-1,7
EndSplineSet
EndChar

StartChar: cent
Encoding: 162 162 140
Width: 492
GlyphClass: 1
Flags: W
HStem: -12 73<240 314.282> 427 74<332 365.978>
VStem: 25 91<108.512 312.65> 157 51<-87 -36> 297 50<521 571>
DStem2: 25.9841 218.778 116.89 220.013 0.0936747 0.995603<-12.7137 132.32> 157 -87 208 -87 0.207912 0.978148<10.6035 80.8082 162.023 526.616 611.535 672.729>
LayerCount: 2
Fore
SplineSet
190 68 m 1,0,-1
 267 428 l 1,1,2
 222 421 222 421 188.680760248 390.958062518 c 0,3,4
 161 366 161 366 142.28152173 323.608152154 c 0,5,6
 127 289 127 289 120.490307497 249.941844983 c 0,7,8
 118 235 118 235 116.889848137 220.012949847 c 0,9,10
 116 208 116 208 116 197.200976819 c 0,11,12
 116 150 116 150 131.578555919 118.842888162 c 0,13,14
 150 82 150 82 190 68 c 1,0,-1
157 -87 m 1,15,-1
 174 -8 l 1,16,17
 103 5 103 5 63.8120106804 57.7530625456 c 0,18,19
 25 110 25 110 25 191.860174572 c 0,20,21
 25 205 25 205 25.9841489272 218.778084981 c 0,22,23
 27 233 27 233 29.4173300132 248.805619317 c 0,24,25
 40 318 40 318 72.5951440614 373.460394373 c 0,26,27
 107 432 107 432 159.058158147 465.083689289 c 0,28,29
 214 500 214 500 283 503 c 1,30,-1
 297 571 l 1,31,-1
 347 571 l 1,32,-1
 332 501 l 1,33,34
 436 486 436 486 480 392 c 1,35,-1
 397 364 l 1,36,37
 389 389 389 389 367.732833477 405.709916554 c 0,38,39
 347 422 347 422 318 427 c 1,40,-1
 240 61 l 1,41,42
 280 62 280 62 311.970489997 80.6494524982 c 0,43,44
 340 97 340 97 362 127 c 1,45,-1
 433 98 l 1,46,47
 400 43 400 43 341.167515489 14.3787913191 c 0,48,49
 289 -11 289 -11 224 -12 c 1,50,-1
 208 -87 l 1,51,-1
 157 -87 l 1,15,-1
EndSplineSet
EndChar

StartChar: sterling
Encoding: 163 163 141
Width: 585
GlyphClass: 1
Flags: W
HStem: -12 78<278.916 475.185> 25 77<111.806 282.717> 317 51<86 172 276 457> 608 71<295.709 464.873>
VStem: 153 90<368.888 558.705> 192 90<190.077 316.514>
DStem2: 253.808 409.542 159.704 417.869 0.234167 -0.972196<-70.0188 21.23 95.1653 125.455> 278.436 87.7424 267.973 7.97284 0.952245 -0.305335<-65.8242 96.3338>
LayerCount: 2
Fore
SplineSet
35 -12 m 1,0,-1
 22 55 l 1,1,2
 39 61 39 61 60.9570457404 73.5468832802 c 0,3,4
 95 93 95 93 119.588185923 114.620646243 c 0,5,6
 153 144 153 144 170.80398433 177.325406566 c 0,7,8
 192 217 192 217 192 264.697131383 c 0,9,10
 192 294 192 294 184 317 c 1,11,-1
 75 317 l 1,12,-1
 86 368 l 1,13,-1
 172 368 l 1,14,15
 164 396 164 396 159.704261875 417.869212274 c 0,16,17
 153 452 153 452 153 483.167639446 c 0,18,19
 153 537 153 537 174.505615336 577.323028756 c 0,20,21
 193 612 193 612 228.17482167 636.149877564 c 0,22,23
 260 658 260 658 303.962612719 669.123070688 c 0,24,25
 343 679 343 679 386.495589718 679 c 0,26,27
 466 679 466 679 518.856989334 646.994850495 c 0,28,29
 575 613 575 613 591 549 c 1,30,-1
 508 526 l 1,31,32
 491 574 491 574 461.080927559 591.846464263 c 0,33,34
 434 608 434 608 388.525688849 608 c 0,35,36
 351 608 351 608 322.262347194 598.27340982 c 0,37,38
 286 586 286 586 266.654963903 561.256349178 c 0,39,40
 243 531 243 531 243 479.833739271 c 0,41,42
 243 452 243 452 253.807590785 409.541607629 c 0,43,44
 257 397 257 397 265 368 c 1,45,-1
 468 368 l 1,46,-1
 457 317 l 1,47,-1
 276 317 l 1,48,49
 279 309 279 309 280.553639934 297.088760503 c 0,50,51
 282 286 282 286 282 273.63229206 c 0,52,53
 282 209 282 209 235.938472159 155.941784386 c 0,54,55
 203 118 203 118 150 90 c 1,56,57
 168 97 168 97 186.071484726 99.914755601 c 0,58,59
 199 102 199 102 212.972342376 102 c 0,60,61
 242 102 242 102 278.435997771 87.7424356548 c 0,62,63
 288 84 288 84 294.762294692 81.5655739108 c 0,64,65
 338 66 338 66 373.749512434 66 c 0,66,67
 395 66 395 66 419.471742623 70.8069494438 c 0,68,69
 451 77 451 77 487 91 c 1,70,-1
 497 18 l 1,71,72
 455 1 455 1 420.046166631 -6.21269577457 c 0,73,74
 392 -12 392 -12 364.383196207 -12 c 0,75,76
 329 -12 329 -12 277.304846252 4.93461933115 c 0,77,78
 271 7 271 7 267.973373913 7.9728440995 c 0,79,80
 215 25 215 25 176.434565125 25 c 0,81,82
 150 25 150 25 119.967760842 17.9335907863 c 0,83,84
 82 9 82 9 35 -12 c 1,0,-1
EndSplineSet
EndChar

StartChar: currency
Encoding: 164 164 142
Width: 666
GlyphClass: 1
Flags: W
HStem: 103 75<263.58 414.727> 463 76<263.905 414.272>
VStem: 121 76<244.992 396.537> 481 76<244.592 396.352>
DStem2: 138 558 102 522 0.7063 -0.707913<0.0580521 96.7008 523.351 619.483> 102 119 138 84 0.7063 0.707913<0.649861 96.9586 523.732 620.075>
LayerCount: 2
Fore
SplineSet
339.5 178 m 128,-1,1
 379 178 379 178 412.121012866 198.183117215 c 0,2,3
 443 217 443 217 461.348890226 248.386259598 c 0,4,5
 481 282 481 282 481 321.328516867 c 0,6,7
 481 360 481 360 461.443464451 392.937323029 c 0,8,9
 443 424 443 424 412.651972425 442.493329304 c 0,10,11
 379 463 379 463 339.002960532 463 c 0,12,13
 300 463 300 463 266.464243927 442.878546356 c 0,14,15
 235 424 235 424 216.635587128 393.070462532 c 0,16,17
 197 360 197 360 197 320.679187284 c 0,18,19
 197 282 197 282 216.328797838 248.937582646 c 0,20,21
 235 217 235 217 266.414427538 198.151343477 c 0,22,0
 300 178 300 178 339.5 178 c 128,-1,1
138 84 m 1,23,-1
 102 119 l 1,24,-1
 168 185 l 1,25,26
 121 246 121 246 121 319.739887334 c 0,27,28
 121 357 121 357 132.934440596 391.808785071 c 0,29,30
 145 427 145 427 168 456 c 1,31,-1
 102 522 l 1,32,-1
 138 558 l 1,33,-1
 204 492 l 1,34,35
 234 516 234 516 269.82889181 527.942963937 c 0,36,37
 303 539 303 539 338.646490803 539 c 0,38,39
 375 539 375 539 408.322279458 528.051251035 c 0,40,41
 445 516 445 516 474 492 c 1,42,-1
 540 558 l 1,43,-1
 576 522 l 1,44,-1
 510 456 l 1,45,46
 534 427 534 427 546.07927707 390.236982832 c 0,47,48
 557 357 557 357 557 321.465137898 c 0,49,50
 557 285 557 285 545.97655732 251.450391843 c 0,51,52
 534 215 534 215 510 185 c 1,53,-1
 576 119 l 1,54,-1
 540 84 l 1,55,-1
 474 149 l 1,56,57
 445 126 445 126 408.862435944 114.126228953 c 0,58,59
 375 103 375 103 339.297368948 103 c 0,60,61
 303 103 303 103 269.119349801 114.293550066 c 0,62,63
 234 126 234 126 204 149 c 1,64,-1
 138 84 l 1,23,-1
EndSplineSet
EndChar

StartChar: yen
Encoding: 165 165 143
Width: 598
GlyphClass: 1
Flags: W
HStem: 0 21G<178 279.186> 86 51<58 196 304 439> 223 51<87 218 352 468> 648 20G<90 192.195 538.484 668>
VStem: 90 96<572 668> 554 114<554 668>
DStem2: 186 668 90 668 0.308977 -0.95107<0 354.855> 178 0 275 0 0.207912 0.978148<20.1674 87.8631 160.203 227.899> 291 329 352 274 0.62566 0.780096<0 429.001>
LayerCount: 2
Fore
SplineSet
178 0 m 1,0,-1
 196 86 l 1,1,-1
 47 86 l 1,2,-1
 58 137 l 1,3,-1
 207 137 l 1,4,-1
 225 223 l 1,5,-1
 76 223 l 1,6,-1
 87 274 l 1,7,-1
 218 274 l 1,8,-1
 90 668 l 1,9,-1
 186 668 l 1,10,-1
 291 329 l 1,11,-1
 554 668 l 1,12,-1
 668 668 l 1,13,-1
 352 274 l 1,14,-1
 479 274 l 1,15,-1
 468 223 l 1,16,-1
 322 223 l 1,17,-1
 304 137 l 1,18,-1
 450 137 l 1,19,-1
 439 86 l 1,20,-1
 293 86 l 1,21,-1
 275 0 l 1,22,-1
 178 0 l 1,0,-1
EndSplineSet
EndChar

StartChar: brokenbar
Encoding: 166 166 144
Width: 289
GlyphClass: 1
Flags: W
HStem: -161 21G<96 177> 648 20G<96 177>
VStem: 96 81<-161 149 358 668>
LayerCount: 2
Fore
SplineSet
96 -161 m 1,0,-1
 96 149 l 1,1,-1
 177 149 l 1,2,-1
 177 -161 l 1,3,-1
 96 -161 l 1,0,-1
96 358 m 1,4,-1
 96 668 l 1,5,-1
 177 668 l 1,6,-1
 177 358 l 1,7,-1
 96 358 l 1,4,-1
EndSplineSet
EndChar

StartChar: section
Encoding: 167 167 145
Width: 526
GlyphClass: 1
Flags: W
HStem: -174 72<69.0866 216.298> 612 68<292.02 437.546>
VStem: 39 86<226.433 329.922> 178 87<491.047 586.276> 251 89<-69.9267 34.5313> 397 90<188.509 292.557>
DStem2: 169.975 205.519 103.004 141.526 0.782064 -0.623198<-74.254 136.113> 321.889 461.394 260 391 0.780828 -0.624746<-20.272 185.73>
LayerCount: 2
Fore
SplineSet
265.999999363 129.000000526 m 1,0,1
 331 149 331 149 364.748906216 178.146782641 c 0,2,3
 397 206 397 206 397 239.222383833 c 0,4,5
 397 281 397 281 340.593612668 328.308582924 c 0,6,7
 335 333 335 333 313.738675819 349.40159294 c 0,8,9
 300 360 300 360 286.447358458 370.588001204 c 0,10,11
 268 385 268 385 260 391 c 1,12,13
 224 384 224 384 192.541033727 366.240906136 c 0,14,15
 162 349 162 349 144.546727905 327.301337396 c 0,16,17
 125 303 125 303 125 277.663371243 c 0,18,19
 125 260 125 260 133.820424699 243.751849239 c 0,20,21
 144 225 144 225 169.975130817 205.518651887 c 0,22,23
 176 201 176 201 189.265626878 190.146305282 c 0,24,25
 209 174 209 174 227.703381598 159.697414072 c 0,26,27
 243 148 243 148 265.999999363 129.000000526 c 1,0,1
136.92899719 -174 m 0,28,29
 65 -174 65 -174 16.9443356541 -141.625657704 c 0,30,31
 -30 -110 -30 -110 -43 -55 c 1,32,-1
 43 -32 l 1,33,34
 48 -69 48 -69 80.188803912 -87.6356233175 c 0,35,36
 105 -102 105 -102 139.859325659 -102 c 0,37,38
 183 -102 183 -102 213.950501277 -81.9732050559 c 0,39,40
 251 -58 251 -58 251 -18.2063759987 c 0,41,42
 251 17 251 17 211.037451703 54.2065104831 c 0,43,44
 193 71 193 71 157.471049629 98.140170422 c 0,45,46
 121 126 121 126 103.004484355 141.525542909 c 0,47,48
 70 170 70 170 55.6760187578 193.565259463 c 0,49,50
 39 221 39 221 39 259.407001942 c 0,51,52
 39 305 39 305 63.5925203955 343.19689338 c 0,53,54
 86 378 86 378 126.940204746 402.356830672 c 0,55,56
 165 425 165 425 213 435 c 1,57,58
 196 452 196 452 186.955444453 474.611388869 c 0,59,60
 178 497 178 497 178 521.888196448 c 0,61,62
 178 560 178 560 197.884593742 594.087874985 c 0,63,64
 220 632 220 632 257.654349608 653.776009412 c 0,65,66
 303 680 303 680 364.204829854 680 c 0,67,68
 402 680 402 680 435.464530822 670.5733716 c 0,69,70
 473 660 473 660 497.694940593 640.792823983 c 0,71,72
 527 618 527 618 537 584 c 1,73,-1
 454 561 l 1,74,75
 450 587 450 587 420.897231986 600.991715391 c 0,76,77
 398 612 398 612 367.719880671 612 c 0,78,79
 329 612 329 612 301.214801073 596.370825604 c 0,80,81
 265 576 265 576 265 540.102752545 c 0,82,83
 265 517 265 517 282.653595025 495.81568597 c 0,84,85
 295 481 295 481 321.888847775 461.393548497 c 0,86,87
 343 446 343 446 369.531884125 424.042578655 c 0,88,89
 401 398 401 398 413.575402226 388.034586915 c 0,90,91
 454 356 454 356 469.578990565 332.867559464 c 0,92,93
 487 307 487 307 487 267.211735035 c 0,94,95
 487 221 487 221 462.303713204 182.11648462 c 0,96,97
 440 147 440 147 396.218904318 119.844636855 c 0,98,99
 361 98 361 98 313 82 c 1,100,101
 340 49 340 49 340 3.23717495259 c 0,102,103
 340 -39 340 -39 318.316714945 -77.1814367267 c 0,104,105
 294 -120 294 -120 252.164549997 -144.82543187 c 0,106,107
 203 -174 203 -174 136.92899719 -174 c 0,28,29
EndSplineSet
EndChar

StartChar: dieresis
Encoding: 168 168 146
Width: 427
GlyphClass: 1
Flags: W
HStem: 590 107<145.63 221.106 356.999 432.099>
VStem: 129 108<606.706 680.922> 341 107<606.712 680.929>
LayerCount: 2
Fore
SplineSet
394.5 590 m 128,-1,1
 372 590 372 590 356.289904346 606.216872933 c 0,2,3
 341 622 341 622 341 643.924940361 c 128,-1,4
 341 666 341 666 356.513198227 681.513198227 c 128,-1,5
 372 697 372 697 394.495208281 697 c 128,-1,6
 417 697 417 697 432.587906527 681.412093473 c 128,-1,7
 448 666 448 666 448 644.031281406 c 128,-1,8
 448 622 448 622 432.70459076 606.211190462 c 0,9,0
 417 590 417 590 394.5 590 c 128,-1,1
183.5 590 m 128,-1,11
 161 590 161 590 144.910109522 606.089890478 c 128,-1,12
 129 622 129 622 129 643.969013042 c 128,-1,13
 129 666 129 666 145.132621784 681.628477353 c 0,14,15
 161 697 161 697 183.453180914 697 c 128,-1,16
 206 697 206 697 221.595136031 681.404863969 c 128,-1,17
 237 666 237 666 237 644.033861946 c 128,-1,18
 237 622 237 622 221.704136984 606.210722048 c 0,19,10
 206 590 206 590 183.5 590 c 128,-1,11
EndSplineSet
EndChar

StartChar: copyright
Encoding: 169 169 147
Width: 814
GlyphClass: 1
Flags: W
HStem: -12 62<305.784 526.219> 150 59<358.368 482.596> 473 58<357.232 477.143> 618 62<305.837 526.187>
VStem: 70 62<223.84 444.187> 244 76<251.056 432.398> 700 62<223.816 444.163>
LayerCount: 2
Fore
SplineSet
417.918624245 150 m 0,0,1
 334 150 334 150 288.143635068 202.480062089 c 0,2,3
 244 253 244 253 244 340.369681021 c 0,4,5
 244 431 244 431 292.224869184 481.763020193 c 0,6,7
 339 531 339 531 419.191602257 531 c 0,8,9
 474 531 474 531 513.441576151 505.801215237 c 0,10,11
 546 485 546 485 565 449 c 1,12,-1
 498 424 l 1,13,14
 472 473 472 473 418.353178553 473 c 0,15,16
 375 473 375 473 349.447602488 443.266301077 c 0,17,18
 320 409 320 409 320 340.853968038 c 0,19,20
 320 275 320 275 349.174860861 239.990166966 c 0,21,22
 375 209 375 209 418.365910639 209 c 0,23,24
 443 209 443 209 462.354612126 217.602049834 c 0,25,26
 488 229 488 229 501 254 c 1,27,-1
 567 230 l 1,28,29
 548 196 548 196 515.161238697 175.586715947 c 0,30,31
 474 150 474 150 417.918624245 150 c 0,0,1
416 50 m 128,-1,33
 475 50 475 50 528.052614699 72.6632528811 c 0,34,35
 578 94 578 94 616.701542236 132.701542236 c 0,36,37
 656 172 656 172 677.378641327 222.045455833 c 0,38,39
 700 275 700 275 700 334.410811551 c 0,40,41
 700 393 700 393 677.375144113 445.962730826 c 0,42,43
 656 496 656 496 617.280928681 534.719071319 c 0,44,45
 578 574 578 574 527.960283743 595.376189469 c 0,46,47
 475 618 475 618 415.587589908 618 c 0,48,49
 357 618 357 618 304.037620175 595.375294056 c 0,50,51
 254 574 254 574 215.280860291 535.280860291 c 0,52,53
 176 496 176 496 154.623820099 445.960306142 c 0,54,55
 132 393 132 393 132 333.58758367 c 0,56,57
 132 275 132 275 154.624705359 222.037621545 c 0,58,59
 176 172 176 172 214.719139976 133.280860024 c 0,60,61
 254 94 254 94 304.039693771 72.6238201367 c 0,62,32
 357 50 357 50 416 50 c 128,-1,33
416 -12 m 128,-1,64
 344 -12 344 -12 279.278427308 15.9597194028 c 0,65,66
 219 42 219 42 171.929771515 89.070228485 c 0,67,68
 124 137 124 137 97.8989932992 197.418996992 c 0,69,70
 70 262 70 262 70 334.589554138 c 0,71,72
 70 406 70 406 97.9042873221 470.59325769 c 0,73,74
 124 531 124 531 171.095478044 578.095478044 c 0,75,76
 219 626 219 626 279.410772687 652.097453801 c 0,77,78
 344 680 344 680 416.591846114 680 c 0,79,80
 488 680 488 680 552.592756747 652.095929085 c 0,81,82
 613 626 613 626 660.095576514 578.904423486 c 0,83,84
 708 531 708 531 734.097439941 470.589259395 c 0,85,86
 762 406 762 406 762 333.408144946 c 0,87,88
 762 262 762 262 734.095929929 197.407245207 c 0,89,90
 708 137 708 137 660.904423102 89.904423102 c 0,91,92
 613 42 613 42 552.58925952 15.9025601128 c 0,93,63
 488 -12 488 -12 416 -12 c 128,-1,64
EndSplineSet
EndChar

StartChar: questiondown
Encoding: 191 191 148
Width: 527
GlyphClass: 1
Flags: W
HStem: -175 70<109.279 277.446> 388 129<277.273 367.385>
VStem: -14 91<-75.2996 32.3567> 255 85<239.959 316> 259 128<408.018 497.096>
LayerCount: 2
Fore
SplineSet
340 316 m 1,0,1
 339 307 339 307 335.306019375 291.485281374 c 0,2,3
 334 286 334 286 332.648163755 279.723617435 c 0,4,5
 320 221 320 221 293.088767773 181.19380233 c 0,6,7
 272 150 272 150 234.146021243 122.628661514 c 0,8,9
 207 103 207 103 175.795070221 86.9758468704 c 0,10,11
 133 65 133 65 110.865214998 45.2367991055 c 0,12,13
 77 15 77 15 77 -23.9940592846 c 0,14,15
 77 -61 77 -61 108.845415941 -83.9704639571 c 0,16,17
 138 -105 138 -105 189.57689198 -105 c 0,18,19
 307 -105 307 -105 344 4 c 1,20,-1
 421 -20 l 1,21,22
 393 -99 393 -99 324.24383331 -139.195912834 c 0,23,24
 263 -175 263 -175 184.245956431 -175 c 0,25,26
 135 -175 135 -175 94.6692091132 -162.311661294 c 0,27,28
 46 -147 46 -147 18.907421443 -118.101249539 c 0,29,30
 -14 -83 -14 -83 -14 -27.1115358477 c 0,31,32
 -14 17 -14 17 8.37965943646 53.0257932392 c 0,33,34
 27 83 27 83 65.4252111286 110.84435589 c 0,35,36
 96 133 96 133 133.5976707 151.102582189 c 0,37,38
 177 172 177 172 200.604328797 193.918305312 c 0,39,40
 219 211 219 211 231.592566406 236.185132812 c 0,41,42
 241 255 241 255 247.473494775 278.19668961 c 0,43,44
 253 298 253 298 255 316 c 1,45,-1
 340 316 l 1,0,1
322 388 m 128,-1,47
 295 388 295 388 276.586938558 407.4360093 c 0,48,49
 259 426 259 426 259 452.346200638 c 0,50,51
 259 479 259 479 276.698652441 497.68191091 c 0,52,53
 295 517 295 517 322.112069177 517 c 0,54,55
 349 517 349 517 367.980243102 498.019756898 c 128,-1,56
 387 479 387 479 387 452.493114661 c 128,-1,57
 387 426 387 426 368.090021283 407.090021283 c 128,-1,46
 349 388 349 388 322 388 c 128,-1,47
EndSplineSet
EndChar

StartChar: germandbls
Encoding: 223 223 149
Width: 605
GlyphClass: 1
Flags: W
HStem: -13 77<239 380.641> 0 21G<14 104.248> 329 77<305 405.729> 610 70<275.391 452.338>
VStem: 14 86<0 86> 454 94.2197<131.866 284.686> 483 87<461.424 580.812>
DStem2: 11.2368 -13 97.2368 -13 0.207912 0.978148<31.1708 606.208>
LayerCount: 2
Fore
SplineSet
259 -13 m 0,0,1
 246 -13 246 -13 239 -12 c 1,2,-1
 233 67 l 1,3,4
 257 64 257 64 278.756202506 64 c 0,5,6
 329 64 329 64 366.595980524 79.2287516046 c 0,7,8
 408 96 408 96 429.879846782 128.344121331 c 0,9,10
 454 164 454 164 454 213.304979103 c 0,11,12
 454 276 454 276 411.930134866 303.507219511 c 0,13,14
 376 327 376 327 303 329 c 2,15,-1
 289 329 l 1,16,-1
 305 406 l 1,17,-1
 320 406 l 2,18,19
 392 409 392 409 435.922493122 438.442550334 c 0,20,21
 483 470 483 470 483 522.506497802 c 0,22,23
 483 563 483 563 455.657503227 585.948166934 c 0,24,25
 427 610 427 610 368.531631856 610 c 0,26,27
 297 610 297 610 256.807052129 575.133828353 c 0,28,29
 214 538 214 538 196 452 c 2,30,-1
 100 0 l 1,31,-1
 14 0 l 1,32,-1
 110 452 l 2,33,34
 118 488 118 488 127.276765121 515.143127577 c 0,35,36
 145 567 145 567 170.421876039 598.89289903 c 0,37,38
 200 636 200 636 244.786100989 655.904933773 c 0,39,40
 299 680 299 680 371.694960655 680 c 0,41,42
 430 680 430 680 472.605127716 664.818862538 c 0,43,44
 517 649 517 649 541.517667133 619.393760444 c 0,45,46
 570 585 570 585 570 534.226838199 c 0,47,48
 570 498 570 498 556.035782488 465.737842299 c 0,49,50
 541 431 541 431 514.05632787 407.77269644 c 0,51,52
 483 381 483 381 439 372 c 1,53,54
 498 350 498 350 523.34800532 313.386214537 c 0,55,56
 552 272 552 272 548.219738033 201.592620861 c 0,57,58
 544 123 544 123 499.2728289 71.727389227 c 0,59,60
 462 29 462 29 396.386098814 7.12869960467 c 0,61,62
 336 -13 336 -13 259 -13 c 0,0,1
EndSplineSet
EndChar

StartChar: AE
Encoding: 198 198 150
Width: 987
GlyphClass: 1
Flags: W
HStem: 0 81<549 891> 145 81<267 466> 303 80<613 862> 586 81<656 1015>
VStem: -52 112<0 112>
DStem2: -52 0 60 0 0.686079 0.727527<76.8408 274.267 383.28 383.28> 435.179 0 531.783 0 0.207912 0.978148<102.895 148.239 231.004 329.815 411.602 540.897>
AnchorPoint: "Anchor-1" 738 667 basechar 0
LayerCount: 2
Fore
SplineSet
267 226 m 1,0,-1
 483 226 l 1,1,-1
 548 529 l 1,2,-1
 267 226 l 1,0,-1
-52 0 m 1,3,-1
 577 667 l 1,4,-1
 1032 667 l 1,5,-1
 1015 586 l 1,6,-1
 656 586 l 1,7,-1
 613 383 l 1,8,-1
 879 383 l 1,9,-1
 862 303 l 1,10,-1
 596 303 l 1,11,-1
 549 81 l 1,12,-1
 908 81 l 1,13,-1
 891 0 l 1,14,-1
 435 0 l 1,15,-1
 466 145 l 1,16,-1
 194 145 l 1,17,-1
 60 0 l 1,18,-1
 -52 0 l 1,3,-1
EndSplineSet
EndChar

StartChar: florin
Encoding: 279 402 151
Width: 330
GlyphClass: 1
Flags: W
HStem: -165 75<-57.4933 -20.6117> 428 68<69 138 237 325> 635 71<283.534 368>
DStem2: 10.3291 -173 96.3049 -173 0.207912 0.978148<94.4398 614.411 701.508 834.909>
LayerCount: 2
Fore
SplineSet
-6.57887730521 -173 m 0,0,1
 -21 -173 -21 -173 -37.4148854878 -170.948139314 c 0,2,3
 -53 -169 -53 -169 -72 -165 c 1,4,-1
 -56 -90 l 1,5,6
 -46 -92 -46 -92 -40.8348486101 -92.9114973041 c 0,7,8
 -29 -95 -29 -95 -20.3403201814 -95 c 0,9,10
 4 -95 4 -95 18.6748348704 -78.8576816425 c 0,11,12
 34 -62 34 -62 42 -24 c 2,13,-1
 138 428 l 1,14,-1
 54 428 l 1,15,-1
 69 496 l 1,16,-1
 153 496 l 1,17,-1
 165 555 l 2,18,19
 178 616 178 616 192.956269696 645.459319097 c 0,20,21
 211 681 211 681 245.378096472 694.222344797 c 0,22,23
 276 706 276 706 335 706 c 2,24,-1
 384 706 l 1,25,-1
 368 635 l 1,26,-1
 328 635 l 2,27,28
 300 635 300 635 282.999606857 623.230497055 c 0,29,30
 261 608 261 608 253 570 c 2,31,-1
 237 496 l 1,32,-1
 339 496 l 1,33,-1
 325 428 l 1,34,-1
 224 428 l 1,35,-1
 125 -38 l 2,36,37
 111 -107 111 -107 83.0166138681 -138.303448893 c 0,38,39
 52 -173 52 -173 -6.57887730521 -173 c 0,0,1
EndSplineSet
EndChar

StartChar: integral
Encoding: 280 8747 152
Width: 306
GlyphClass: 1
Flags: W
HStem: -173 112<1.52126 55.7963> 569 112<234.603 289.631>
VStem: -30 99<-126.85 -77.8134> 104 84<-99.4735 608.523> 221 100<585.912 634.505>
LayerCount: 2
Fore
SplineSet
53.6419870285 -173 m 0,0,1
 22 -173 22 -173 0.858006691088 -162.022426551 c 0,2,3
 -30 -146 -30 -146 -30 -113.368507414 c 0,4,5
 -30 -91 -30 -91 -15.3940429142 -75.8903892215 c 0,6,7
 -1 -61 -1 -61 20.2843405302 -61 c 0,8,9
 42 -61 42 -61 56.2432720923 -77.3533864764 c 0,10,11
 69 -92 69 -92 69 -116 c 0,12,13
 69 -123 69 -123 67 -127 c 1,14,15
 78 -125 78 -125 84.802682943 -117.743804861 c 0,16,17
 93 -109 93 -109 97.6945942525 -91.9287481729 c 0,18,19
 104 -69 104 -69 104 57.4047609005 c 0,20,21
 104 93 104 93 103.651135652 179.169494036 c 0,22,23
 103 340 103 340 103 376.463662139 c 0,24,25
 103 533 103 533 118.408505282 588.213810594 c 0,26,27
 127 619 127 619 147.471317139 642.54201471 c 0,28,29
 167 665 167 665 194.839183324 674.477168791 c 0,30,31
 214 681 214 681 236.553656068 681 c 0,32,33
 269 681 269 681 290.299648013 669.940567378 c 0,34,35
 321 654 321 654 321 620.809822282 c 0,36,37
 321 598 321 598 306.200368233 583.200368233 c 0,38,39
 292 569 292 569 270.970624998 569 c 0,40,41
 249 569 249 569 234.136422619 585.456103529 c 0,42,43
 221 600 221 600 221 618.946012495 c 0,44,45
 221 628 221 628 224 635 c 1,46,47
 213 633 213 633 206.261885925 625.81267832 c 0,48,49
 198 617 198 617 193.247983371 599.287938017 c 0,50,51
 187 576 187 576 187 449.722448711 c 0,52,53
 187 414 187 414 187.34926964 328.079668447 c 0,54,55
 188 168 188 168 188 131.356660818 c 0,56,57
 188 -26 188 -26 172.605274987 -81.1644312976 c 0,58,59
 164 -112 164 -112 143.158218045 -135.447004699 c 0,60,61
 124 -157 124 -157 97.7792663835 -166.120255171 c 0,62,63
 78 -173 78 -173 53.6419870285 -173 c 0,0,1
EndSplineSet
EndChar

StartChar: approxequal
Encoding: 281 8776 153
Width: 605
GlyphClass: 1
Flags: W
HStem: 97 73<320.765 444.151> 151 74<150.215 278.163> 283 73<322.492 444.316> 337 74<150.018 278.166>
DStem2: 287.224 205.52 282.08 127.705 0.930033 -0.367477<-65.4996 113.755> 288.685 391.725 282.08 313.705 0.930033 -0.367477<-66.7829 113.324>
LayerCount: 2
Fore
SplineSet
396.472949412 97 m 0,0,1
 360 97 360 97 304.091939316 118.877067224 c 0,2,3
 291 124 291 124 282.080177818 127.705156906 c 0,4,5
 226 151 226 151 194.254508572 151 c 0,6,7
 171 151 171 151 154.937434486 139.189290063 c 0,8,9
 137 126 137 126 132 101 c 1,10,-1
 57 123 l 1,11,12
 68 169 68 169 102.966982281 196.196541774 c 0,13,14
 140 225 140 225 196.986412652 225 c 0,15,16
 236 225 236 225 287.224163063 205.520388694 c 0,17,18
 307 198 307 198 322.9583579 190.792999658 c 0,19,20
 369 170 369 170 396.363562874 170 c 0,21,22
 418 170 418 170 434.27304004 182.08854403 c 0,23,24
 453 196 453 196 458 221 c 1,25,-1
 532 199 l 1,26,27
 521 153 521 153 485.784275435 125.609992005 c 0,28,29
 449 97 449 97 396.472949412 97 c 0,0,1
396.472949412 283 m 0,30,31
 360 283 360 283 304.091939316 304.877067224 c 0,32,33
 291 310 291 310 282.080177818 313.705156906 c 0,34,35
 226 337 226 337 194.254508572 337 c 0,36,37
 171 337 171 337 154.937434486 325.189290063 c 0,38,39
 137 312 137 312 132 287 c 1,40,-1
 57 309 l 1,41,42
 69 355 69 355 103.613330285 381.921479111 c 0,43,44
 141 411 141 411 198.691172289 411 c 0,45,46
 238 411 238 411 288.685070538 391.725395711 c 0,47,48
 309 384 309 384 325.347070657 376.496426584 c 0,49,50
 370 356 370 356 397.276738207 356 c 0,51,52
 419 356 419 356 434.969488208 368.211961571 c 0,53,54
 453 382 453 382 458 407 c 1,55,-1
 532 385 l 1,56,57
 521 339 521 339 485.784275435 311.609992005 c 0,58,59
 449 283 449 283 396.472949412 283 c 0,30,31
EndSplineSet
EndChar

StartChar: notequal
Encoding: 282 8800 154
Width: 658
GlyphClass: 1
Flags: W
HStem: 0 21G<97 211.05> 121 79<73 182 337 569> 307 80<73 312 468 569> 476 20G<430.872 544>
VStem: 97 100<0 100> 445 99<397 496>
DStem2: 97 0 197 0 0.574348 0.818611<57.4348 147.872 301.566 374.798 529.886 605.904>
LayerCount: 2
Fore
SplineSet
97 0 m 1,0,-1
 182 121 l 1,1,-1
 73 121 l 1,2,-1
 73 200 l 1,3,-1
 238 200 l 1,4,-1
 312 307 l 1,5,-1
 73 307 l 1,6,-1
 73 387 l 1,7,-1
 368 387 l 1,8,-1
 445 496 l 1,9,-1
 544 496 l 1,10,-1
 468 387 l 1,11,-1
 569 387 l 1,12,-1
 569 307 l 1,13,-1
 412 307 l 1,14,-1
 337 200 l 1,15,-1
 569 200 l 1,16,-1
 569 121 l 1,17,-1
 282 121 l 1,18,-1
 197 0 l 1,19,-1
 97 0 l 1,0,-1
EndSplineSet
EndChar

StartChar: lessequal
Encoding: 283 8804 155
Width: 651
GlyphClass: 1
Flags: W
HStem: 0 80<63 536> 100 90<446 536> 414 91<445 536>
VStem: 63 105<214.5 389.5>
LayerCount: 2
Fore
SplineSet
63 0 m 1,0,-1
 63 80 l 1,1,-1
 536 80 l 1,2,-1
 536 0 l 1,3,-1
 63 0 l 1,0,-1
536 100 m 1,4,-1
 63 267 l 1,5,-1
 63 337 l 1,6,-1
 536 505 l 1,7,-1
 536 414 l 1,8,-1
 168 302 l 1,9,-1
 536 190 l 1,10,-1
 536 100 l 1,4,-1
EndSplineSet
EndChar

StartChar: greaterequal
Encoding: 284 8805 156
Width: 686
GlyphClass: 1
Flags: W
HStem: 0 80<98 571> 100 90<98 188> 414 91<98 189>
VStem: 466 105<214.5 389.5>
LayerCount: 2
Fore
SplineSet
98 0 m 1,0,-1
 98 80 l 1,1,-1
 571 80 l 1,2,-1
 571 0 l 1,3,-1
 98 0 l 1,0,-1
98 100 m 1,4,-1
 98 190 l 1,5,-1
 466 302 l 1,6,-1
 98 414 l 1,7,-1
 98 505 l 1,8,-1
 571 337 l 1,9,-1
 571 267 l 1,10,-1
 98 100 l 1,4,-1
EndSplineSet
EndChar

StartChar: lozenge
Encoding: 285 9674 157
Width: 561
GlyphClass: 1
Flags: W
VStem: 58 87<271.5 358.5> 426 87<271.5 358.5>
DStem2: 58 315 145 315 0.506632 0.862163<44.077 321.569> 145 315 58 315 0.506632 -0.862163<0 277.492> 286 703 286 554 0.504977 -0.863133<128.607 405.592> 286 76 286 -73 0.504977 0.863133<0 276.986>
LayerCount: 2
Fore
SplineSet
286 76 m 1,0,-1
 426 315 l 1,1,-1
 286 554 l 1,2,-1
 145 315 l 1,3,-1
 286 76 l 1,0,-1
286 -73 m 1,4,-1
 58 315 l 1,5,-1
 286 703 l 1,6,-1
 513 315 l 1,7,-1
 286 -73 l 1,4,-1
EndSplineSet
EndChar

StartChar: summation
Encoding: 286 8721 158
Width: 763
GlyphClass: 1
Flags: W
HStem: -161 81<224 604> 587 81<224 604>
DStem2: 224 587 123 587 0.594187 -0.804327<0 353.998> 123 -80 224 -80 0.593035 0.805177<59.8965 414.816>
LayerCount: 2
Fore
SplineSet
123 -161 m 1,0,-1
 123 -80 l 1,1,-1
 369 254 l 1,2,-1
 123 587 l 1,3,-1
 123 668 l 1,4,-1
 604 668 l 1,5,-1
 604 587 l 1,6,-1
 224 587 l 1,7,-1
 469 254 l 1,8,-1
 224 -80 l 1,9,-1
 604 -80 l 1,10,-1
 604 -161 l 1,11,-1
 123 -161 l 1,0,-1
EndSplineSet
EndChar

StartChar: minus
Encoding: 287 8722 159
Width: 619
GlyphClass: 1
Flags: W
HStem: 209 79<42 538>
LayerCount: 2
Fore
SplineSet
42 209 m 1,0,-1
 42 288 l 1,1,-1
 538 288 l 1,2,-1
 538 209 l 1,3,-1
 42 209 l 1,0,-1
EndSplineSet
EndChar

StartChar: uni2215
Encoding: 288 8725 160
Width: 444
GlyphClass: 1
Flags: W
HStem: 0 21G<-47 55.012> 648 20G<406.988 509>
VStem: -47 88<0 88> 421 88<580 668>
DStem2: -47 0 41 0 0.573791 0.819001<50.4936 815.627>
LayerCount: 2
Fore
SplineSet
-47 0 m 1,0,-1
 421 668 l 1,1,-1
 509 668 l 1,2,-1
 41 0 l 1,3,-1
 -47 0 l 1,0,-1
EndSplineSet
EndChar

StartChar: uni2219
Encoding: 289 8729 161
Width: 237
GlyphClass: 1
Flags: W
HStem: 191 129<65.5112 155.487>
VStem: 46 129<213.048 300.32>
LayerCount: 2
Fore
SplineSet
109.177222289 191 m 0,0,1
 81 191 81 191 62.2160982357 212.467316302 c 0,2,3
 46 231 46 231 46 255.490507842 c 0,4,5
 46 282 46 282 64.9129140979 300.912914098 c 128,-1,6
 84 320 84 320 110.530296088 320 c 128,-1,7
 137 320 137 320 156.085044821 300.914955179 c 128,-1,8
 175 282 175 282 175 256.029159577 c 128,-1,9
 175 230 175 230 156.439833548 210.951408115 c 0,10,11
 137 191 137 191 109.177222289 191 c 0,0,1
EndSplineSet
EndChar

StartChar: radical
Encoding: 290 8730 162
Width: 513
GlyphClass: 1
Flags: W
HStem: -161 21G<257.157 367.639> 145 80<39 145> 649 20G<423.516 515>
VStem: 427 88<581 669>
DStem2: 201 225 145 145 0.365088 -0.930973<54.033 281.519> 304 -37 364 -161 0.17899 0.983851<0 716.615>
LayerCount: 2
Fore
SplineSet
265 -161 m 1,0,-1
 145 145 l 1,1,-1
 39 145 l 1,2,-1
 39 225 l 1,3,-1
 201 225 l 1,4,-1
 304 -37 l 1,5,-1
 427 669 l 1,6,-1
 515 669 l 1,7,-1
 364 -161 l 1,8,-1
 265 -161 l 1,0,-1
EndSplineSet
EndChar

StartChar: infinity
Encoding: 291 8734 163
Width: 780
GlyphClass: 1
Flags: W
HStem: 104 76<154.879 279.808 486.466 610.301> 330 76<154.589 281.135 484.746 610.225>
VStem: 49 81<204.728 306.924> 635 81<204.802 306.761>
LayerCount: 2
Fore
SplineSet
551.621325575 180 m 0,0,1
 588 180 588 180 612.184305198 203.155185828 c 0,2,3
 635 225 635 225 635 256.921362497 c 0,4,5
 635 290 635 290 609.943268353 310.454474814 c 0,6,7
 586 330 586 330 550.154886336 330 c 0,8,9
 513 330 513 330 479.327198259 304.286224125 c 0,10,11
 458 288 458 288 431 256 c 1,12,13
 466 214 466 214 493.018025696 196.988650488 c 128,-1,14
 520 180 520 180 551.621325575 180 c 0,0,1
213.378674425 180 m 0,15,16
 245 180 245 180 272.254356737 196.547288019 c 0,17,18
 301 214 301 214 335 256 c 1,19,20
 308 288 308 288 286.645522895 304.307055244 c 0,21,22
 253 330 253 330 213.686045395 330 c 0,23,24
 179 330 179 330 155.61987306 310.91418209 c 0,25,26
 130 290 130 290 130 256.798369678 c 0,27,28
 130 225 130 225 152.964982173 203.012251111 c 0,29,30
 177 180 177 180 213.378674425 180 c 0,15,16
207.822630497 104 m 0,31,32
 138 104 138 104 93.552505039 146.449854738 c 128,-1,33
 49 189 49 189 49 254.472456499 c 0,34,35
 49 321 49 321 94.6859200692 363.209817455 c 0,36,37
 141 406 141 406 212.33517561 406 c 0,38,39
 269 406 269 406 319.90280961 372.478637574 c 0,40,41
 351 352 351 352 383 317 c 1,42,43
 415 352 415 352 445.880608091 372.587072061 c 0,44,45
 496 406 496 406 556.155654708 406 c 0,46,47
 624 406 624 406 669.582463155 363.885767738 c 0,48,49
 716 321 716 321 716 254.30392137 c 0,50,51
 716 189 716 189 671.918762428 146.899941644 c 0,52,53
 627 104 627 104 557.581130186 104 c 0,54,55
 501 104 501 104 448.575670371 139.573652248 c 0,56,57
 417 161 417 161 383 198 c 1,58,59
 349 161 349 161 317.52754955 139.643694338 c 0,60,61
 265 104 265 104 207.822630497 104 c 0,31,32
EndSplineSet
EndChar

StartChar: uni03A9
Encoding: 292 937 164
Width: 773
GlyphClass: 1
Flags: W
HStem: 0 173<258.78 311 426 478.169> 0 81<75 226 511 662> 606 74<272.859 463.028>
VStem: 75 73<289.296 479.855> 226 85<81 142.528> 426 85<81 142.548> 589 73<289.352 480.015>
LayerCount: 2
Fore
SplineSet
75 0 m 1,0,-1
 75 81 l 1,1,-1
 226 81 l 1,2,-1
 226 130 l 1,3,4
 159 168 159 168 118.708733675 232.75382088 c 0,5,6
 75 303 75 303 75 386.261735141 c 0,7,8
 75 446 75 446 97.8835816344 500.412071886 c 0,9,10
 120 553 120 553 160.657896133 593.657896133 c 0,11,12
 201 634 201 634 252.042871375 656.15068003 c 0,13,14
 307 680 307 680 368.552972547 680 c 0,15,16
 429 680 429 680 483.957062162 656.373599444 c 0,17,18
 536 634 536 634 576.03547695 593.464079588 c 128,-1,19
 616 553 616 553 638.137213907 501.506915477 c 0,20,21
 662 446 662 446 662 384.328921862 c 0,22,23
 662 303 662 303 619.32271628 233.585140938 c 0,24,25
 579 168 579 168 511 130 c 1,26,-1
 511 81 l 1,27,-1
 662 81 l 1,28,-1
 662 0 l 1,29,-1
 426 0 l 1,30,-1
 426 173 l 1,31,32
 473 186 473 186 509.66620995 216.224848743 c 0,33,34
 547 247 547 247 567.724978499 290.423764474 c 0,35,36
 589 335 589 335 589 385.74336423 c 0,37,38
 589 446 589 446 558.08490015 497.525166416 c 0,39,40
 529 546 529 546 481.064956974 574.761025816 c 0,41,42
 429 606 429 606 367.887925653 606 c 0,43,44
 308 606 308 606 256.551488148 575.130892889 c 0,45,46
 208 546 208 546 179.227143619 498.045239366 c 0,47,48
 148 446 148 446 148 385.012865951 c 0,49,50
 148 335 148 335 169.323512124 290.322165075 c 0,51,52
 190 247 190 247 227.190189012 216.343222571 c 0,53,54
 264 186 264 186 311 173 c 1,55,-1
 311 0 l 1,56,-1
 75 0 l 1,0,-1
EndSplineSet
EndChar

StartChar: estimated
Encoding: 293 8494 165
Width: 628
GlyphClass: 1
Flags: W
HStem: -12 32<224.645 390.212> 248 31<156 460> 472 32<224.784 391.168>
VStem: 50 106<143.086 248 279 352.048> 460 106<279 350.429>
LayerCount: 2
Fore
SplineSet
156 279 m 1,0,-1
 460 279 l 1,1,-1
 460 413 l 1,2,3
 430 441 430 441 391.819689663 456.174225903 c 0,4,5
 352 472 352 472 307.771203613 472 c 0,6,7
 264 472 264 472 224.231120719 456.194419773 c 0,8,9
 186 441 186 441 156 413 c 1,10,-1
 156 279 l 1,0,-1
309.782281085 -12 m 0,11,12
 262 -12 262 -12 217.497369327 4.62735651515 c 0,13,14
 171 22 171 22 135.511209332 53.7033196631 c 0,15,16
 96 89 96 89 74.4294677805 136.36138596 c 0,17,18
 50 190 50 190 50 248.816622345 c 0,19,20
 50 300 50 300 69.1091690229 345.448834433 c 0,21,22
 87 388 87 388 119.461945778 422.371472 c 0,23,24
 155 460 155 460 199.67438889 480.691295907 c 0,25,26
 250 504 250 504 308.197042552 504 c 0,27,28
 379 504 379 504 439.126760646 468.540628337 c 0,29,30
 496 435 496 435 529.630188784 379.269972872 c 0,31,32
 566 319 566 319 566 248 c 1,33,-1
 156 248 l 1,34,-1
 156 78 l 1,35,36
 186 51 186 51 223.554710752 36.0744098294 c 0,37,38
 264 20 264 20 308.330601269 20 c 0,39,40
 359 20 359 20 404.975891102 41.9430389349 c 0,41,42
 447 62 447 62 478 97 c 1,43,-1
 511 87 l 1,44,45
 476 42 476 42 424.608124024 15.8192329932 c 0,46,47
 370 -12 370 -12 309.782281085 -12 c 0,11,12
EndSplineSet
EndChar

StartChar: partialdiff
Encoding: 294 8706 166
Width: 595
GlyphClass: 1
Flags: W
HStem: -12 73<215.166 361.495> 430 74<215.743 362.736> 598 82<140 307.952>
VStem: 51 89<142.443 348.949> 437 91<142.363 402.708>
LayerCount: 2
Fore
SplineSet
289 61 m 128,-1,1
 325 61 325 61 356.30103568 78.9520645814 c 0,2,3
 393 100 393 100 413.345378609 137.916387408 c 0,4,5
 437 182 437 182 437 247.160129708 c 0,6,7
 437 310 437 310 412.931104085 354.308649299 c 0,8,9
 393 391 393 391 357.287339271 411.482261301 c 0,10,11
 325 430 325 430 289.465142212 430 c 0,12,13
 253 430 253 430 221.352817514 411.849410045 c 0,14,15
 185 391 185 391 164.527756301 354.149961342 c 0,16,17
 140 310 140 310 140 244.619572894 c 0,18,19
 140 182 140 182 164.679136114 137.029129747 c 0,20,21
 185 100 185 100 220.750916051 79.495798147 c 0,22,0
 253 61 253 61 289 61 c 128,-1,1
295.373466625 -12 m 0,23,24
 246 -12 246 -12 204.598000253 2.61247049882 c 0,25,26
 161 18 161 18 128.354295146 47.8069479099 c 0,27,28
 92 81 92 81 72.6326571151 127.292673237 c 0,29,30
 51 179 51 179 51 247.407469157 c 0,31,32
 51 314 51 314 72.9537392387 365.939334296 c 0,33,34
 92 411 92 411 127.797470016 443.684646537 c 0,35,36
 161 474 161 474 205.657611077 489.761509792 c 0,37,38
 246 504 246 504 284.581176998 504 c 0,39,40
 320 504 320 504 351.710181039 494.116307209 c 0,41,42
 397 480 397 480 421 450 c 1,43,44
 401 514 401 514 356.410256012 549.345528771 c 0,45,46
 319 579 319 579 256.847150674 590.653659249 c 0,47,48
 207 600 207 600 140 598 c 1,49,-1
 140 680 l 1,50,51
 170 680 170 680 193.864185328 678.806790734 c 0,52,53
 250 676 250 676 290.477127667 666.340685443 c 0,54,55
 338 655 338 655 375.661952508 632.765835266 c 0,56,57
 421 606 421 606 452.186605904 565.038487768 c 0,58,59
 488 518 488 518 506.623094789 453.28474561 c 0,60,61
 528 379 528 379 528 291.618276922 c 0,62,63
 528 200 528 200 505.435775117 136.628134371 c 0,64,65
 481 68 481 68 431.196951745 30.054820377 c 0,66,67
 376 -12 376 -12 295.373466625 -12 c 0,23,24
EndSplineSet
EndChar

StartChar: uni0394
Encoding: 295 916 167
Width: 759
GlyphClass: 1
Flags: W
HStem: 0 78<116 518> 660 20G<307.412 326.618>
DStem2: -9 0 116 78 0.4323 0.90173<124.372 589.991> 317 680 317 498 0.433377 -0.901213<164.021 629.639>
LayerCount: 2
Fore
SplineSet
116 78 m 1,0,-1
 518 78 l 1,1,-1
 317 498 l 1,2,-1
 116 78 l 1,0,-1
-9 0 m 1,3,-1
 317 680 l 1,4,-1
 644 0 l 1,5,-1
 -9 0 l 1,3,-1
EndSplineSet
EndChar

StartChar: product
Encoding: 296 8719 168
Width: 761
GlyphClass: 1
Flags: W
HStem: -161 21G<133 214 530 612> 587 81<214 530>
VStem: 133 81<-161 587> 530 82<-161 587>
LayerCount: 2
Fore
SplineSet
133 -161 m 1,0,-1
 133 668 l 1,1,-1
 612 668 l 1,2,-1
 612 -161 l 1,3,-1
 530 -161 l 1,4,-1
 530 587 l 1,5,-1
 214 587 l 1,6,-1
 214 -161 l 1,7,-1
 133 -161 l 1,0,-1
EndSplineSet
EndChar

StartChar: pi
Encoding: 297 960 169
Width: 590
GlyphClass: 1
Flags: W
HStem: 0 75<436.598 488> 416 80<63 129 212 406 492 576>
VStem: 41 83<0 83> 338 90<51.3658 194.633>
DStem2: 41 0 124 0 0.207912 0.978148<17.2567 425.206> 318.43 0 404.807 0 0.207912 0.978148<122.474 425.116>
LayerCount: 2
Fore
SplineSet
41 0 m 1,0,-1
 129 416 l 1,1,-1
 46 416 l 1,2,-1
 63 496 l 1,3,-1
 594 496 l 1,4,-1
 576 416 l 1,5,-1
 492 416 l 1,6,-1
 434 140 l 2,7,8
 432 128 432 128 430.565719305 121.187166701 c 0,9,10
 428 109 428 109 428 101.690335902 c 0,11,12
 428 88 428 88 436.290511294 82.0124085096 c 0,13,14
 446 75 446 75 472 75 c 2,15,-1
 504 75 l 1,16,-1
 488 0 l 1,17,-1
 437 0 l 2,18,19
 382 0 382 0 359.251561978 17.0613285166 c 0,20,21
 338 33 338 33 338 69.7316563654 c 0,22,23
 338 81 338 81 340.400781961 97.8054737243 c 0,24,25
 342 109 342 109 345 125 c 2,26,-1
 406 416 l 1,27,-1
 212 416 l 1,28,-1
 124 0 l 1,29,-1
 41 0 l 1,0,-1
EndSplineSet
EndChar

StartChar: hungarumlaut
Encoding: 298 733 170
Width: 394
GlyphClass: 1
Flags: W
HStem: 572 136<249 268>
VStem: 103 329
LayerCount: 2
Fore
SplineSet
249 572 m 1,0,1
 280 606 280 606 305.96356007 633.774971238 c 0,2,3
 323 652 323 652 333.354489321 662.885488773 c 0,4,5
 362 693 362 693 371.51017499 700.132631243 c 0,6,7
 382 708 382 708 395.870088808 708 c 0,8,9
 413 708 413 708 423.49391999 694.744522117 c 0,10,11
 432 684 432 684 432 669.830205931 c 0,12,13
 432 653 432 653 418.869545805 640.560622342 c 0,14,15
 413 635 413 635 393.68072071 621.11426801 c 0,16,17
 381 612 381 612 360.869605329 598.196300797 c 0,18,19
 346 588 346 588 322 572 c 1,20,-1
 249 572 l 1,0,1
103 572 m 1,21,22
 124 594 124 594 138.657276311 609.57335608 c 0,23,24
 156 628 156 628 170.889203439 644.202956683 c 0,25,26
 190 665 190 665 203.333947086 678.810159482 c 0,27,28
 218 694 218 694 224.78948348 699.280709374 c 0,29,30
 236 708 236 708 250.725232573 708 c 0,31,32
 268 708 268 708 278.199350412 696.190225839 c 0,33,34
 287 686 287 686 287 671.237845882 c 0,35,36
 287 654 287 654 274.424996298 641.424996298 c 0,37,38
 268 635 268 635 247.560870967 620.309376008 c 0,39,40
 236 612 236 612 216.266271712 598.468300603 c 0,41,42
 201 588 201 588 177 572 c 1,43,-1
 103 572 l 1,21,22
EndSplineSet
EndChar

StartChar: tilde
Encoding: 299 732 171
Width: 420
GlyphClass: 1
Flags: W
HStem: 575 63<289.873 389.68> 617 63<166.184 280.655>
DStem2: 281.469 664.394 275.464 598.063 0.873613 -0.486622<-34.6888 70.4246>
LayerCount: 2
Fore
SplineSet
347.076898817 575 m 0,0,1
 317 575 317 575 284.860362112 592.761378833 c 0,2,3
 279 596 279 596 275.464084252 598.06261752 c 0,4,5
 243 617 243 617 214.467577562 617 c 0,6,7
 173 617 173 617 155 577 c 1,8,-1
 90 577 l 1,9,10
 110 630 110 630 146.239914135 656.646995687 c 0,11,12
 178 680 178 680 221.698502178 680 c 0,13,14
 251 680 251 680 281.469401851 664.393721003 c 0,15,16
 292 659 292 659 299.842643382 654.156014382 c 0,17,18
 326 638 326 638 348.073528183 638 c 0,19,20
 365 638 365 638 381.852785211 652.554678137 c 0,21,22
 387 657 387 657 391.207752118 661.207752118 c 0,23,24
 410 680 410 680 425.957059188 680 c 0,25,26
 437 680 437 680 445.274803646 671.238443198 c 0,27,28
 454 662 454 662 454 649.478675659 c 0,29,30
 454 640 454 640 446.592149463 628.476676943 c 0,31,32
 436 612 436 612 419.01926435 599.177811856 c 0,33,34
 387 575 387 575 347.076898817 575 c 0,0,1
EndSplineSet
EndChar

StartChar: endash
Encoding: 300 8211 172
Width: 497
GlyphClass: 1
Flags: W
HStem: 208 79<40 438>
LayerCount: 2
Fore
SplineSet
40 208 m 1,0,-1
 40 287 l 1,1,-1
 438 287 l 1,2,-1
 438 208 l 1,3,-1
 40 208 l 1,0,-1
EndSplineSet
EndChar

StartChar: emdash
Encoding: 301 8212 173
Width: 817
GlyphClass: 1
Flags: W
HStem: 208 79<40 758>
LayerCount: 2
Fore
SplineSet
40 208 m 1,0,-1
 40 287 l 1,1,-1
 758 287 l 1,2,-1
 758 208 l 1,3,-1
 40 208 l 1,0,-1
EndSplineSet
EndChar

StartChar: trademark
Encoding: 302 8482 174
Width: 928
GlyphClass: 1
Flags: W
HStem: 292 92<592 756> 608 60<133 251 318 436>
VStem: 251 67<292 608> 473 67<292 571> 808 67<292 571>
DStem2: 581 668 540 571 0.311204 -0.950343<79.4239 298.839> 674 384 710 292 0.311204 0.950343<0 219.415>
LayerCount: 2
Fore
SplineSet
251 292 m 1,0,-1
 251 608 l 1,1,-1
 133 608 l 1,2,-1
 133 668 l 1,3,-1
 436 668 l 1,4,-1
 436 608 l 1,5,-1
 318 608 l 1,6,-1
 318 292 l 1,7,-1
 251 292 l 1,0,-1
473 292 m 1,8,-1
 473 668 l 1,9,-1
 581 668 l 1,10,-1
 674 384 l 1,11,-1
 767 668 l 1,12,-1
 875 668 l 1,13,-1
 875 292 l 1,14,-1
 808 292 l 1,15,-1
 808 571 l 1,16,-1
 710 292 l 1,17,-1
 638 292 l 1,18,-1
 540 571 l 1,19,-1
 540 292 l 1,20,-1
 473 292 l 1,8,-1
EndSplineSet
EndChar

StartChar: Euro
Encoding: 303 8364 175
Width: 697
GlyphClass: 1
Flags: W
HStem: -12 79<293.629 474.926> 240 51<43 117.938 208 332> 376 51<72 129 238 435> 499 21G<595 661.621> 600 79<365.787 542.529>
VStem: 116 92<160.296 240 291 374.656>
LayerCount: 2
Fore
SplineSet
362.55400342 -12 m 0,0,1
 279 -12 279 -12 221.38934407 26.2276315048 c 0,2,3
 172 59 172 59 143.909492635 121.663439506 c 0,4,5
 120 175 120 175 116 240 c 1,6,-1
 4 240 l 1,7,-1
 43 291 l 1,8,-1
 116 291 l 1,9,10
 119 333 119 333 129 376 c 1,11,-1
 33 376 l 1,12,-1
 72 427 l 1,13,-1
 144 427 l 1,14,15
 170 502 170 502 214.873917817 557.604637295 c 0,16,17
 262 616 262 616 324.120760104 646.815810131 c 0,18,19
 389 679 389 679 466.212277612 679 c 0,20,21
 549 679 549 679 604.777045666 643.722210433 c 0,22,23
 666 605 666 605 688 528 c 1,24,-1
 603 499 l 1,25,26
 587 549 587 549 547.568217492 575.117154648 c 0,27,28
 510 600 510 600 456.602375634 600 c 0,29,30
 384 600 384 600 326.144068683 553.309248411 c 0,31,32
 270 508 270 508 238 427 c 1,33,-1
 474 427 l 1,34,-1
 435 376 l 1,35,-1
 221 376 l 1,36,37
 215 353 215 353 211.649110641 331.219219164 c 0,38,39
 209 314 209 314 207 291 c 1,40,-1
 370 291 l 1,41,-1
 332 240 l 1,42,-1
 208 240 l 1,43,44
 216 162 216 162 259.688243061 115.366482126 c 0,45,46
 305 67 305 67 382.115296338 67 c 0,47,48
 437 67 437 67 478.924668337 91.1683382177 c 0,49,50
 522 116 522 116 556 169 c 1,51,-1
 631 139 l 1,52,53
 586 64 586 64 516.772551359 25.596451849 c 0,54,55
 449 -12 449 -12 362.55400342 -12 c 0,0,1
EndSplineSet
EndChar

StartChar: uni2113
Encoding: 304 8467 176
Width: 451
GlyphClass: 1
Flags: W
HStem: -12 73<178.847 293.595> 609 70<281.936 358.721>
VStem: 367 80<485.175 602.555>
DStem2: 39 227 98 188 0.839193 0.543834<0 28.3028 213.3 337.93> 56.0373 -12 142.353 -12 0.207912 0.978148<119.118 204.354 296.338 308.316 380.916 635.377>
LayerCount: 2
Fore
SplineSet
218 343 m 1,0,1
 260 369 260 369 294.605103771 408.770044632 c 0,2,3
 327 446 327 446 346.349875387 487.118485197 c 0,4,5
 367 531 367 531 367 565.106957379 c 0,6,7
 367 590 367 590 354.858058679 600.48622205 c 0,8,9
 345 609 345 609 326.300293415 609 c 0,10,11
 298 609 298 609 282.551674671 590.172353505 c 0,12,13
 266 570 266 570 255 517 c 2,14,-1
 218 343 l 1,0,1
195.601535979 -12 m 0,15,16
 140 -12 140 -12 112.247121223 11.3708452862 c 0,17,18
 83 36 83 36 82.2623605218 88.3724029518 c 0,19,20
 82 107 82 107 87.766804704 137.275724696 c 0,21,22
 90 149 90 149 98 188 c 1,23,-1
 20 138 l 1,24,-1
 39 227 l 1,25,-1
 117 278 l 1,26,-1
 166 506 l 2,27,28
 184 589 184 589 214.620433118 628.369128295 c 0,29,30
 254 679 254 679 327.115197026 679 c 0,31,32
 381 679 381 679 412.034503365 653.137913862 c 0,33,34
 447 624 447 624 447 560.740837385 c 0,35,36
 447 497 447 497 407.941198004 435.386115162 c 0,37,38
 376 385 376 385 310.305687423 330.932999383 c 0,39,40
 263 292 263 292 198 251 c 1,41,-1
 177 151 l 2,42,43
 167 105 167 105 178.420503114 83.1520809998 c 0,44,45
 190 61 190 61 225.45454744 61 c 0,46,47
 251 61 251 61 279.7808668 74.7908320084 c 0,48,49
 299 84 299 84 321 100 c 1,50,-1
 345 42 l 1,51,52
 319 20 319 20 284.818634717 5.97687578127 c 0,53,54
 241 -12 241 -12 195.601535979 -12 c 0,15,16
EndSplineSet
EndChar

StartChar: Lslash
Encoding: 305 321 177
Width: 572
GlyphClass: 1
Flags: W
HStem: 0 82<158 500> 484 20G<389.778 422.89> 648 20G<182.745 283>
VStem: 187 96<572 668>
DStem2: 18 287 3 214 0.883367 0.468681<0 64.3605 234.827 415.537> 45 0 140.57 0 0.207912 0.978148<103.702 272.038 346.562 351.225 424.978 682.926>
LayerCount: 2
Fore
SplineSet
45 0 m 1,0,-1
 102 266 l 1,1,-1
 3 214 l 1,2,-1
 18 287 l 1,3,-1
 117 339 l 1,4,-1
 187 668 l 1,5,-1
 283 668 l 1,6,-1
 226 396 l 1,7,-1
 427 504 l 1,8,-1
 412 431 l 1,9,-1
 210 324 l 1,10,-1
 158 82 l 1,11,-1
 517 82 l 1,12,-1
 500 0 l 1,13,-1
 45 0 l 1,0,-1
EndSplineSet
EndChar

StartChar: lslash
Encoding: 306 322 178
Width: 273
GlyphClass: 1
Flags: W
HStem: 0 75<139.818 196> 648 20G<158.767 249>
VStem: 40 91<51.4 191.539> 163 86<582 668>
DStem2: 18 303 79 272 0.884496 0.466547<0 39.4913 194.123 262.258> 20.4304 0 106.655 0 0.207912 0.978148<125.614 278.233 419.668 683.044>
LayerCount: 2
Fore
SplineSet
140 0 m 2,0,1
 82 0 82 0 59.3091081322 18.3688172263 c 0,2,3
 40 34 40 34 40 68.8000953681 c 0,4,5
 40 80 40 80 42.3302996684 96.8946725962 c 0,6,7
 44 109 44 109 47 125 c 2,8,-1
 79 272 l 1,9,-1
 3 232 l 1,10,-1
 18 303 l 1,11,-1
 94 342 l 1,12,-1
 163 668 l 1,13,-1
 249 668 l 1,14,-1
 190 393 l 1,15,-1
 291 447 l 1,16,-1
 276 376 l 1,17,-1
 175 323 l 1,18,-1
 136 140 l 2,19,20
 134 130 134 130 132.955005568 123.730033408 c 0,21,22
 131 112 131 112 131 104.688182105 c 0,23,24
 131 89 131 89 139.517492256 82.375283801 c 0,25,26
 149 75 149 75 174 75 c 2,27,-1
 212 75 l 1,28,-1
 196 0 l 1,29,-1
 140 0 l 2,0,1
EndSplineSet
EndChar

StartChar: oslash
Encoding: 248 248 179
Width: 548
GlyphClass: 1
Flags: W
HStem: -12 74<163.483 315.458> 430 74<210.295 369.493>
VStem: 27 89<149.598 316.1> 413 90<182.708 347.487>
DStem2: -10 26 25 -11 0.728741 0.68479<0.168716 80.7098 179.694 524.387 618.79 705.326>
AnchorPoint: "Anchor-1" 321 496 basechar 0
LayerCount: 2
Fore
SplineSet
237.485541948 62 m 0,0,1
 295 62 295 62 337.356464516 100.012211745 c 0,2,3
 373 132 373 132 393.49497062 187.848794939 c 0,4,5
 413 241 413 241 413 296.318675955 c 0,6,7
 413 327 413 327 407 348 c 1,8,-1
 145 102 l 1,9,10
 176 62 176 62 237.485541948 62 c 0,0,1
121 149 m 1,11,-1
 384 395 l 1,12,13
 367 414 367 414 341.074644648 422.641785117 c 0,14,15
 319 430 319 430 291.198757182 430 c 0,16,17
 231 430 231 430 188.494612452 392.399080246 c 0,18,19
 153 361 153 361 133.549398012 304.750961818 c 0,20,21
 116 254 116 254 116 196.68226273 c 0,22,23
 116 183 116 183 116.865593219 173.045677982 c 0,24,25
 118 160 118 160 121 149 c 1,11,-1
228.691308437 -12 m 0,26,27
 182 -12 182 -12 143.649223363 3.02935841197 c 0,28,29
 108 17 108 17 82 43 c 1,30,-1
 25 -11 l 1,31,-1
 -10 26 l 1,32,-1
 52 84 l 1,33,34
 27 131 27 131 27 201.080103407 c 0,35,36
 27 284 27 284 62.0747770484 353.14741761 c 0,37,38
 97 422 97 422 157.227832223 461.509457938 c 0,39,40
 222 504 222 504 299.263438782 504 c 0,41,42
 342 504 342 504 377.477065586 491.364332805 c 0,43,44
 415 478 415 478 443 451 c 1,45,-1
 504 509 l 1,46,-1
 539 472 l 1,47,-1
 475 411 l 1,48,49
 488 388 488 388 494.909915985 362.202980321 c 0,50,51
 503 332 503 332 503 294.290719895 c 0,52,53
 503 235 503 235 482.91467483 179.263222655 c 0,54,55
 463 124 463 124 427.083986147 81.6879836804 c 0,56,57
 390 38 390 38 342.473927887 14.2369639435 c 0,58,59
 290 -12 290 -12 228.691308437 -12 c 0,26,27
EndSplineSet
EndChar

StartChar: Oslash
Encoding: 216 216 180
Width: 725
GlyphClass: 1
Flags: W
HStem: -12 79<237.989 428.55> 600 79<314.216 503.119>
VStem: 53 95<181.776 397.265> 594 95<265.715 496.621>
DStem2: 4 32 39 -4 0.728976 0.684539<0.870751 109.116 217.175 735.241 837.361 945.161>
AnchorPoint: "Anchor-1" 438 668 basechar 0
LayerCount: 2
Fore
SplineSet
329.094734593 67 m 0,0,1
 425 67 425 67 494.749763874 135.774242701 c 0,2,3
 568 208 568 208 588.751347335 330.778805063 c 0,4,5
 592 350 592 350 593.197185145 368.55636975 c 0,6,7
 594 381 594 381 594 393.447044559 c 0,8,9
 594 454 594 454 575 498 c 1,10,-1
 187 134 l 1,11,12
 211 101 211 101 246.078799645 84.2017015783 c 0,13,14
 282 67 282 67 329.094734593 67 c 0,0,1
162 181 m 1,15,-1
 547 542 l 1,16,17
 498 600 498 600 411.036080392 600 c 0,18,19
 343 600 343 600 286.646680134 563.292791647 c 0,20,21
 234 529 234 529 199.116103075 466.000723464 c 0,22,23
 167 408 167 408 154.204128667 334.592106564 c 0,24,25
 148 299 148 299 148 267.827253554 c 0,26,27
 148 221 148 221 162 181 c 1,15,-1
317.1599296 -12 m 0,28,29
 249 -12 249 -12 197.569345944 10.5665114737 c 0,30,31
 151 31 151 31 118 70 c 1,32,-1
 39 -4 l 1,33,-1
 4 32 l 1,34,-1
 89 112 l 1,35,36
 53 178 53 178 53 266.86126935 c 0,37,38
 53 285 53 285 54.945215657 305.748967008 c 0,39,40
 56 317 56 317 58.2858035382 332.731706704 c 0,41,42
 73 434 73 434 120.869385022 510.985815087 c 0,43,44
 170 590 170 590 245.719056684 632.923541687 c 0,45,46
 327 679 327 679 426.260047595 679 c 0,47,48
 490 679 490 679 538.397202714 659.009851053 c 0,49,50
 582 641 582 641 615 606 c 1,51,-1
 693 679 l 1,52,-1
 728 642 l 1,53,-1
 647 566 l 1,54,55
 689 497 689 497 689 400.838102866 c 0,56,57
 689 386 689 386 688.207866283 372.137659948 c 0,58,59
 687 351 687 351 683.719167254 330.305516525 c 0,60,61
 674 269 674 269 648.610702473 211.758674666 c 0,62,63
 619 145 619 145 575.351695489 97.9941336035 c 0,64,65
 528 47 528 47 465.646544968 18.9171462068 c 0,66,67
 397 -12 397 -12 317.1599296 -12 c 0,28,29
EndSplineSet
EndChar

StartChar: Thorn
Encoding: 222 222 181
Width: 583
GlyphClass: 1
Flags: W
HStem: 155 81<151 401.525> 438 81<211 437.808>
VStem: 13 86<-8 78> 155 86<573 659> 460 102<289.124 415.775>
DStem2: 13 -8 99 -8 0.207912 0.978148<17.8804 184.595 267.36 473.886 556.65 681.948>
LayerCount: 2
Fore
SplineSet
151 236 m 1,0,-1
 287 236 l 2,1,2
 373 236 373 236 416.255308208 266.219461899 c 0,3,4
 446 287 446 287 455.827443693 329.117615829 c 0,5,6
 460 347 460 347 460 362.675194079 c 0,7,8
 460 404 460 404 431.253120129 420.851619235 c 0,9,10
 402 438 402 438 329 438 c 2,11,-1
 194 438 l 1,12,-1
 151 236 l 1,0,-1
13 -8 m 1,13,-1
 155 659 l 1,14,-1
 241 659 l 1,15,-1
 211 519 l 1,16,-1
 338 519 l 2,17,18
 405 519 405 519 451.217193271 506.98352975 c 0,19,20
 505 493 505 493 532.25804975 463.350893255 c 0,21,22
 562 431 562 431 562 377.103738896 c 0,23,24
 562 365 562 365 560.868432905 353.684329046 c 0,25,26
 559 335 559 335 554.621634917 317.642909849 c 0,27,28
 531 224 531 224 454.24967111 186.966624522 c 0,29,30
 388 155 388 155 261 155 c 2,31,-1
 134 155 l 1,32,-1
 99 -8 l 1,33,-1
 13 -8 l 1,13,-1
EndSplineSet
EndChar

StartChar: ae
Encoding: 230 230 182
Width: 870
GlyphClass: 1
Flags: W
HStem: -12 74<116.487 269.423 495.357 663.71> 225 67<166.73 359 456 749> 432 72<202.515 358.095 542.142 701.461>
VStem: 6 94<75.0247 175.754> 749 88<292.266 384.332>
DStem2: 359 224 442 204 0.148112 0.988971<-74.4253 -0.233875 81.6168 133.922>
AnchorPoint: "Anchor-1" 458 496 basechar 0
LayerCount: 2
Fore
SplineSet
179.414118543 56.3946738049 m 0,0,1
 246 57 246 57 295.039778177 103.51195456 c 0,2,3
 343 149 343 149 359 224 c 1,4,5
 309 224 309 224 273.079139795 221.682525148 c 0,6,7
 216 218 216 218 180.8780801 207.896434001 c 0,8,9
 143 197 143 197 123.074115196 177.537507866 c 0,10,11
 100 155 100 155 100 122.608839188 c 0,12,13
 100 94 100 94 115.851587246 77.2677690186 c 0,14,15
 136 56 136 56 179.414118543 56.3946738049 c 0,0,1
456 292 m 1,16,-1
 748 292 l 1,17,18
 749 297 749 297 749 306 c 0,19,20
 749 340 749 340 737.276177076 366.261363349 c 0,21,22
 724 396 724 396 698.651135766 412.591983863 c 0,23,24
 669 432 669 432 626.857352881 432 c 0,25,26
 588 432 588 432 553.018861049 415.741160769 c 0,27,28
 517 399 517 399 492.73696516 369.503761567 c 0,29,30
 466 337 466 337 456 292 c 1,16,-1
163.050349749 -12 m 0,31,32
 94 -12 94 -12 52.3268485811 19.2548635642 c 0,33,34
 6 54 6 54 6 122.04945185 c 0,35,36
 6 174 6 174 34.0275912812 209.813033304 c 0,37,38
 60 243 60 243 112.637720137 262.336305356 c 0,39,40
 158 279 158 279 230.867945625 286.231170177 c 0,41,42
 289 292 289 292 367 292 c 1,43,44
 372 311 372 311 374.546312184 327.805660413 c 0,45,46
 377 344 377 344 377 357.13090936 c 0,47,48
 377 396 377 396 356.10916407 414.947502355 c 0,49,50
 334 435 334 435 287.75657474 435 c 0,51,52
 241 435 241 435 207.447370309 413.836033579 c 0,53,54
 176 394 176 394 160 358 c 1,55,-1
 84 382 l 1,56,57
 109 437 109 437 157.108123468 468.913309628 c 0,58,59
 210 504 210 504 288.922614125 504 c 0,60,61
 347 504 347 504 388.148538226 484.695747499 c 0,62,63
 428 466 428 466 446 432 c 1,64,65
 521 504 521 504 633.483398923 504 c 0,66,67
 703 504 703 504 750.566610615 474.604903552 c 0,68,69
 792 449 792 449 814.790767624 401.899080243 c 0,70,71
 837 356 837 356 837 299.174256175 c 0,72,73
 837 263 837 263 828 225 c 1,74,-1
 443 225 l 1,75,76
 442 218 442 218 442 204 c 0,77,78
 442 146 442 146 464.877826092 112.255206514 c 0,79,80
 482 87 482 87 514.775589152 73.5673814951 c 0,81,82
 543 62 543 62 578.571580765 62 c 0,83,84
 617 62 617 62 649.720817356 76.4829847313 c 0,85,86
 678 89 678 89 699 111 c 1,87,-1
 777 87 l 1,88,89
 743 43 743 43 694.60952396 17.8917341299 c 0,90,91
 637 -12 637 -12 567.850011063 -12 c 0,92,93
 498 -12 498 -12 448.672826852 20.3543823874 c 0,94,95
 405 49 405 49 382 100 c 1,96,97
 355 58 355 58 314.016791381 30.8624699683 c 0,98,99
 281 9 281 9 239.190037519 -2.11404065952 c 0,100,101
 202 -12 202 -12 163.050349749 -12 c 0,31,32
EndSplineSet
EndChar

StartChar: eth
Encoding: 240 240 183
Width: 569
GlyphClass: 1
Flags: W
HStem: -12 71<166.069 323.041> 370 75<188.117 348.643> 603 76<237 351.86>
VStem: 24 83<119.728 286.49> 441 85.0432<339.511 511.67>
DStem2: 273 509 301 473 0.782408 0.622766<0 109.316 206.096 266.264>
LayerCount: 2
Fore
SplineSet
242.824552757 59 m 0,0,1
 313 59 313 59 356.726336182 109.260156532 c 0,2,3
 400 159 400 159 400 233.2641462 c 0,4,5
 400 301 400 301 361.58093003 337.818275388 c 0,6,7
 328 370 328 370 270.842779802 370 c 0,8,9
 222 370 222 370 183.312916908 345.756094595 c 0,10,11
 147 323 147 323 126.900791981 283.304064162 c 0,12,13
 107 244 107 244 107 200.238719801 c 0,14,15
 107 161 107 161 122.967129284 129.564714222 c 128,-1,16
 139 98 139 98 166.768484668 79.9504849659 c 0,17,18
 199 59 199 59 242.824552757 59 c 0,0,1
240 -12 m 128,-1,20
 173 -12 173 -12 122.445745868 19.1930504218 c 0,21,22
 79 46 79 46 52.6471276354 91.5185977207 c 0,23,24
 24 141 24 141 24 202.993199867 c 0,25,26
 24 268 24 268 55.420466148 323.359868927 c 0,27,28
 87 379 87 379 141.291316047 410.993096956 c 0,29,30
 199 445 199 445 267.651713117 445 c 0,31,32
 314 445 314 445 351.477528253 427.914656238 c 0,33,34
 382 414 382 414 405.718515093 388.734625227 c 0,35,36
 428 365 428 365 437 339 c 1,37,38
 439 355 439 355 440 370 c 128,-1,39
 441 385 441 385 441 399.772241017 c 0,40,41
 441 452 441 452 427.75364038 491.209224475 c 0,42,43
 416 526 416 526 394 550 c 1,44,-1
 301 473 l 1,45,-1
 273 509 l 1,46,-1
 357 579 l 1,47,48
 329 594 329 594 293.199937539 599.791186575 c 0,49,50
 261 605 261 605 221 603 c 1,51,-1
 237 679 l 1,52,53
 294 681 294 681 338.074460712 671.622455168 c 0,54,55
 388 661 388 661 425 635 c 1,56,-1
 478 679 l 1,57,-1
 507 643 l 1,58,-1
 460 605 l 1,59,60
 494 568 494 568 510.365739641 511.682601825 c 0,61,62
 528 451 528 451 526.043196695 375.33693889 c 0,63,64
 525 335 525 335 519.857906268 298.214252533 c 0,65,66
 512 242 512 242 495.601940658 194.627828568 c 0,67,68
 476 138 476 138 447.016186293 96.9767559843 c 0,69,70
 411 46 411 46 361.471855374 18.378534728 c 0,71,19
 307 -12 307 -12 240 -12 c 128,-1,20
EndSplineSet
EndChar

StartChar: thorn
Encoding: 254 254 184
Width: 557
GlyphClass: 1
Flags: W
HStem: -161 21G<-26 64.3137> -12 72<193.201 329.764> 432 72<240.005 375.362> 648 20G<145.754 236>
VStem: -26 86<-161 -75> 150 86<582 668> 419.348 90.6521<176.251 384.336>
DStem2: -26 -161 60 -161 0.207912 0.978148<17.8804 278.743 400.402 572.353 630.404 847.477>
LayerCount: 2
Fore
SplineSet
261.379131801 60 m 0,0,1
 301 60 301 60 332.896801161 83.6476284472 c 0,2,3
 359 103 359 103 379.71569889 138.734580586 c 0,4,5
 399 172 399 172 409.370156688 212.962118916 c 0,6,7
 419 251 419 251 419.347904748 289.965331779 c 0,8,9
 420 363 420 363 385.840713542 400.412551835 c 0,10,11
 357 432 357 432 306.85155192 432 c 0,12,13
 265 432 265 432 229.859420105 407.840851322 c 0,14,15
 201 388 201 388 179.147703675 352.290149908 c 0,16,17
 160 321 160 321 149.687238642 281.377285309 c 0,18,19
 141 248 141 248 141 211.716749007 c 0,20,21
 141 141 141 141 174.477704007 99.9137269011 c 0,22,23
 207 60 207 60 261.379131801 60 c 0,0,1
-26 -161 m 1,24,-1
 150 668 l 1,25,-1
 236 668 l 1,26,-1
 188 438 l 1,27,28
 213 470 213 470 248.950617191 486.97668034 c 128,-1,29
 285 504 285 504 329.097543707 504 c 0,30,31
 408 504 408 504 456.3274561 452.355953775 c 0,32,33
 510 395 510 395 510 284.551200953 c 0,34,35
 510 196 510 196 473.881625238 124.81015989 c 0,36,37
 441 60 441 60 385.072474624 23.7226862423 c 0,38,39
 330 -12 330 -12 266.050767248 -12 c 0,40,41
 206 -12 206 -12 163.109317351 22.642474447 c 0,42,43
 128 51 128 51 115 94 c 1,44,-1
 60 -161 l 1,45,-1
 -26 -161 l 1,24,-1
EndSplineSet
EndChar

